<svg xmlns="http://www.w3.org/2000/svg" xmlns:xlink="http://www.w3.org/1999/xlink" width="300" zoomAndPan="magnify" viewBox="0 0 224.87999 74.999997" height="100" preserveAspectRatio="xMidYMid meet" version="1.0"><defs><g/><clipPath id="93adb518b6"><path d="M 0 0.0195312 L 224.761719 0.0195312 L 224.761719 74.980469 L 0 74.980469 Z M 0 0.0195312 " clip-rule="nonzero"/></clipPath><clipPath id="1d1716baa9"><path d="M 205 48 L 224.761719 48 L 224.761719 67 L 205 67 Z M 205 48 " clip-rule="nonzero"/></clipPath><clipPath id="cedfbedfc5"><path d="M 0.9375 0.0195312 L 38.910156 0.0195312 L 38.910156 74.980469 L 0.9375 74.980469 Z M 0.9375 0.0195312 " clip-rule="nonzero"/></clipPath><clipPath id="91bdf3e4ab"><path d="M 43 0.0195312 L 47 0.0195312 L 47 74.980469 L 43 74.980469 Z M 43 0.0195312 " clip-rule="nonzero"/></clipPath><clipPath id="8e00fed886"><rect x="0" width="225" y="0" height="75"/></clipPath></defs><g clip-path="url(#93adb518b6)"><g transform="matrix(1, 0, 0, 1, 0, -0.000000000000000847)"><g clip-path="url(#8e00fed886)"><g fill="#ffffff" fill-opacity="1"><g transform="translate(50.241719, 66.894818)"><g><path d="M 20.46875 -18.171875 L 12.796875 0 L 7.359375 0 L -0.265625 -18.171875 L 5.171875 -18.171875 L 10.203125 -5.8125 L 15.40625 -18.171875 Z M 20.46875 -18.171875 "/></g></g></g><g fill="#ffffff" fill-opacity="1"><g transform="translate(67.128271, 66.894818)"><g><path d="M 20.234375 -9.015625 C 20.234375 -8.953125 20.203125 -8.476562 20.140625 -7.59375 L 6.390625 -7.59375 C 6.628906 -6.46875 7.210938 -5.578125 8.140625 -4.921875 C 9.066406 -4.273438 10.21875 -3.953125 11.59375 -3.953125 C 12.53125 -3.953125 13.363281 -4.09375 14.09375 -4.375 C 14.832031 -4.65625 15.515625 -5.097656 16.140625 -5.703125 L 18.953125 -2.671875 C 17.242188 -0.710938 14.742188 0.265625 11.453125 0.265625 C 9.398438 0.265625 7.582031 -0.128906 6 -0.921875 C 4.425781 -1.722656 3.210938 -2.832031 2.359375 -4.25 C 1.503906 -5.675781 1.078125 -7.289062 1.078125 -9.09375 C 1.078125 -10.863281 1.5 -12.460938 2.34375 -13.890625 C 3.1875 -15.328125 4.347656 -16.441406 5.828125 -17.234375 C 7.304688 -18.035156 8.957031 -18.4375 10.78125 -18.4375 C 12.550781 -18.4375 14.15625 -18.050781 15.59375 -17.28125 C 17.039062 -16.519531 18.175781 -15.425781 19 -14 C 19.820312 -12.570312 20.234375 -10.910156 20.234375 -9.015625 Z M 10.8125 -14.453125 C 9.613281 -14.453125 8.609375 -14.113281 7.796875 -13.4375 C 6.992188 -12.769531 6.5 -11.847656 6.3125 -10.671875 L 15.265625 -10.671875 C 15.085938 -11.816406 14.59375 -12.734375 13.78125 -13.421875 C 12.96875 -14.109375 11.976562 -14.453125 10.8125 -14.453125 Z M 10.8125 -14.453125 "/></g></g></g><g fill="#ffffff" fill-opacity="1"><g transform="translate(85.129385, 66.894818)"><g><path d="M 7.46875 -15.78125 C 8.09375 -16.65625 8.941406 -17.316406 10.015625 -17.765625 C 11.085938 -18.210938 12.320312 -18.4375 13.71875 -18.4375 L 13.71875 -13.578125 C 13.132812 -13.617188 12.738281 -13.640625 12.53125 -13.640625 C 11.019531 -13.640625 9.835938 -13.21875 8.984375 -12.375 C 8.128906 -11.53125 7.703125 -10.265625 7.703125 -8.578125 L 7.703125 0 L 2.4375 0 L 2.4375 -18.171875 L 7.46875 -18.171875 Z M 7.46875 -15.78125 "/></g></g></g><g fill="#ffffff" fill-opacity="1"><g transform="translate(96.375557, 66.894818)"><g><path d="M 21.1875 -18.171875 L 21.1875 -3.046875 C 21.1875 0.285156 20.316406 2.765625 18.578125 4.390625 C 16.847656 6.015625 14.316406 6.828125 10.984375 6.828125 C 9.222656 6.828125 7.550781 6.613281 5.96875 6.1875 C 4.394531 5.757812 3.09375 5.140625 2.0625 4.328125 L 4.15625 0.546875 C 4.914062 1.171875 5.878906 1.664062 7.046875 2.03125 C 8.222656 2.40625 9.398438 2.59375 10.578125 2.59375 C 12.398438 2.59375 13.742188 2.179688 14.609375 1.359375 C 15.472656 0.546875 15.90625 -0.691406 15.90625 -2.359375 L 15.90625 -3.140625 C 14.53125 -1.628906 12.617188 -0.875 10.171875 -0.875 C 8.503906 -0.875 6.976562 -1.238281 5.59375 -1.96875 C 4.207031 -2.707031 3.109375 -3.738281 2.296875 -5.0625 C 1.484375 -6.394531 1.078125 -7.925781 1.078125 -9.65625 C 1.078125 -11.394531 1.484375 -12.925781 2.296875 -14.25 C 3.109375 -15.582031 4.207031 -16.613281 5.59375 -17.34375 C 6.976562 -18.070312 8.503906 -18.4375 10.171875 -18.4375 C 12.804688 -18.4375 14.8125 -17.570312 16.1875 -15.84375 L 16.1875 -18.171875 Z M 11.21875 -5.203125 C 12.613281 -5.203125 13.753906 -5.613281 14.640625 -6.4375 C 15.535156 -7.257812 15.984375 -8.332031 15.984375 -9.65625 C 15.984375 -10.988281 15.535156 -12.066406 14.640625 -12.890625 C 13.753906 -13.710938 12.613281 -14.125 11.21875 -14.125 C 9.820312 -14.125 8.671875 -13.710938 7.765625 -12.890625 C 6.867188 -12.066406 6.421875 -10.988281 6.421875 -9.65625 C 6.421875 -8.332031 6.867188 -7.257812 7.765625 -6.4375 C 8.671875 -5.613281 9.820312 -5.203125 11.21875 -5.203125 Z M 11.21875 -5.203125 "/></g></g></g><g fill="#ffffff" fill-opacity="1"><g transform="translate(116.707126, 66.894818)"><g><path d="M 2.4375 -25.0625 L 7.703125 -25.0625 L 7.703125 0 L 2.4375 0 Z M 2.4375 -25.0625 "/></g></g></g><g fill="#ffffff" fill-opacity="1"><g transform="translate(123.562582, 66.894818)"><g><path d="M 20.234375 -9.015625 C 20.234375 -8.953125 20.203125 -8.476562 20.140625 -7.59375 L 6.390625 -7.59375 C 6.628906 -6.46875 7.210938 -5.578125 8.140625 -4.921875 C 9.066406 -4.273438 10.21875 -3.953125 11.59375 -3.953125 C 12.53125 -3.953125 13.363281 -4.09375 14.09375 -4.375 C 14.832031 -4.65625 15.515625 -5.097656 16.140625 -5.703125 L 18.953125 -2.671875 C 17.242188 -0.710938 14.742188 0.265625 11.453125 0.265625 C 9.398438 0.265625 7.582031 -0.128906 6 -0.921875 C 4.425781 -1.722656 3.210938 -2.832031 2.359375 -4.25 C 1.503906 -5.675781 1.078125 -7.289062 1.078125 -9.09375 C 1.078125 -10.863281 1.5 -12.460938 2.34375 -13.890625 C 3.1875 -15.328125 4.347656 -16.441406 5.828125 -17.234375 C 7.304688 -18.035156 8.957031 -18.4375 10.78125 -18.4375 C 12.550781 -18.4375 14.15625 -18.050781 15.59375 -17.28125 C 17.039062 -16.519531 18.175781 -15.425781 19 -14 C 19.820312 -12.570312 20.234375 -10.910156 20.234375 -9.015625 Z M 10.8125 -14.453125 C 9.613281 -14.453125 8.609375 -14.113281 7.796875 -13.4375 C 6.992188 -12.769531 6.5 -11.847656 6.3125 -10.671875 L 15.265625 -10.671875 C 15.085938 -11.816406 14.59375 -12.734375 13.78125 -13.421875 C 12.96875 -14.109375 11.976562 -14.453125 10.8125 -14.453125 Z M 10.8125 -14.453125 "/></g></g></g><g fill="#ffffff" fill-opacity="1"><g transform="translate(141.563696, 66.894818)"><g><path d="M 2.4375 -18.171875 L 7.703125 -18.171875 L 7.703125 0 L 2.4375 0 Z M 5.0625 -20.703125 C 4.09375 -20.703125 3.304688 -20.984375 2.703125 -21.546875 C 2.097656 -22.109375 1.796875 -22.804688 1.796875 -23.640625 C 1.796875 -24.472656 2.097656 -25.171875 2.703125 -25.734375 C 3.304688 -26.296875 4.09375 -26.578125 5.0625 -26.578125 C 6.03125 -26.578125 6.816406 -26.304688 7.421875 -25.765625 C 8.035156 -25.234375 8.34375 -24.5625 8.34375 -23.75 C 8.34375 -22.875 8.035156 -22.144531 7.421875 -21.5625 C 6.816406 -20.988281 6.03125 -20.703125 5.0625 -20.703125 Z M 5.0625 -20.703125 "/></g></g></g><g fill="#ffffff" fill-opacity="1"><g transform="translate(148.419151, 66.894818)"><g><path d="M 11.21875 0.265625 C 9.28125 0.265625 7.539062 -0.128906 6 -0.921875 C 4.457031 -1.722656 3.25 -2.832031 2.375 -4.25 C 1.507812 -5.675781 1.078125 -7.289062 1.078125 -9.09375 C 1.078125 -10.894531 1.507812 -12.503906 2.375 -13.921875 C 3.25 -15.335938 4.457031 -16.441406 6 -17.234375 C 7.539062 -18.035156 9.28125 -18.4375 11.21875 -18.4375 C 13.132812 -18.4375 14.804688 -18.035156 16.234375 -17.234375 C 17.660156 -16.441406 18.703125 -15.300781 19.359375 -13.8125 L 15.265625 -11.625 C 14.316406 -13.289062 12.957031 -14.125 11.1875 -14.125 C 9.8125 -14.125 8.671875 -13.671875 7.765625 -12.765625 C 6.867188 -11.867188 6.421875 -10.644531 6.421875 -9.09375 C 6.421875 -7.53125 6.867188 -6.296875 7.765625 -5.390625 C 8.671875 -4.492188 9.8125 -4.046875 11.1875 -4.046875 C 12.988281 -4.046875 14.347656 -4.878906 15.265625 -6.546875 L 19.359375 -4.328125 C 18.703125 -2.878906 17.660156 -1.75 16.234375 -0.9375 C 14.804688 -0.132812 13.132812 0.265625 11.21875 0.265625 Z M 11.21875 0.265625 "/></g></g></g><g fill="#ffffff" fill-opacity="1"><g transform="translate(165.069279, 66.894818)"><g><path d="M 13.484375 -18.4375 C 15.734375 -18.4375 17.550781 -17.757812 18.9375 -16.40625 C 20.320312 -15.0625 21.015625 -13.0625 21.015625 -10.40625 L 21.015625 0 L 15.734375 0 L 15.734375 -9.59375 C 15.734375 -11.03125 15.414062 -12.101562 14.78125 -12.8125 C 14.15625 -13.53125 13.25 -13.890625 12.0625 -13.890625 C 10.726562 -13.890625 9.664062 -13.476562 8.875 -12.65625 C 8.09375 -11.832031 7.703125 -10.609375 7.703125 -8.984375 L 7.703125 0 L 2.4375 0 L 2.4375 -25.0625 L 7.703125 -25.0625 L 7.703125 -16.28125 C 8.398438 -16.976562 9.242188 -17.507812 10.234375 -17.875 C 11.222656 -18.25 12.304688 -18.4375 13.484375 -18.4375 Z M 13.484375 -18.4375 "/></g></g></g><g fill="#ffffff" fill-opacity="1"><g transform="translate(185.096884, 66.894818)"><g><path d="M 20.234375 -9.015625 C 20.234375 -8.953125 20.203125 -8.476562 20.140625 -7.59375 L 6.390625 -7.59375 C 6.628906 -6.46875 7.210938 -5.578125 8.140625 -4.921875 C 9.066406 -4.273438 10.21875 -3.953125 11.59375 -3.953125 C 12.53125 -3.953125 13.363281 -4.09375 14.09375 -4.375 C 14.832031 -4.65625 15.515625 -5.097656 16.140625 -5.703125 L 18.953125 -2.671875 C 17.242188 -0.710938 14.742188 0.265625 11.453125 0.265625 C 9.398438 0.265625 7.582031 -0.128906 6 -0.921875 C 4.425781 -1.722656 3.210938 -2.832031 2.359375 -4.25 C 1.503906 -5.675781 1.078125 -7.289062 1.078125 -9.09375 C 1.078125 -10.863281 1.5 -12.460938 2.34375 -13.890625 C 3.1875 -15.328125 4.347656 -16.441406 5.828125 -17.234375 C 7.304688 -18.035156 8.957031 -18.4375 10.78125 -18.4375 C 12.550781 -18.4375 14.15625 -18.050781 15.59375 -17.28125 C 17.039062 -16.519531 18.175781 -15.425781 19 -14 C 19.820312 -12.570312 20.234375 -10.910156 20.234375 -9.015625 Z M 10.8125 -14.453125 C 9.613281 -14.453125 8.609375 -14.113281 7.796875 -13.4375 C 6.992188 -12.769531 6.5 -11.847656 6.3125 -10.671875 L 15.265625 -10.671875 C 15.085938 -11.816406 14.59375 -12.734375 13.78125 -13.421875 C 12.96875 -14.109375 11.976562 -14.453125 10.8125 -14.453125 Z M 10.8125 -14.453125 "/></g></g></g><g clip-path="url(#1d1716baa9)"><g fill="#ffffff" fill-opacity="1"><g transform="translate(203.097998, 66.894818)"><g><path d="M 13.484375 -18.4375 C 15.734375 -18.4375 17.550781 -17.757812 18.9375 -16.40625 C 20.320312 -15.0625 21.015625 -13.0625 21.015625 -10.40625 L 21.015625 0 L 15.734375 0 L 15.734375 -9.59375 C 15.734375 -11.03125 15.414062 -12.101562 14.78125 -12.8125 C 14.15625 -13.53125 13.25 -13.890625 12.0625 -13.890625 C 10.726562 -13.890625 9.664062 -13.476562 8.875 -12.65625 C 8.09375 -11.832031 7.703125 -10.609375 7.703125 -8.984375 L 7.703125 0 L 2.4375 0 L 2.4375 -18.171875 L 7.46875 -18.171875 L 7.46875 -16.046875 C 8.164062 -16.804688 9.03125 -17.394531 10.0625 -17.8125 C 11.101562 -18.226562 12.242188 -18.4375 13.484375 -18.4375 Z M 13.484375 -18.4375 "/></g></g></g></g><g fill="#ffffff" fill-opacity="1"><g transform="translate(49.525252, 32.465083)"><g><path d="M 12.703125 -23.640625 C 15.722656 -23.640625 18.085938 -22.921875 19.796875 -21.484375 C 21.503906 -20.046875 22.359375 -18.066406 22.359375 -15.546875 C 22.359375 -13.015625 21.503906 -11.035156 19.796875 -9.609375 C 18.085938 -8.179688 15.722656 -7.46875 12.703125 -7.46875 L 6.34375 -7.46875 L 6.34375 0 L 3.84375 0 L 3.84375 -23.640625 Z M 12.640625 -9.65625 C 14.972656 -9.65625 16.757812 -10.164062 18 -11.1875 C 19.238281 -12.21875 19.859375 -13.671875 19.859375 -15.546875 C 19.859375 -17.453125 19.238281 -18.914062 18 -19.9375 C 16.757812 -20.96875 14.972656 -21.484375 12.640625 -21.484375 L 6.34375 -21.484375 L 6.34375 -9.65625 Z M 12.640625 -9.65625 "/></g></g></g><g fill="#ffffff" fill-opacity="1"><g transform="translate(70.464775, 32.465083)"><g><path d="M 5.640625 -14.296875 C 6.203125 -15.484375 7.039062 -16.378906 8.15625 -16.984375 C 9.269531 -17.597656 10.648438 -17.90625 12.296875 -17.90625 L 12.296875 -15.578125 L 11.71875 -15.609375 C 9.851562 -15.609375 8.390625 -15.03125 7.328125 -13.875 C 6.273438 -12.726562 5.75 -11.117188 5.75 -9.046875 L 5.75 0 L 3.34375 0 L 3.34375 -17.765625 L 5.640625 -17.765625 Z M 5.640625 -14.296875 "/></g></g></g><g fill="#ffffff" fill-opacity="1"><g transform="translate(80.697707, 32.465083)"><g><path d="M 9.5625 -17.90625 C 11.882812 -17.90625 13.660156 -17.320312 14.890625 -16.15625 C 16.128906 -15 16.75 -13.285156 16.75 -11.015625 L 16.75 0 L 14.453125 0 L 14.453125 -2.765625 C 13.910156 -1.847656 13.113281 -1.128906 12.0625 -0.609375 C 11.019531 -0.0859375 9.78125 0.171875 8.34375 0.171875 C 6.363281 0.171875 4.785156 -0.300781 3.609375 -1.25 C 2.441406 -2.195312 1.859375 -3.445312 1.859375 -5 C 1.859375 -6.507812 2.40625 -7.722656 3.5 -8.640625 C 4.59375 -9.566406 6.332031 -10.03125 8.71875 -10.03125 L 14.359375 -10.03125 L 14.359375 -11.109375 C 14.359375 -12.640625 13.929688 -13.804688 13.078125 -14.609375 C 12.222656 -15.410156 10.972656 -15.8125 9.328125 -15.8125 C 8.203125 -15.8125 7.117188 -15.625 6.078125 -15.25 C 5.046875 -14.875 4.15625 -14.363281 3.40625 -13.71875 L 2.328125 -15.5 C 3.234375 -16.269531 4.316406 -16.863281 5.578125 -17.28125 C 6.835938 -17.695312 8.164062 -17.90625 9.5625 -17.90625 Z M 8.71875 -1.71875 C 10.070312 -1.71875 11.226562 -2.023438 12.1875 -2.640625 C 13.15625 -3.265625 13.878906 -4.164062 14.359375 -5.34375 L 14.359375 -8.25 L 8.78125 -8.25 C 5.738281 -8.25 4.21875 -7.1875 4.21875 -5.0625 C 4.21875 -4.03125 4.613281 -3.210938 5.40625 -2.609375 C 6.195312 -2.015625 7.300781 -1.71875 8.71875 -1.71875 Z M 6.625 -21.3125 C 6.21875 -21.3125 5.875 -21.445312 5.59375 -21.71875 C 5.3125 -21.988281 5.171875 -22.335938 5.171875 -22.765625 C 5.171875 -23.171875 5.3125 -23.515625 5.59375 -23.796875 C 5.875 -24.078125 6.21875 -24.21875 6.625 -24.21875 C 7.007812 -24.21875 7.347656 -24.078125 7.640625 -23.796875 C 7.929688 -23.515625 8.078125 -23.171875 8.078125 -22.765625 C 8.078125 -22.359375 7.9375 -22.015625 7.65625 -21.734375 C 7.375 -21.453125 7.03125 -21.3125 6.625 -21.3125 Z M 12.640625 -21.3125 C 12.234375 -21.3125 11.890625 -21.453125 11.609375 -21.734375 C 11.328125 -22.015625 11.1875 -22.359375 11.1875 -22.765625 C 11.1875 -23.171875 11.332031 -23.515625 11.625 -23.796875 C 11.914062 -24.078125 12.253906 -24.21875 12.640625 -24.21875 C 13.046875 -24.21875 13.390625 -24.078125 13.671875 -23.796875 C 13.953125 -23.515625 14.09375 -23.171875 14.09375 -22.765625 C 14.09375 -22.335938 13.953125 -21.988281 13.671875 -21.71875 C 13.390625 -21.445312 13.046875 -21.3125 12.640625 -21.3125 Z M 12.640625 -21.3125 "/></g></g></g><g fill="#ffffff" fill-opacity="1"><g transform="translate(97.314064, 32.465083)"><g><path d="M 25.5 -17.90625 C 27.726562 -17.90625 29.476562 -17.257812 30.75 -15.96875 C 32.03125 -14.6875 32.671875 -12.796875 32.671875 -10.296875 L 32.671875 0 L 30.265625 0 L 30.265625 -10.0625 C 30.265625 -11.914062 29.816406 -13.320312 28.921875 -14.28125 C 28.035156 -15.25 26.785156 -15.734375 25.171875 -15.734375 C 23.316406 -15.734375 21.859375 -15.164062 20.796875 -14.03125 C 19.742188 -12.894531 19.21875 -11.328125 19.21875 -9.328125 L 19.21875 0 L 16.828125 0 L 16.828125 -10.0625 C 16.828125 -11.914062 16.378906 -13.320312 15.484375 -14.28125 C 14.597656 -15.25 13.332031 -15.734375 11.6875 -15.734375 C 9.863281 -15.734375 8.414062 -15.164062 7.34375 -14.03125 C 6.28125 -12.894531 5.75 -11.328125 5.75 -9.328125 L 5.75 0 L 3.34375 0 L 3.34375 -17.765625 L 5.640625 -17.765625 L 5.640625 -14.53125 C 6.273438 -15.601562 7.15625 -16.429688 8.28125 -17.015625 C 9.40625 -17.609375 10.695312 -17.90625 12.15625 -17.90625 C 13.644531 -17.90625 14.9375 -17.585938 16.03125 -16.953125 C 17.125 -16.328125 17.941406 -15.394531 18.484375 -14.15625 C 19.128906 -15.320312 20.066406 -16.238281 21.296875 -16.90625 C 22.523438 -17.570312 23.925781 -17.90625 25.5 -17.90625 Z M 25.5 -17.90625 "/></g></g></g><g fill="#ffffff" fill-opacity="1"><g transform="translate(129.838314, 32.465083)"><g><path d="M 3.34375 -17.765625 L 5.75 -17.765625 L 5.75 0 L 3.34375 0 Z M 4.546875 -21.65625 C 4.054688 -21.65625 3.640625 -21.820312 3.296875 -22.15625 C 2.960938 -22.5 2.796875 -22.90625 2.796875 -23.375 C 2.796875 -23.820312 2.960938 -24.210938 3.296875 -24.546875 C 3.640625 -24.890625 4.054688 -25.0625 4.546875 -25.0625 C 5.046875 -25.0625 5.460938 -24.898438 5.796875 -24.578125 C 6.140625 -24.253906 6.3125 -23.863281 6.3125 -23.40625 C 6.3125 -22.914062 6.140625 -22.5 5.796875 -22.15625 C 5.460938 -21.820312 5.046875 -21.65625 4.546875 -21.65625 Z M 4.546875 -21.65625 "/></g></g></g><g fill="#ffffff" fill-opacity="1"><g transform="translate(135.612978, 32.465083)"><g><path d="M 18.8125 -8.140625 L 3.953125 -8.140625 C 4.085938 -6.296875 4.796875 -4.800781 6.078125 -3.65625 C 7.359375 -2.519531 8.976562 -1.953125 10.9375 -1.953125 C 12.039062 -1.953125 13.054688 -2.148438 13.984375 -2.546875 C 14.910156 -2.941406 15.710938 -3.523438 16.390625 -4.296875 L 17.734375 -2.734375 C 16.941406 -1.785156 15.953125 -1.0625 14.765625 -0.5625 C 13.585938 -0.0703125 12.289062 0.171875 10.875 0.171875 C 9.050781 0.171875 7.4375 -0.210938 6.03125 -0.984375 C 4.625 -1.765625 3.523438 -2.84375 2.734375 -4.21875 C 1.941406 -5.59375 1.546875 -7.148438 1.546875 -8.890625 C 1.546875 -10.617188 1.921875 -12.171875 2.671875 -13.546875 C 3.429688 -14.921875 4.46875 -15.988281 5.78125 -16.75 C 7.101562 -17.519531 8.585938 -17.90625 10.234375 -17.90625 C 11.878906 -17.90625 13.351562 -17.519531 14.65625 -16.75 C 15.96875 -15.988281 16.992188 -14.925781 17.734375 -13.5625 C 18.472656 -12.195312 18.84375 -10.640625 18.84375 -8.890625 Z M 10.234375 -15.84375 C 8.523438 -15.84375 7.085938 -15.296875 5.921875 -14.203125 C 4.765625 -13.109375 4.109375 -11.6875 3.953125 -9.9375 L 16.546875 -9.9375 C 16.390625 -11.6875 15.734375 -13.109375 14.578125 -14.203125 C 13.421875 -15.296875 11.972656 -15.84375 10.234375 -15.84375 Z M 10.234375 -15.84375 "/></g></g></g><g fill="#ffffff" fill-opacity="1"><g transform="translate(152.702174, 32.465083)"><g><path d="M 12.390625 -17.90625 C 14.617188 -17.90625 16.390625 -17.253906 17.703125 -15.953125 C 19.023438 -14.660156 19.6875 -12.773438 19.6875 -10.296875 L 19.6875 0 L 17.296875 0 L 17.296875 -10.0625 C 17.296875 -11.914062 16.832031 -13.320312 15.90625 -14.28125 C 14.988281 -15.25 13.671875 -15.734375 11.953125 -15.734375 C 10.046875 -15.734375 8.535156 -15.164062 7.421875 -14.03125 C 6.304688 -12.894531 5.75 -11.328125 5.75 -9.328125 L 5.75 0 L 3.34375 0 L 3.34375 -17.765625 L 5.640625 -17.765625 L 5.640625 -14.484375 C 6.296875 -15.566406 7.203125 -16.40625 8.359375 -17 C 9.515625 -17.601562 10.859375 -17.90625 12.390625 -17.90625 Z M 12.390625 -17.90625 "/></g></g></g><g fill="#ffffff" fill-opacity="1"><g transform="translate(172.26516, 32.465083)"><g/></g></g><g clip-path="url(#cedfbedfc5)"><path fill="#ffffff" d="M 27.265625 0.0195312 L 27.265625 26.351562 L 0.9375 26.351562 L 0.9375 48.917969 L 27.265625 48.917969 L 27.265625 75.25 L 49.835938 75.25 L 49.835938 48.917969 L 76.167969 48.917969 L 76.167969 26.351562 L 49.835938 26.351562 L 49.835938 0.0195312 Z M 27.265625 0.0195312 " fill-opacity="1" fill-rule="evenodd"/></g><g clip-path="url(#91bdf3e4ab)"><path stroke-linecap="butt" transform="matrix(0.00000000125047, 0.716468, -0.716468, 0.00000000125047, 46.045883, 0.025367)" fill="none" stroke-linejoin="miter" d="M -0.00269306 1.999533 L 104.622981 1.999534 " stroke="#ffffff" stroke-width="4" stroke-opacity="1" stroke-miterlimit="4"/></g></g></g></g></svg>