<?xml version="1.0" encoding="UTF-8"?>
<svg xmlns="http://www.w3.org/2000/svg" xmlns:xlink="http://www.w3.org/1999/xlink" version="1.1" id="Ebene_1" x="0px" y="0px" viewBox="0 0 630.7 201.3" style="enable-background:new 0 0 630.7 201.3;" xml:space="preserve">
<style type="text/css">
	.st0{fill:#375064;}
	.st1{fill:#78BECD;}
</style>
<path class="st0" d="M507.9,136.2c-8.6,0-14.8-7.3-14.8-15.6c0-8.4,6.2-15.7,14.8-15.7c5.2,0,10,1.9,13.5,7.1v17  C517.9,134.3,513.1,136.2,507.9,136.2 M521.4,95.6v3.5c-4.1-3-9.3-4.7-15.3-4.7c-14,0-25.2,11.6-25.2,26.2  c0,14.5,11.2,26.1,25.2,26.1c6,0,11.2-1.7,15.3-4.7v3.5h12.2V95.6L521.4,95.6L521.4,95.6z M449.8,94c-6,0-11.1,2.1-15.5,5.7v-4.1  h-12.3v50.1h12.3v-33.3c3.8-4.7,8.6-7.2,12.9-7.2c7.6,0,12.3,4.9,12.3,13.6v26.9h12.2V118C471.7,103.5,462.9,94,449.8,94   M383.5,136.2c-8.6,0-14.8-7.3-14.8-15.6c0-8.4,6.2-15.7,14.8-15.7c5.2,0,10,1.9,13.5,7.1v17C393.6,134.3,388.7,136.2,383.5,136.2   M397.1,95.6v3.5c-4.1-3-9.3-4.7-15.4-4.7c-14,0-25.2,11.6-25.2,26.2c0,14.5,11.2,26.1,25.2,26.1c6,0,11.2-1.7,15.4-4.7v3.5h12.2  V95.6L397.1,95.6L397.1,95.6L397.1,95.6z M346.5,70.5h-12.3v75.1h12.3V70.5z M308.9,145.7h12.2V95.6h-12.2V145.7z M295.6,95.6h-12.2  v33.1c-3.8,4.8-8.6,7.4-13,7.4c-7.6,0-12.3-5-12.3-13.6V95.6H246v27.6c0,14.5,8.8,24,21.9,24c6.1,0,11.2-2.1,15.6-5.8v4.2h12.2V95.6  z M208.1,136.2c-8.6,0-14.8-7.3-14.8-15.6c0-8.4,6.2-15.7,14.8-15.7c5.2,0,10,1.9,13.5,7.1v17C218.2,134.3,213.3,136.2,208.1,136.2   M233.8,95.6h-12.2v3.5c-4.1-3-9.3-4.7-15.4-4.7c-14,0-25.2,11.6-25.2,26.2c0,14.5,11.2,26.1,25.2,26.1c6,0,11.2-1.7,15.4-4.7v28.6  h12.2V95.6z M145.3,136.2c-8.6,0-14.8-7.3-14.8-15.6c0-8.4,6.2-15.7,14.8-15.7c5.2,0,10,1.9,13.5,7.1v17  C155.4,134.3,150.5,136.2,145.3,136.2 M158.9,95.6v3.5c-4.1-3-9.3-4.7-15.4-4.7c-14,0-25.2,11.6-25.2,26.2  c0,14.5,11.2,26.1,25.2,26.1c6,0,11.2-1.7,15.4-4.7v3.5h12.2V95.6L158.9,95.6L158.9,95.6z"></path>
<g>
	<path class="st0" d="M257.5,191.5h10v1.8h-2.2c-0.7,4.9-3.9,8.1-9.6,8.1c-6.7,0-10.5-5.1-10.5-10.7s4-10.7,10.5-10.7   c4.4,0,7.8,2.5,8.4,5.7h-2c-0.6-2.2-3.1-3.9-6.4-3.9c-5.3,0-8.4,4.3-8.4,8.9s2.9,8.9,8.6,8.9c4.4,0,6.9-2.7,7.3-6.3h-5.7V191.5   L257.5,191.5z"></path>
	<path class="st0" d="M272.2,194.9c0.1,2.5,1.4,4.7,4.6,4.7c2.1,0,3.4-1.1,3.8-2.4h1.9c-0.4,2.1-2.5,4-5.7,4c-4.4,0-6.5-3.1-6.5-6.8   c0-3.9,2.3-6.8,6.4-6.8c3.4,0,6,2.5,6,5.8c0,0.4,0,0.8-0.1,1.4L272.2,194.9L272.2,194.9z M272.2,193.5h8.6c0-2.5-1.8-4.2-4.2-4.2   C274,189.2,272.3,190.9,272.2,193.5z"></path>
	<path class="st0" d="M296.1,197.5c0,2.5-2,3.8-5,3.8c-2.9,0-5.4-1.5-5.4-4.7h1.9c0,2.3,1.6,3.1,3.6,3.1c1.9,0,3.1-0.8,3.1-2.2   c0-1.7-1.8-1.9-4.3-2.6c-2.1-0.5-3.9-1.1-3.9-3.5c0-2.4,2-3.7,4.8-3.7c2.8,0,5,1.6,5,4.3h-1.9c0-1.8-1.2-2.8-3.2-2.8   c-1.7,0-2.9,0.8-2.9,2.2c0,1.5,1.4,1.8,3.9,2.5C294.1,194.5,296.1,195,296.1,197.5z"></path>
	<path class="st0" d="M311.8,188.1V201h-1.9v-2.8c-0.7,1.8-2.5,3.1-4.9,3.1c-1.7,0-3.1-0.6-3.9-1.6c-0.8-1-1.1-2.2-1.1-4v-7.6h1.9v7   c0,2.5,1,4.5,3.7,4.5c2.9,0,4.3-2.5,4.3-4.9v-6.6H311.8z"></path>
	<path class="st0" d="M316.6,188.1h1.9v2.8c0.7-1.8,2.5-3.1,4.9-3.1c1.8,0,3.1,0.6,3.9,1.6c0.8,1,1.1,2.2,1.1,4v7.6h-1.9v-7   c0-2.5-1.1-4.5-3.8-4.5c-2.9,0-4.3,2.5-4.3,4.9v6.6h-1.9L316.6,188.1L316.6,188.1z"></path>
	<path class="st0" d="M343.9,198.3c-0.9,1.8-2.8,3-5,3c-4,0-6.7-3.1-6.7-6.8c0-3.7,2.7-6.8,6.7-6.8c2.2,0,4.2,1.2,5,3v-10.2h1.9V201   h-1.9V198.3z M343.9,194.5c0-2.8-1.9-5-4.9-5c-3,0-4.9,2.3-4.9,5c0,2.7,1.9,5,4.9,5C342,199.6,343.9,197.2,343.9,194.5z"></path>
	<path class="st0" d="M350.6,180.6h1.9v10.3c0.7-1.8,2.5-3.1,4.9-3.1c1.8,0,3.1,0.6,3.9,1.6c0.8,1,1.1,2.2,1.1,4v7.6h-1.9v-7   c0-2.5-1.1-4.5-3.8-4.5c-2.9,0-4.3,2.5-4.3,4.9v6.6h-1.9V180.6L350.6,180.6z"></path>
	<path class="st0" d="M368.2,194.9c0.1,2.5,1.4,4.7,4.6,4.7c2.1,0,3.4-1.1,3.8-2.4h1.9c-0.4,2.1-2.5,4-5.7,4c-4.4,0-6.5-3.1-6.5-6.8   c0-3.9,2.3-6.8,6.4-6.8c3.4,0,6,2.5,6,5.8c0,0.4,0,0.8-0.1,1.4L368.2,194.9L368.2,194.9z M368.2,193.5h8.6c0-2.5-1.8-4.2-4.2-4.2   C370,189.2,368.3,190.9,368.2,193.5z"></path>
	<path class="st0" d="M383.6,181.2c1,0,1.8,0.8,1.8,1.8c0,1-0.8,1.7-1.8,1.7c-1,0-1.7-0.8-1.7-1.7   C381.8,182,382.6,181.2,383.6,181.2z M382.6,188.1h1.9V201h-1.9V188.1z"></path>
	<path class="st0" d="M396.4,201c-0.5,0.1-1.4,0.2-2.2,0.2c-1.7,0-3.9-0.4-3.9-4.5v-7h-2.6v-1.6h2.6v-4.8h1.9v4.8h3.7v1.6h-3.7v6.6   c0,2.8,1,3.1,2.4,3.1c0.5,0,1.3-0.1,1.8-0.1V201z"></path>
	<path class="st0" d="M414.8,182.4c-0.5-0.2-0.9-0.3-1.6-0.3c-1.1,0-2.5,0.2-2.5,2.9v3.1h4v1.6h-4V201h-1.9v-11.3h-3v-1.6h3v-2.9   c0-4.4,2.5-4.8,4.1-4.8c0.8,0,1.4,0.1,1.8,0.4L414.8,182.4L414.8,182.4z"></path>
	<path class="st0" d="M429.5,201h-1.9v-2.8c-0.7,1.8-2.5,3.1-4.9,3.1c-1.7,0-3.1-0.6-3.9-1.6c-0.8-1-1.1-2.2-1.1-4v-7.6h1.9v7   c0,2.5,1,4.5,3.7,4.5c2.9,0,4.3-2.5,4.3-4.9v-6.6h1.9V201z M420.2,181.5c1,0,1.8,0.8,1.8,1.8c0,1-0.8,1.7-1.8,1.7   c-1,0-1.7-0.8-1.7-1.7C418.5,182.3,419.3,181.5,420.2,181.5z M427,181.5c1,0,1.8,0.8,1.8,1.8c0,1-0.8,1.7-1.8,1.7   c-1,0-1.7-0.8-1.7-1.7C425.2,182.3,426,181.5,427,181.5z"></path>
	<path class="st0" d="M442.1,189.8c-0.5-0.1-0.8-0.2-1.2-0.2c-3.2,0-4.6,2.6-4.6,5.6v5.8h-1.9V188h1.9v3c0.8-2.1,2.7-3.2,4.6-3.2   c0.5,0,0.9,0.1,1.2,0.2V189.8z"></path>
	<path class="st0" d="M464.4,191.5h10v1.8h-2.2c-0.7,4.9-3.9,8.1-9.6,8.1c-6.7,0-10.5-5.1-10.5-10.7s4-10.7,10.5-10.7   c4.4,0,7.8,2.5,8.4,5.7h-2c-0.6-2.2-3.2-3.9-6.4-3.9c-5.3,0-8.4,4.3-8.4,8.9s2.9,8.9,8.7,8.9c4.4,0,6.9-2.7,7.3-6.3h-5.7   L464.4,191.5L464.4,191.5z"></path>
	<path class="st0" d="M479,194.9c0.1,2.5,1.4,4.7,4.6,4.7c2.1,0,3.4-1.1,3.8-2.4h1.9c-0.4,2.1-2.5,4-5.7,4c-4.3,0-6.5-3.1-6.5-6.8   c0-3.9,2.3-6.8,6.4-6.8c3.4,0,6,2.5,6,5.8c0,0.4,0,0.8-0.1,1.4L479,194.9L479,194.9z M479,193.5h8.6c0-2.5-1.8-4.2-4.2-4.2   C480.9,189.2,479.2,190.9,479,193.5z"></path>
	<path class="st0" d="M493.6,188.1h1.9v2.8c0.7-1.8,2.5-3.1,4.9-3.1c1.8,0,3.1,0.6,3.9,1.6c0.8,1,1.1,2.2,1.1,4v7.6h-1.9v-7   c0-2.5-1.1-4.5-3.8-4.5c-2.9,0-4.3,2.5-4.3,4.9v6.6h-1.9L493.6,188.1L493.6,188.1z"></path>
	<path class="st0" d="M511.1,194.9c0.1,2.5,1.4,4.7,4.6,4.7c2.1,0,3.4-1.1,3.8-2.4h1.9c-0.4,2.1-2.5,4-5.7,4c-4.3,0-6.5-3.1-6.5-6.8   c0-3.9,2.3-6.8,6.4-6.8c3.4,0,6,2.5,6,5.8c0,0.4,0,0.8-0.1,1.4L511.1,194.9L511.1,194.9z M511.2,193.5h8.6c0-2.5-1.8-4.2-4.2-4.2   C513,189.2,511.3,190.9,511.2,193.5z"></path>
	<path class="st0" d="M533.4,189.8c-0.5-0.1-0.8-0.2-1.2-0.2c-3.2,0-4.6,2.6-4.6,5.6v5.8h-1.9V188h1.9v3c0.8-2.1,2.7-3.2,4.6-3.2   c0.5,0,0.9,0.1,1.2,0.2V189.8z"></path>
	<path class="st0" d="M548.7,188.1V201h-1.9v-2.7c-0.8,1.8-2.8,3-5,3c-4,0-6.7-3.1-6.7-6.8c0-3.7,2.7-6.8,6.7-6.8c2.2,0,4.2,1.2,5,3   V188L548.7,188.1L548.7,188.1z M546.8,194.5c0-2.8-1.9-5-4.9-5c-3,0-4.9,2.3-4.9,5c0,2.7,1.9,5,4.9,5   C544.8,199.6,546.8,197.2,546.8,194.5z"></path>
	<path class="st0" d="M560.6,201c-0.5,0.1-1.4,0.2-2.2,0.2c-1.7,0-3.9-0.4-3.9-4.5v-7h-2.6v-1.6h2.6v-4.8h1.9v4.8h3.7v1.6h-3.7v6.6   c0,2.8,1,3.1,2.4,3.1c0.5,0,1.3-0.1,1.8-0.1V201z"></path>
	<path class="st0" d="M564.5,181.2c1,0,1.8,0.8,1.8,1.8c0,1-0.8,1.7-1.8,1.7c-1,0-1.7-0.8-1.7-1.7   C562.8,182,563.5,181.2,564.5,181.2z M563.6,188.1h1.9V201h-1.9V188.1z"></path>
	<path class="st0" d="M569.3,194.5c0-3.7,2.7-6.8,6.8-6.8c4.2,0,6.8,3.1,6.8,6.8c0,3.6-2.7,6.8-6.8,6.8   C572,201.3,569.3,198.2,569.3,194.5z M581,194.5c0-2.8-1.9-5-4.9-5c-3,0-4.9,2.3-4.9,5c0,2.7,1.9,5,4.9,5   C579.1,199.6,581,197.2,581,194.5z"></path>
	<path class="st0" d="M586.8,188.1h1.9v2.8c0.7-1.8,2.5-3.1,4.9-3.1c1.8,0,3.1,0.6,3.9,1.6c0.8,1,1.1,2.2,1.1,4v7.6h-1.9v-7   c0-2.5-1.1-4.5-3.8-4.5c-2.9,0-4.3,2.5-4.3,4.9v6.6h-1.9L586.8,188.1L586.8,188.1z"></path>
	<path class="st0" d="M604.4,194.9c0.1,2.5,1.4,4.7,4.6,4.7c2.1,0,3.4-1.1,3.8-2.4h1.9c-0.4,2.1-2.5,4-5.7,4c-4.3,0-6.5-3.1-6.5-6.8   c0-3.9,2.3-6.8,6.4-6.8c3.4,0,6,2.5,6,5.8c0,0.4,0,0.8-0.1,1.4L604.4,194.9L604.4,194.9z M604.4,193.5h8.6c0-2.5-1.8-4.2-4.2-4.2   C606.2,189.2,604.5,190.9,604.4,193.5z"></path>
	<path class="st0" d="M618.9,188.1h1.9v2.8c0.7-1.8,2.5-3.1,4.9-3.1c1.8,0,3.1,0.6,3.9,1.6c0.8,1,1.1,2.2,1.1,4v7.6h-1.9v-7   c0-2.5-1.1-4.5-3.8-4.5c-2.9,0-4.3,2.5-4.3,4.9v6.6h-1.9L618.9,188.1L618.9,188.1z"></path>
</g>
<g>
	<path class="st1" d="M72.8,73.7h4.8h4.8C80.6,79.7,74.6,79.7,72.8,73.7"></path>
	<path class="st1" d="M314.9,84.8c4.2,0,7.6-3.3,7.6-7.4c0-4.1-3.4-7.4-7.6-7.4s-7.6,3.3-7.6,7.4S310.7,84.8,314.9,84.8"></path>
	<path class="st1" d="M103.2,138.9c-9.7-16.2-8.1-35.5,3.8-48.9c9.8-11.2,7.3-28.2-5.5-35.9c-3-1.8-6.2-3.4-9.4-5.1   C62.8,33.3,1.8,0.8,0,0c4.2,19.1,16.5,30.6,31.6,39.9C23.8,37.3,16,34.7,8.1,32c0.5,11.4,12,21.2,23.8,27c-1.9-0.5-3.8-1-5.6-1.5   c-4.7-1.3-9-2.5-11.3-3c0.9,7.8,6,14.3,11.7,19.3c8.4,7.3,18.2,11.3,18.2,11.3s1.2-3.6,2-5.3c0,0,0,0,0,0c0.6-1.4,1.3-2.7,2.1-3.9   c0,0,0,0,0,0c4.2-6.4,10.6-9.2,19.8-9.4c13.4-0.3,18.7,4.5,19.1,7.4c0,0,23.3,4.4,8.7,19.8c0-0.2,1.1-4.6-4.9-5c0,0,0,0-0.1,0   c-1.4-0.1-24.2-1.5-20.5,24.2c0.1,0.9,1.1,5.7,3.7,10.5c1.2,2.2,4.6,7.4,9.9,12c6.4,5.5,15,10.5,19.7,13.4   c6.1,3.8,15.2,7.8,15.2,7.8s-4.1-3-7.6-6.6C107.9,145.6,104.2,140.5,103.2,138.9z"></path>
</g>
<g id="Ebene_2_00000139982971079430141660000009470092971564509089_">
</g>
</svg>
