<?xml version="1.0" encoding="utf-8"?>
<!-- Generator: Adobe Illustrator 25.0.0, SVG Export Plug-In . SVG Version: 6.00 Build 0)  -->
<svg version="1.1" id="logo" xmlns="http://www.w3.org/2000/svg" xmlns:xlink="http://www.w3.org/1999/xlink" x="0px" y="0px"
	 viewBox="0 0 400 62.5" enable-background="new 0 0 400 62.5" xml:space="preserve">
<path id="color_red" fill="#E62D0A" d="M88.9,13.4c0-5,4.8-6,8-6c6.7,0,11.5,3,14.6,14.7h4V7.4c-6.9-4.8-12-6.4-20.2-6.4
	C80.7,1,70.8,8.9,70.8,20.1c0,19.5,30.8,19.1,30.8,30.2c0,3-2.9,5.5-8,5.5c-5.9,0-12.3-2.2-18.3-15.1h-3.9v16.5
	c4.6,2.4,13.4,5.2,22.7,5.2c15.3,0,25.5-8,25.5-19.9l0,0C119.5,23,88.9,23.5,88.9,13.4z M57.7,42.2V2.9c0,0-12-1.2-22.3-1.8
	C14.5-0.1,0,8.9,0,31.1c0,19.7,9.2,31.1,23.6,31.1c6.8,0,12.2-3.7,15.6-7.4l1.6,5.4h23.8v-4.5L62,55.5C58,55.3,57.7,54.1,57.7,42.2z
	 M38.5,49C23.9,56.2,18,44.3,18,31.2c0-12.8,2.8-26.6,20.5-22.9V49z M143.9,13.4c0-5,4.8-6,8-6c6.7,0,11.5,3,14.6,14.7h4V7.4
	C163.6,2.6,158.6,1,150.4,1c-14.6,0-24.5,7.9-24.5,19.1c0,19.5,30.8,19.1,30.8,30.2c0,3-2.9,5.5-8,5.5c-5.9,0-12.3-2.2-18.3-15.1
	h-3.9v16.5c4.6,2.4,13.4,5.2,22.7,5.2c15.3,0,25.5-8,25.5-19.9l0,0C174.6,23,143.9,23.5,143.9,13.4z M291.4,1
	c-8.2,0-13.3,5-16.9,16.9v-15h-24.9v4.8l1.8,0.4c1.8,0.4,3.9,1.5,3.9,4.8v47.5h25.9v-4.5l-2.6-0.2c-3.8-0.3-4.1-1.6-4.1-13.4V25.9
	c2.5-6.1,6.8-8.7,12.6-8.7c4.1,0,7.9,1.7,10.4,2.9l6.1-16C302,3.2,297.2,1,291.4,1z M240.3,42.2V2.9h-24.9v4.8l1.8,0.4
	c1.8,0.4,3.9,1.5,3.9,4.8V49c0,0-6.4,2.2-10.2,2.2c-4.5,0-7.2-3.3-7.2-10.5V2.9h-24.9v4.8l1.8,0.4c1.8,0.4,3.9,1.5,3.9,4.8v30.5
	c0,14.6,8.6,19,18.3,19c9.8,0,13.4-3.4,18.9-7.4l1.5,5.4H247v-4.5l-2.6-0.2C240.7,55.3,240.3,54.1,240.3,42.2z M386.3,35.5
	L386.3,35.5c-7.6,0-13.4,5.8-13.4,13.5c0,7.6,5.8,13.3,13.4,13.3s13.4-5.7,13.4-13.3C399.7,41.2,393.9,35.5,386.3,35.5z M360.4,42.2
	V2.9c0,0-12-1.2-22.3-1.8c-20.8-1.3-35.4,7.8-35.4,30c0,19.7,9.2,31.1,23.6,31.1c6.8,0,12.2-3.7,15.6-7.4l1.6,5.4h23.8v-4.5
	l-2.6-0.2C360.8,55.3,360.4,54.1,360.4,42.2z M341.2,49c-14.6,7.3-20.5-4.7-20.5-17.8c0-12.8,2.8-26.6,20.5-22.9V49z"/>
</svg>
