<?xml version="1.0" encoding="utf-8"?>
<!-- Generator: Adobe Illustrator 24.1.2, SVG Export Plug-In . SVG Version: 6.00 Build 0)  -->
<svg version="1.1" id="atupri" xmlns="http://www.w3.org/2000/svg" xmlns:xlink="http://www.w3.org/1999/xlink" x="0px" y="0px"
	 viewBox="0 0 400 126.1" enable-background="new 0 0 400 126.1" xml:space="preserve">
<polygon id="color_red" fill="#FF3C34" points="376.1,3.2 376.1,24.5 376.1,24.5 397.4,24.5 397.4,3.2 "/>
<path id="color_blue" fill="#324AB5" d="M103.9,76.2c-1.5-2.3-2.2-5-2-7.7V41.1h17.8V24.5h-17.8V3.2H80.6v64c0,4,0.4,7.9,1.3,11.8
	c0.8,3.3,2.3,6.4,4.4,9.1c2.2,2.6,5,4.6,8.1,5.9c3.9,1.5,8.2,2.3,12.4,2.1c4.6,0,9.1-0.9,13.3-2.8V78
	C110.8,81.2,105.4,78.2,103.9,76.2z M36.8,22.1c-3.7,0-7.4,0.2-11,0.8c-2.9,0.5-5.8,1.2-8.6,2.1c-2.3,0.8-4.6,1.8-6.7,3v17.5
	c3.6-2.3,7.5-4.1,11.6-5.2c3.8-1.1,7.8-1.7,11.7-1.8c1.7,0,3.4,0.2,5,0.5c1.5,0.3,2.9,0.9,4.2,1.8c1.2,0.8,2.2,1.9,3,3.1
	c0.8,1.4,1.1,2.9,1.1,4.5v1.5c-1.6-0.3-3.3-0.4-4.9-0.4c-2.5-0.1-5-0.1-7.4-0.1c-4.3,0-8.5,0.5-12.6,1.6c-3.6,1-7.1,2.6-10.1,4.8
	c-2.8,2.1-5.1,4.8-6.7,7.9c-1.7,3.3-2.5,7-2.4,10.8c-0.1,3.6,0.7,7.2,2.4,10.3c1.4,2.6,3.4,4.8,5.8,6.6c2.3,1.6,4.8,2.8,7.5,3.4
	c6.5,1.7,13.5,1.3,19.8-1.2c3.4-1.4,6.5-3.5,8.9-6.3l0.6,6.5h20V53.4c0-9.5-2.5-17.1-7.6-22.8C55,25,47.3,22.1,36.8,22.1z
	 M47.1,68.6c0,1.8-0.4,3.6-1.2,5.2c-0.7,1.4-1.8,2.7-3,3.7c-1.3,1-2.7,1.8-4.3,2.3c-1.6,0.5-3.3,0.8-4.9,0.8
	c-6.9,0-10.3-2.9-10.3-8.6c-0.1-2.8,1.3-5.4,3.7-7c2.5-1.7,6.6-2.5,12.5-2.5c1.6,0,3.2,0.1,4.7,0.2c1.4,0.1,2.3,0.4,2.8,0.4V68.6z
	 M279.7,33.9c-2.6-3.3-5.9-6-9.6-7.9c-4.1-2-8.7-3-13.3-2.9c-3.8,0-7.6,0.8-11.1,2.3c-3.4,1.4-6.4,3.7-8.7,6.6l-0.6-7.5h-20.5v98.7
	H237v-30c1.8,0.6,3.7,1.2,5.9,1.8c2.7,0.7,5.5,1,8.3,0.9c4.4,0,8.7-0.8,12.8-2.2c4.3-1.5,8.3-3.8,11.7-6.8c3.6-3.3,6.5-7.2,8.4-11.7
	c2.3-5.3,3.4-10.9,3.2-16.7c0-4.5-0.6-8.9-1.9-13.2C284.2,41.2,282.3,37.3,279.7,33.9z M261.5,72.9c-3.1,3.5-7.6,5.5-12.3,5.2
	c-4.2,0.3-8.5-0.7-12.2-2.8h0V56.9c0-2,0.3-3.9,1-5.8c0.6-1.8,1.6-3.5,2.8-5c1.2-1.5,2.8-2.7,4.6-3.5c4.1-1.8,8.9-1.8,13,0.1
	c1.8,0.9,3.3,2.3,4.4,3.9c1.2,1.7,2,3.6,2.5,5.7c0.5,2.2,0.8,4.4,0.8,6.6C266.3,64,264.7,69,261.5,72.9z M354.9,24.5v69.2h21.2V24.5
	H354.9z M179.2,61.9c0,1.9-0.4,3.8-1,5.6c-0.5,1.8-1.4,3.4-2.7,4.9c-1.2,1.4-2.6,2.5-4.3,3.3c-1.8,0.9-3.8,1.3-5.7,1.3
	c-3.2,0.2-6.3-1-8.5-3.4c-2-2.6-3.1-5.9-2.9-9.3V24.5h-21.2v42.9c0.1,9.1,2.4,16.1,6.9,20.9s10.8,7.1,18.8,7.1c4,0,8-0.9,11.6-2.6
	c3.4-1.5,6.5-3.8,8.9-6.6l0.8,7.4h20.3V24.5h-21.1V61.9z M319.9,31.9l-0.6-7.5h-20.5v69.2H320V59.4c0-5.5,1.4-11.2,4.6-14
	c3.2-2.8,7-3.6,10.5-3.6c5,0,9.2,1.8,9.2,1.8v0c0,0,0,0,0,0v-19c-1.7-0.2-3.5-0.3-5.2-0.3C329.7,24.5,321.6,29.6,319.9,31.9z"/>
</svg>
