<?xml version="1.0" encoding="utf-8"?>
<!-- Generator: Adobe Illustrator 24.1.2, SVG Export Plug-In . SVG Version: 6.00 Build 0)  -->
<svg version="1.1" id="birchmeier" xmlns="http://www.w3.org/2000/svg" xmlns:xlink="http://www.w3.org/1999/xlink" x="0px" y="0px"
	 viewBox="0 0 400 96.6" enable-background="new 0 0 400 96.6" xml:space="preserve">
<linearGradient id="SVGID_1_" gradientUnits="userSpaceOnUse" x1="1.3" y1="57.15" x2="79.7043" y2="57.15" gradientTransform="matrix(1 0 0 -1 0 98)">
	<stop  offset="0" style="stop-color:#7E9FD3"/>
	<stop  offset="0.3519" style="stop-color:#4D8AC7"/>
	<stop  offset="0.7884" style="stop-color:#1673B9"/>
	<stop  offset="1" style="stop-color:#006AB4"/>
</linearGradient>
<path fill="url(#SVGID_1_)" d="M41.3,42.3C8.5,47.4,1.5,62.6,1.3,74.5V75c0,1.3,0.2,2.6,0.2,3.8C2.6,67.5,11,54.2,41.3,49.3
	C80,44.6,80.4,12.4,79.5,2.9C79,16,73.1,38.3,41.3,42.3"/>
<linearGradient id="SVGID_2_" gradientUnits="userSpaceOnUse" x1="7.3475" y1="42.3" x2="85.7418" y2="42.3" gradientTransform="matrix(1 0 0 -1 0 98)">
	<stop  offset="0" style="stop-color:#7E9FD3"/>
	<stop  offset="0.3519" style="stop-color:#4D8AC7"/>
	<stop  offset="0.7884" style="stop-color:#1673B9"/>
	<stop  offset="1" style="stop-color:#006AB4"/>
</linearGradient>
<path fill="url(#SVGID_2_)" d="M47.4,57.1C10.3,63,6.1,81.6,7.6,93.7c1-11.4,9.5-24.7,39.8-29.6c38.5-4.7,38.9-36.9,38.2-46.4
	C85,30.8,79.2,53.3,47.4,57.1"/>
<linearGradient id="SVGID_3_" gradientUnits="userSpaceOnUse" x1="25.8194" y1="74.65" x2="50.4812" y2="74.65" gradientTransform="matrix(1 0 0 -1 0 98)">
	<stop  offset="0" style="stop-color:#7E9FD3"/>
	<stop  offset="0.3519" style="stop-color:#4D8AC7"/>
	<stop  offset="0.7884" style="stop-color:#1673B9"/>
	<stop  offset="1" style="stop-color:#006AB4"/>
</linearGradient>
<path fill="url(#SVGID_3_)" d="M31.3,23.5c0-2.6,1.5-4.9,3.7-6c0.4-0.2,0.7-0.4,1.3-0.5c0.7-0.2,1.3-0.4,2-0.4h6.9v6.9
	c0,3.8-3.1,6.9-6.9,6.9l0,0C34.4,30.5,31.3,27.4,31.3,23.5 M38.2,11.1c-1.3,0-2.6,0.2-3.7,0.5c-0.7,0.2-1.5,0.5-2.2,0.9
	c-0.5,0.2-0.9,0.5-1.5,0.9c-3.1,2.2-5.1,5.8-5.1,10c0,6.8,5.5,12.2,12.2,12.2l0,0c6.8,0,12.4-5.5,12.4-12.2V11.1H38.2z"/>
<path id="color_green" fill="#527676" d="M370.7,35.8c-1.8-5.8-6-8.8-12.8-8.8c-9.1,0-15,6.6-15,17.5c0,10.4,5.5,15.9,15.7,15.9
	c2,0,5.3-0.5,11.3-1.8h0.2v-3.8c-4,0.4-6.2,0.5-8.4,0.5c-8,0-11-2.9-11-10.6h20.8C371.5,39.6,371.3,37.8,370.7,35.8z M350.6,40.3
	c0-6,2.4-9.1,6.8-9.1c4.7,0,6.4,2.4,6.4,9.1H350.6z M155.9,29.9v-2.4h-7.3v32.2h7.5V33.4c1.3-0.4,3.3-0.5,4.7-0.5
	c2.6,0,4.9,0.5,6.8,1.5v-6.6c-0.9-0.5-2-0.7-3.5-0.7C162.8,27,159.2,28.3,155.9,29.9z M209.6,33c2.6-0.5,4.4-0.7,6.2-0.7
	c4.9,0,6.6,2,6.6,7.7v19.7h7.5V38.9c0-4.7-0.5-7.1-2.2-9.1c-1.6-1.8-4.6-3.1-7.7-3.1c-2.7,0-4.7,0.5-10.6,2.7V10.9h-7.3v49h7.5V33z
	 M276.1,26.8c-2.4,0-4.7,0.5-11.1,2.7c-0.2,0-0.4,0.2-0.7,0.2c-1.8-2-4.4-2.9-7.5-2.9c-2.7,0-5.1,0.5-11,2.7v-2h-6.9v32.3h7.5V33
	c2-0.4,4.6-0.7,6.4-0.7c4.7,0,6.4,1.6,6.4,6.4v21.2h7.5V37.2c0-1.6,0-2.2-0.5-3.8c2.6-0.5,4.9-0.9,6.8-0.9c4.9,0,6.6,1.8,6.6,7.5
	v20.1h7.5V39C286.9,30.1,283.8,26.8,276.1,26.8z M393.9,27c-1.3,0-4.9,1.3-8.2,2.9v-2.4h-7.3v32.2h7.5V33.4c1.3-0.4,3.3-0.5,4.7-0.5
	c2.6,0,4.9,0.5,6.8,1.5v-6.6C396.5,27.2,395.4,27,393.9,27z M132.3,59.9h7.5V27.5h-7.5V59.9z M119.2,58.2c3.8-2,6.2-6,6.2-10.8
	c0-6.2-3.8-10.4-10.4-11c5.3-0.9,9-5.3,9-10.6c0-3.8-1.5-6.8-4.4-8.6c-2.4-1.5-4.7-2-10.8-2H96v44.6h12.4
	C114.2,59.9,116.6,59.5,119.2,58.2z M104,20h3.8c5.8,0,8.2,2,8.2,6.9s-2.9,7.5-8.2,7.5v0.2H104V20z M103.8,55.1V39h4.9
	c6,0,8.8,2.6,8.8,8s-2.7,8-9.3,8L103.8,55.1L103.8,55.1z M136,22.8c3.3,0,4.7-1.3,4.7-4.2c0-2.7-1.3-4-4.7-3.8c-3.3,0-4.7,1.3-4.7,4
	C131.2,21.5,132.7,22.8,136,22.8z M328.7,59.9h7.5V27.5h-7.5V59.9z M321,35.8c-1.8-5.8-6-8.8-12.8-8.8c-9.1,0-15,6.6-15,17.5
	c0,10.4,5.5,15.9,15.7,15.9c2,0,5.3-0.5,11.3-1.8h0.2v-3.8c-4,0.4-6.2,0.5-8.4,0.5c-8,0-11-2.9-11-10.6h20.8
	C321.9,39.6,321.6,37.8,321,35.8z M300.9,40.3c0-6,2.4-9.1,6.8-9.1c4.7,0,6.4,2.4,6.4,9.1H300.9z M332.4,14.7c-3.3,0-4.7,1.3-4.7,4
	s1.5,4,4.7,4s4.7-1.3,4.7-4.2C337.1,15.8,335.6,14.6,332.4,14.7z M187.3,27c-10.4,0-16.8,6.4-16.8,17.4c0,10.2,5.5,16.1,15,16.1
	c2.6,0,4.6-0.4,10.8-1.8v-4.2c-1.8,0.4-4.7,0.7-6.8,0.7c-7.5,0-11-3.5-11-11.3c0-7.9,3.5-11.7,10.6-11.7c2.7,0,4.7,0.2,7.1,0.7v-4.2
	C192.1,27.4,189.9,27,187.3,27z M196.3,32.8h0.2C196.4,32.8,196.3,32.8,196.3,32.8L196.3,32.8z"/>
</svg>
