<?xml version="1.0" encoding="utf-8"?>
<!-- Generator: Adobe Illustrator 26.2.1, SVG Export Plug-In . SVG Version: 6.00 Build 0)  -->
<svg version="1.1" id="CONCORDIA_Claim" xmlns="http://www.w3.org/2000/svg" xmlns:xlink="http://www.w3.org/1999/xlink" x="0px"
	 y="0px" viewBox="0 0 142.23 33.63" style="enable-background:new 0 0 142.23 33.63;" xml:space="preserve">
<style type="text/css">
	.Grün_x0020_bogenförmig{fill:url(#SVGID_1_);stroke:#FFFFFF;stroke-width:0.25;stroke-miterlimit:1;}
	.st0{fill:#507387;}
	.st1{fill:#FF8A00;}
</style>
<linearGradient id="SVGID_1_" gradientUnits="userSpaceOnUse" x1="-2.5858" y1="294.9478" x2="-1.8787" y2="294.2407">
	<stop  offset="0" style="stop-color:#1BA138"/>
	<stop  offset="0.9831" style="stop-color:#23391D"/>
</linearGradient>
<path class="st0" d="M13.8,21.5c0,5.72,2.52,12.13,8.96,12.13c6.44,0,8.96-6.41,8.96-12.13c0-5.72-2.52-12.13-8.96-12.13
	C16.32,9.37,13.8,15.78,13.8,21.5z M19.99,21.5c0-1.46,0.38-6.22,2.77-6.22c2.4,0,2.77,4.76,2.77,6.22s-0.38,6.22-2.77,6.22
	C20.37,27.72,19.99,22.96,19.99,21.5z"/>
<path class="st0" d="M63.94,21.5c0,5.72,2.52,12.13,8.96,12.13c6.44,0,8.96-6.41,8.96-12.13c0-5.72-2.52-12.13-8.96-12.13
	C66.46,9.37,63.94,15.78,63.94,21.5z M70.13,21.5c0-1.46,0.38-6.22,2.77-6.22c2.4,0,2.77,4.76,2.77,6.22s-0.38,6.22-2.77,6.22
	C70.51,27.72,70.13,22.96,70.13,21.5z"/>
<path class="st0" d="M38.84,26.35v6.88h-6.04V9.77h5.97l4.55,12.61l0,0c0,0-0.13-3.93-0.13-6.63V9.77h5.88v23.46H43.2l-4.44-12.55
	L38.84,26.35z"/>
<path class="st0" d="M99.83,33.23l-5.03-9.77c2.52-1,3.88-3.3,3.88-5.88c0-6.19-4.22-7.81-9.73-7.81h-5.99v23.46h6.21v-6.25
	c0-1.15-0.06-2.3-0.09-3.45l0.06-0.06l3.66,9.76L99.83,33.23z M89.17,20.6v-5.79c1.74-0.09,3.23,0.78,3.23,2.83
	c0,1.53-1.14,2.99-2.82,2.99L89.17,20.6z"/>
<path class="st0" d="M100.14,33.23h5.39c3.86,0,10.67-1,10.67-11.82c0-7.09-2.89-11.67-10.26-11.61c-2.3,0.02-5.79,0.3-5.79,0.3
	L100.14,33.23z M106.35,15.62c2.89,0,3.63,3.55,3.63,6.1c0,2.21-0.74,5.82-3.63,5.85V15.62z"/>
<path class="st0" d="M142.23,33.23l-4.98-23.46h-7.74l-5.63,23.46h6.53l0.53-3.02h4.26l0.47,3.02H142.23z M131.78,25.23l0.87-5.44
	c0.25-1.46,0.4-2.96,0.59-4.42h0.06c0.16,1.46,0.28,2.96,0.47,4.42l0.68,5.44H131.78z"/>
<path class="st0" d="M63.87,9.98c-1.03-0.4-2.27-0.61-3.39-0.61c-3.08,0-10.3,1.77-10.3,12.29c0,8.03,4.42,11.98,9.61,11.98
	c1.4,0,2.94-0.43,4.07-1.18l-0.13-6.06c-0.88,1.08-1.67,1.33-3.1,1.33c-3.17,0-4.22-3.48-4.22-6.22c0-2.58,1.05-6.22,4.35-6.22
	c1.31,0,2.05,0.5,2.96,1.37L63.87,9.98z"/>
<path class="st0" d="M13.68,9.98c-1.03-0.4-2.27-0.61-3.39-0.61C7.22,9.37,0,11.14,0,21.65c0,8.03,4.42,11.98,9.61,11.98
	c1.4,0,2.94-0.43,4.07-1.18l-0.13-6.06c-0.88,1.08-1.67,1.33-3.1,1.33c-3.17,0-4.22-3.48-4.22-6.22c0-2.58,1.05-6.22,4.35-6.22
	c1.31,0,2.05,0.5,2.95,1.37L13.68,9.98z"/>
<path class="st0" d="M120.48,10.75c-1.16,0-2.24-0.37-3.11-1v23.48h6.25V9.77h-0.05C122.69,10.39,121.63,10.75,120.48,10.75z"/>
<path class="st1" d="M124.72,4.23c0,2.33-1.9,4.23-4.23,4.23c-2.34,0-4.23-1.89-4.23-4.23c0-2.34,1.89-4.23,4.23-4.23
	C122.82,0,124.72,1.89,124.72,4.23z"/>
</svg>
