<?xml version="1.0" encoding="utf-8"?>
<!-- Generator: Adobe Illustrator 24.1.2, SVG Export Plug-In . SVG Version: 6.00 Build 0)  -->
<svg version="1.1" id="egk" xmlns="http://www.w3.org/2000/svg" xmlns:xlink="http://www.w3.org/1999/xlink" x="0px" y="0px"
	 viewBox="0 0 400 229" enable-background="new 0 0 400 229" xml:space="preserve">
<path id="color_seledin" fill="#97BE0D" d="M115.9,32.9C100.6,15.3,33.9,3,33.9,3s1.7,37.3,8.8,63.7c6.6-2.7,13.7-3.9,20.8-3.6
	c17.3,2.7,29,18.9,26.3,36.2l0,0c-0.2,1.1-0.4,2.1-0.7,3.2c23.1-2.8,39.6-23.9,36.7-47C124.9,47,121.4,39.2,115.9,32.9L115.9,32.9z"
	/>
<path id="color_sea_blue" fill="#00A4A7" d="M52.3,88.2c-4.6-6.4-7.9-13.8-9.5-21.6C28.7,71.8,15.1,78.1,2,85.3
	c11.2,12.1,23.5,23.2,36.7,33c2.1-3.7,4.9-6.9,8.2-9.4c9.9-6,22.8-2.9,28.9,7.1c0.7,1.1,1.3,2.3,1.7,3.6c5.7-4.3,9.8-10.3,11.6-17.2
	C75.3,104.1,61.4,98.8,52.3,88.2z"/>
<path id="color_green" fill="#009534" d="M63.6,63.1c-7.1-0.3-14.2,0.9-20.8,3.6c1.6,7.8,4.9,15.1,9.5,21.6
	c9.2,10.6,23,15.9,36.9,14.2c4.5-16.9-5.6-34.2-22.5-38.7C65.7,63.4,64.6,63.2,63.6,63.1L63.6,63.1z"/>
<path id="color_grey_green" fill="#7C8F7F" d="M53.7,125.6c-5.4-1.3-10.5-3.8-14.9-7.2c-5.3,9-9.9,18.5-13.6,28.3
	c0,0,33.6,4.4,43.6-1.6c8.7-5.2,12.5-16,8.9-25.5C70.7,124.8,62.1,126.9,53.7,125.6z"/>
<path id="color_green_dark" fill="#006657" d="M47,109c-3.4,2.5-6.2,5.7-8.2,9.4c4.4,3.4,9.5,5.8,14.9,7.2
	c8.4,1.3,17.1-0.8,23.9-5.9c-4-10.9-16.1-16.4-27-12.4C49.3,107.7,48.1,108.3,47,109L47,109z"/>
<path id="color_grey" fill="#66757E" d="M177.4,202.4H122v-21.5h48.1v-20H122v-20.8h54.7v-20h-77v102.3h77.7V202.4z M353.5,163.5
	l41.6-43.4H368l-41.4,44.7v-44.7h-22.5v102.3h22.5v-31.3l11.8-12.3l31.6,43.5h27L353.5,163.5z M242,183h22.6v14.6
	c-6.2,4.2-13.6,6.4-21.1,6.1c-18.1,0-30.9-13.7-30.9-32.4V171c0-17.4,13-31.9,29.3-31.9c9.9-0.2,19.5,3.5,26.7,10.4l14.1-17.1
	c-10.6-9.1-21.7-14-40.1-14H241c-29,0.3-52.2,23.9-52,52.9v0.3c0,30.2,21.9,52.6,53.7,52.6c16,0,31.5-5.7,43.6-16.2v-44.4H242V183z"
	/>
</svg>
