<?xml version="1.0" encoding="utf-8"?>
<!-- Generator: Adobe Illustrator 21.0.0, SVG Export Plug-In . SVG Version: 6.00 Build 0)  -->
<svg xmlns="http://www.w3.org/2000/svg" xmlns:xlink="http://www.w3.org/1999/xlink" version="1.1" id="Ebene_1" x="0px" y="0px" viewBox="0 0 239 63" style="enable-background:new 0 0 239 63;" xml:space="preserve">
<style type="text/css">
	.st0{fill:#FEFEFE;}
	.st1{fill:#BD1336;}
</style>
<path id="font" class="st0" d="M53.4,34.2c-2.8,0.1-3.4,0.1-5.6,0.1l-0.2,0.2c-0.3,2.3-0.4,2.8-0.9,5.1l-0.4,1.9  c-0.7,0.2-1.3,0.3-2.1,0.3c-1.4,0-2.8-0.4-3.8-1.4c-1.2-1.3-1.3-2.8-1.3-3.8c0-2.9,1.6-10.1,8.5-10.1c1.8,0,3.1,0.6,3.7,0.9  c0.8,0.4,1.1,0.8,1.6,1.4l0.4-0.1l1.3-4.3L54.4,24c-1.6-0.8-3.6-1.9-7.4-1.9c-11.5,0-13.9,10.2-13.9,14.4c0,3.1,1,6.2,3.8,8.1  c1.3,0.9,3.3,1.8,6.8,1.8c2.4,0,5.1-0.4,7.2-1.4l0.2-0.3c0.4-1.6,0.7-3.2,1.1-4.8c0.4-1.8,0.9-3.7,1.3-5.5L53.4,34.2z M72.3,22.5  l-7.1,0.1l-0.3,0.2c-1.6,3.2-2.5,4.9-4.1,7.9L56.8,38c-2.3,4.4-2.7,5.1-4.1,7.6l0.1,0.4c2.4-0.1,3.1-0.1,5.3-0.1l0.2-0.2l1.8-3.7  l1.1-2.3H68l0.1,2.4l0.1,3.7l0.2,0.2l5.6-0.1l0.2-0.2c-0.9-10.2-1.1-13.2-1.8-23L72.3,22.5z M63,35.7l4.6-9.4l0.1,5.5l0.2,3.9H63z   M82.3,45.9h8.2l0.2-0.2l1.2-4l-0.2-0.2c-4.2,0.2-5.3,0.2-8.6,0.2l1.4-6.3l1.3-5.4l1.8-7.2l-0.2-0.2l-5.9,0.1l-0.2,0.2l-1.6,7.8  L77.9,39l-1.6,6.8l0.2,0.2L82.3,45.9z M106.2,32h-3.7l1.2-5.3h8.3l0.2-0.2l1.1-3.8l-0.2-0.2l-5.6,0.1h-8.6l-0.2,0.2  c-0.9,4.6-1.1,5.6-2.3,11l-1.3,5.3l-1.6,6.6l0.2,0.2l6.2-0.1h8.5l0.2-0.2l1.2-4l-0.2-0.2l-5.4,0.1h-4l0.9-3.7l0.5-2.1h7.8l0.3-0.2  l1.1-3.6l-0.2-0.3L106.2,32z M132.1,22.6l-0.2,0.2l-1.2,6l-1.9,8.7c-0.8-1.9-1-2.2-2.5-5.7l-2.1-5l-1.7-4l-0.2-0.2l-5,0.1l-0.2,0.2  c-0.6,3.4-0.9,4.6-1.9,9.4l-1.3,6l-1.8,7.6L112,46l4.6-0.1l0.2-0.2l1-5.3l2.1-10.5l5.3,12.2l1.6,3.8L127,46l4.2-0.1l0.2-0.2l2.1-9.5  l1-4.5l2.1-9l-0.2-0.2L132.1,22.6z M139.7,44.4c1.8,1.6,4.4,2,6.8,2c3.7,0,5.7-1.2,6.5-1.6c2.2-1.3,4.5-3.9,5.8-8.6  c0.4-1.6,0.7-3.2,0.7-4.8c0-7.4-5.2-9.3-9.6-9.3c-3.3,0-8.1,0.9-10.8,6.4c-1.3,2.6-2.1,5.9-2.1,8.7C136.8,40.9,138,43,139.7,44.4z   M149.5,26.2c0.3,0,2.1,0,3.2,1.6c0.5,0.8,0.8,1.9,0.8,3.1c0,0.9-0.1,1.9-0.3,2.8c-0.6,3.4-2.2,8.5-6.5,8.5c-1,0-2.2-0.3-3-1.5  c-0.5-0.7-0.9-1.6-0.9-3.3C142.8,35.3,144,26.2,149.5,26.2z M161.8,45.6c1.6,0.5,3.2,0.8,4.9,0.8c6.8,0,9.7-4,9.7-7.9  c0-3.5-2.7-5-4.4-6l-0.8-0.4c-2-1.1-3.1-1.8-3.1-3.2c0-1.5,1.3-2.7,3.5-2.7c1.4,0,2.7,0.4,3.8,1.2c0.5,0.4,0.7,0.5,1.1,1l0.3-0.1  l1.2-4.1l-0.1-0.2c-0.9-0.5-3.2-1.8-6.8-1.8c-2.7,0-5.5,0.7-7.2,2.8c-1.3,1.6-1.7,3.4-1.7,4.7c0,3.4,2.4,4.8,4.1,5.8l1.1,0.6  c1.6,0.8,3,1.6,3,3.3c0,1.8-1.8,3-4.2,3c-0.7,0-2.2-0.1-3.8-1.1c-0.8-0.5-1.1-0.8-1.5-1.3l-0.3,0.1l-1.1,4.2l0.1,0.3  C160.2,44.9,160.7,45.2,161.8,45.6z M121.4,55.6L121.4,55.6c-0.2,0.7-0.2,0.9-0.5,2l-0.3,1.6c-0.2,0.2-0.6,0.5-1.2,0.5  c-0.2,0-0.8-0.1-0.8-0.8c0-0.3,0.2-1,0.2-1.2c0-0.2,0.4-1.8,0.5-2.1l0-0.1l-0.9,0l-0.1,0.1c-0.1,0.5-0.1,0.6-0.3,1.2l-0.2,0.9  c-0.1,0.7-0.2,1-0.2,1.4c0,1,0.8,1.3,1.3,1.3c0.5,0,1.1-0.2,1.5-0.6l-0.1,0.5l0,0.1l0.9,0l0.1-0.1l0.3-1.4l0.2-1l0.5-2.3l0-0.1  L121.4,55.6z M93.7,55.5c-0.8,0-1.2,0.3-1.6,0.6l0.1-0.5l0-0.1c-0.4,0.1-0.5,0.1-1,0.2l-0.1,0.1C91,56.7,91,57,90.7,58l-0.1,0.7  l-0.4,1.6l0,0.1l0.9,0l0.1-0.1c0.3-1.5,0.4-2,0.7-3.6c0.3-0.2,0.6-0.5,1.2-0.5c0.4,0,0.8,0.2,0.8,0.7c0,0.2,0,0.4-0.1,0.7l-0.2,1  l-0.4,1.6l0,0.1l0.9,0l0.1-0.1l0.2-1.2l0.1-0.6c0.1-0.5,0.3-1.3,0.3-1.8C95,55.5,94,55.5,93.7,55.5z M126.3,55.5  c-0.8,0-1.2,0.3-1.6,0.6l0.1-0.5l0-0.1c-0.4,0.1-0.5,0.1-1,0.2l-0.1,0.1c-0.1,1-0.2,1.2-0.4,2.3l-0.1,0.7l-0.4,1.6l0,0.1l0.9,0  l0.1-0.1c0.3-1.5,0.4-2,0.7-3.6c0.3-0.2,0.6-0.5,1.2-0.5c0.4,0,0.8,0.2,0.8,0.7c0,0.2,0,0.4-0.1,0.7l-0.2,1l-0.4,1.6l0,0.1l0.9,0  l0.1-0.1l0.2-1.2l0.1-0.6c0.1-0.5,0.3-1.3,0.3-1.8C127.6,55.5,126.6,55.5,126.3,55.5z M112.8,57.4c-0.4,0-0.8,0-1.2,0l-0.1,0.1  l-0.2,0.7l0,0.1c0.4,0,0.7,0,1.1,0c0.4,0,0.9,0,1.3,0l0.1-0.1l0.2-0.7l0-0.1C113.4,57.3,113.2,57.4,112.8,57.4z M99.3,55.6l-0.1,0.1  c-0.1,0.2-0.9,1-1.2,1.3c-0.3,0.3-0.4,0.4-0.6,0.6l0.8-3.3l0.3-1.1l-0.1-0.1l-1,0.2l-0.1,0.1c-0.1,0.5-0.1,0.8-0.3,1.6  c-0.1,0.6-0.3,1.2-0.4,1.8L96.3,58l-0.6,2.4l0,0.1l0.9,0l0.1-0.1c0.2-1.2,0.3-1.5,0.5-2.7l0.6,1.3c0.3,0.7,0.4,0.8,0.6,1.4l0.1,0.1  l1,0l0.1-0.1l-1.4-2.7l1.2-1.1c0.2-0.2,0.3-0.2,0.4-0.4c0.4-0.3,0.4-0.3,0.5-0.4l0-0.1H99.3z M81.5,53.9L81.5,53.9l-1.1,0l-0.1,0  c-0.4,0.4-1,1-1.1,1.2l-1.8,1.8l0.7-2.9l0-0.1l-1,0L77,53.9c-0.2,1.2-0.3,1.5-0.6,3l-0.2,1l-0.6,2.4l0,0.1l1,0l0.1-0.1l0.3-1.6  l0.4-1.7l1.2,2.1c0,0.1,0.3,0.5,0.3,0.6c0.2,0.5,0.3,0.5,0.4,0.7l0.1,0l1.1,0l0-0.1l-1-1.6l-1-1.8l2.2-2.1  C80.7,54.6,81.3,54.1,81.5,53.9z M103.3,55.5c-1.8,0-2.6,1.7-2.6,3c0,0.9,0.4,1.8,1.5,2c0.2,0,0.4,0.1,0.6,0.1c0.6,0,1-0.1,1.5-0.4  l0-0.1l0.2-0.8l-0.1,0c-0.4,0.3-0.8,0.6-1.5,0.6c-0.9,0-1.4-0.4-1.4-1.2c0-0.1,0-0.3,0-0.4c0.5,0,0.7,0,1.1,0c0.3,0,1.8,0,2.1,0  l0.1,0c0.1-0.3,0.1-0.5,0.1-0.8c0-0.6-0.1-1-0.5-1.3C104.3,55.6,103.8,55.5,103.3,55.5z M104.2,57.4h-2.4c0.1-0.2,0.2-0.5,0.4-0.8  c0.3-0.4,0.7-0.5,1.1-0.5c0.7,0,1,0.4,1,0.9C104.3,57.1,104.3,57.3,104.2,57.4z M84.3,55.5c-0.3,0-0.6,0.2-1,0.6  c-0.1,0.1-0.2,0.2-0.2,0.4l0.2-0.8l0-0.1c-0.4,0.1-0.5,0.1-1,0.2l-0.1,0.1c-0.1,1-0.2,1.2-0.5,2.4L81.6,59l-0.3,1.3l0,0.1l1,0  l0.1-0.1l0.2-0.9l0.2-0.9c0.2-0.9,0.3-1.4,0.6-1.8c0.2-0.2,0.4-0.3,0.6-0.3c0.2,0,0.3,0.1,0.4,0.1l0.1,0l0.4-0.9l0-0.1  C84.6,55.5,84.5,55.5,84.3,55.5z M109.1,55.5c-0.8,0-1.2,0.3-1.6,0.6l0.1-0.5l0-0.1c-0.4,0.1-0.5,0.1-1,0.2l-0.1,0.1  c-0.1,1-0.2,1.2-0.4,2.3l-0.1,0.7l-0.4,1.6l0,0.1l0.9,0l0.1-0.1c0.3-1.5,0.4-2,0.7-3.6c0.3-0.2,0.6-0.5,1.2-0.5  c0.4,0,0.8,0.2,0.8,0.7c0,0.2,0,0.4-0.1,0.7l-0.2,1l-0.4,1.6l0,0.1l0.9,0l0.1-0.1l0.2-1.2l0.1-0.6c0.1-0.5,0.3-1.3,0.3-1.8  C110.4,55.5,109.4,55.5,109.1,55.5z M88.4,55.6c-0.8,0-2,0.1-2.9,1.1c-0.4,0.5-0.7,1.2-0.7,2c0,1.1,0.8,1.8,1.7,1.8  c0.8,0,1.2-0.3,1.3-0.5l-0.1,0.4l0,0.1l0.9,0l0.1-0.1c0.2-1.1,0.2-1.4,0.6-2.9l0.4-1.8l0-0.1L88.4,55.6z M88,59.2  c-0.1,0.1-0.2,0.2-0.3,0.2c-0.2,0.1-0.6,0.2-0.8,0.2c-0.8,0-1.1-0.7-1.1-1.1c0,0,0-1.2,1-1.9c0.5-0.4,1.1-0.4,1.4-0.4  c0.1,0,0.3,0,0.4,0L88,59.2z M166,55.6L166,55.6c-0.3,0.6-0.5,0.8-0.9,1.6l-1.2,2.5l-0.1-1.4l-0.1-1.1l-0.1-1.4l-0.1-0.1  c-0.4,0-0.5,0-0.9,0l-0.1,0.1l0.2,1.8l0.1,1.1l0.2,1.8l0.1,0.1l1.1,0l0.1-0.1c0,0,0.4-0.8,0.5-0.9c0.1-0.2,0.3-0.6,0.4-0.8l0.8-1.4  c0.1-0.2,0.8-1.3,0.9-1.6l0-0.1L166,55.6z M194.6,55.5c-1.8,0-2.6,1.7-2.6,3c0,0.9,0.4,1.8,1.5,2c0.2,0,0.4,0.1,0.6,0.1  c0.6,0,1-0.1,1.5-0.4l0-0.1l0.2-0.8l-0.1,0c-0.4,0.3-0.8,0.6-1.5,0.6c-0.9,0-1.4-0.4-1.4-1.2c0-0.1,0-0.3,0-0.4c0.5,0,0.7,0,1.1,0  c0.3,0,1.8,0,2.1,0l0.1,0c0.1-0.3,0.1-0.5,0.1-0.8c0-0.6-0.1-1-0.5-1.3C195.6,55.6,195.1,55.5,194.6,55.5z M195.5,57.4h-2.4  c0.1-0.2,0.2-0.5,0.4-0.8c0.3-0.4,0.7-0.5,1.1-0.5c0.7,0,1,0.4,1,0.9C195.6,57.1,195.6,57.3,195.5,57.4z M184.8,55.5  c-1.9,0-2.7,1.7-2.7,2.9c0,1.3,0.9,2.1,2,2.1c0.2,0,0.7,0,1.1-0.3l0.1-0.1l0.2-0.8l-0.1,0c-0.2,0.2-0.6,0.4-1.1,0.4  c-0.6,0-1.3-0.4-1.3-1.4c0-0.9,0.6-2.1,1.8-2.1c0.3,0,0.7,0.1,0.9,0.3c0.1,0.1,0.1,0.1,0.2,0.2l0.1,0l0.2-0.7l0-0.1  C186,55.7,185.6,55.5,184.8,55.5z M189.8,55.5c-0.7,0-1.2,0.3-1.6,0.5c0.3-1.4,0.4-1.8,0.7-2.9l0-0.1l-1,0.2l-0.1,0.1  c-0.1,0.4-0.1,0.7-0.2,1.4c0,0.3-0.3,1.3-0.5,2.4l-0.8,3.3l0.1,0.1l0.9,0l0.1-0.1l0.4-1.9l0.4-1.6c0.3-0.2,0.5-0.4,0.9-0.5  c0.1,0,0.2,0,0.3,0c0.4,0,0.7,0.2,0.7,0.7c0,0.1,0,0.3,0,0.4c-0.1,0.4-0.2,0.8-0.3,1.2l-0.2,0.9l-0.2,0.9l0,0.1l0.9,0l0.1-0.1  l0.3-1.4l0.2-1.1c0.1-0.5,0.2-0.8,0.2-1.1C191.1,55.6,190.2,55.5,189.8,55.5z M180.4,55.7L180.4,55.7c-0.2,0.7-0.2,0.9-0.4,1.6  l-0.1,0.6c-0.2,1.1-0.3,1.4-0.6,2.4l0,0.1l1,0l0.1,0l0.3-1.4l0.2-0.9c0.3-1.2,0.3-1.5,0.6-2.4l0-0.1L180.4,55.7z M181,53.4L181,53.4  l-0.3,0.9l0.1,0.1l1-0.1l0.1-0.1l0.2-0.8l-0.1-0.1L181,53.4z M209.4,55.5c-0.8,0-1.2,0.3-1.6,0.6l0.1-0.5l0-0.1  c-0.4,0.1-0.5,0.1-1,0.2l-0.1,0.1c-0.1,1-0.2,1.2-0.4,2.3l-0.1,0.7l-0.4,1.6l0,0.1l0.9,0l0.1-0.1c0.3-1.5,0.4-2,0.7-3.6  c0.3-0.2,0.7-0.5,1.2-0.5c0.4,0,0.8,0.2,0.8,0.7c0,0.2,0,0.4-0.1,0.7l-0.2,1l-0.4,1.6l0,0.1l0.9,0l0.1-0.1l0.2-1.2l0.1-0.6  c0.1-0.5,0.3-1.3,0.3-1.8C210.7,55.5,209.7,55.5,209.4,55.5z M216.5,55.6l-1.3,0c-1.1,0-2.4,0-3.2,1.5c-0.2,0.4-0.4,1-0.4,1.6  c0,1.2,0.8,1.8,1.7,1.8c0.6,0,1-0.2,1.3-0.4l-0.1,0.5c-0.1,0.5-0.4,1.5-1.5,1.5c-0.9,0-1.2-0.4-1.4-0.7h-0.1l-0.4,0.6l0,0.1  c0.2,0.2,0.3,0.3,0.5,0.4c0.4,0.2,0.9,0.3,1.4,0.3c0.7,0,1.4-0.2,1.8-0.7c0.4-0.5,0.6-1.1,0.8-2.1l0.3-1.2  C216.2,57.2,216.3,56.8,216.5,55.6L216.5,55.6z M214.8,59.3c-0.2,0.2-0.3,0.3-0.7,0.4c-0.1,0-0.3,0.1-0.4,0.1c-0.2,0-1-0.1-1-1.2  c0-0.6,0.3-1.2,0.5-1.5c0.6-0.7,1.4-0.7,2-0.7l0.2,0L214.8,59.3z M204.5,55.6L204.5,55.6c-0.2,0.7-0.2,0.9-0.5,2l-0.3,1.6  c-0.2,0.2-0.6,0.5-1.2,0.5c-0.2,0-0.8-0.1-0.8-0.8c0-0.3,0.2-1,0.2-1.2c0-0.2,0.4-1.8,0.5-2.1l0-0.1l-0.9,0l-0.1,0.1  c-0.1,0.5-0.1,0.6-0.3,1.2l-0.2,0.9c-0.1,0.7-0.2,1-0.2,1.4c0,1,0.8,1.3,1.3,1.3c0.5,0,1.1-0.2,1.5-0.6l-0.1,0.5l0,0.1l0.9,0  l0.1-0.1l0.3-1.4l0.2-1l0.5-2.3l0-0.1L204.5,55.6z M200,55.5c-0.3,0-0.6,0.2-1,0.6c-0.1,0.1-0.2,0.2-0.2,0.4l0.2-0.8l0-0.1  c-0.4,0.1-0.5,0.1-1,0.2l-0.1,0.1c-0.1,1-0.2,1.2-0.5,2.4l-0.2,0.9l-0.3,1.3l0,0.1l1,0l0.1-0.1l0.2-0.9l0.2-0.9  c0.2-0.9,0.3-1.4,0.6-1.8c0.2-0.2,0.4-0.3,0.6-0.3c0.2,0,0.3,0.1,0.4,0.1l0.1,0l0.4-0.9l0-0.1C200.3,55.5,200.2,55.5,200,55.5z   M169.5,55.5c-1.8,0-2.6,1.7-2.6,3c0,0.9,0.4,1.8,1.5,2c0.2,0,0.4,0.1,0.6,0.1c0.6,0,1-0.1,1.5-0.4l0-0.1l0.2-0.8l-0.1,0  c-0.4,0.3-0.8,0.6-1.5,0.6c-0.9,0-1.4-0.4-1.4-1.2c0-0.1,0-0.3,0-0.4c0.5,0,0.7,0,1.1,0c0.3,0,1.8,0,2.1,0l0.1,0  c0.1-0.3,0.1-0.5,0.1-0.8c0-0.6-0.1-1-0.5-1.3C170.4,55.6,169.9,55.5,169.5,55.5z M170.4,57.4H168c0.1-0.2,0.2-0.5,0.4-0.8  c0.3-0.4,0.7-0.5,1.1-0.5c0.7,0,1,0.4,1,0.9C170.4,57.1,170.4,57.3,170.4,57.4z M151.7,55.6c-0.3,0-0.4,0-0.9,0l0.1-0.5  c0.1-0.6,0.2-0.9,0.3-1c0.1-0.1,0.3-0.2,0.5-0.2c0.2,0,0.3,0,0.4,0.1l0.1-0.1c0.1-0.3,0.1-0.3,0.2-0.6l0-0.1c-0.1,0-0.3-0.1-0.7-0.1  c-0.2,0-0.7,0-1.1,0.3c-0.4,0.3-0.4,0.8-0.6,1.5l-0.1,0.6c-0.3,0-0.4,0-0.7,0l-0.1,0.1c-0.1,0.3-0.1,0.3-0.2,0.6l0.1,0.1  c0.1,0,0.6,0,0.7,0l-0.5,2.3c-0.1,0.5-0.3,1.3-0.4,1.8l0,0.1c0.4,0,0.5,0,0.9,0l0.1-0.1c0.1-0.3,0.1-0.9,0.4-2  c0.1-0.3,0.4-1.8,0.4-2c0.4,0,0.5,0,0.8,0l0.1-0.1C151.7,56,151.7,55.9,151.7,55.6L151.7,55.6z M155.4,55.6c-0.8,0-2,0.1-2.9,1.1  c-0.4,0.5-0.7,1.2-0.7,2c0,1.1,0.8,1.8,1.7,1.8c0.8,0,1.2-0.3,1.3-0.5l-0.1,0.4l0,0.1l0.9,0l0.1-0.1c0.2-1.1,0.2-1.4,0.6-2.9  l0.4-1.8l0-0.1L155.4,55.6z M154.9,59.2c-0.1,0.1-0.2,0.2-0.3,0.2c-0.2,0.1-0.6,0.2-0.8,0.2c-0.8,0-1.1-0.7-1.1-1.1c0,0,0-1.2,1-1.9  c0.5-0.4,1.1-0.4,1.4-0.4c0.1,0,0.3,0,0.4,0L154.9,59.2z M146.7,55.5c-0.8,0-1.2,0.3-1.6,0.6l0.1-0.5l0-0.1c-0.4,0.1-0.5,0.1-1,0.2  l-0.1,0.1c-0.1,1-0.2,1.2-0.4,2.3l-0.1,0.7l-0.4,1.6l0,0.1l0.9,0l0.1-0.1c0.3-1.5,0.4-2,0.7-3.6c0.3-0.2,0.6-0.5,1.2-0.5  c0.4,0,0.8,0.2,0.8,0.7c0,0.2,0,0.4-0.1,0.7l-0.2,1l-0.4,1.6l0,0.1l0.9,0l0.1-0.1l0.2-1.2l0.1-0.6c0.1-0.5,0.3-1.3,0.3-1.8  C148,55.5,147,55.5,146.7,55.5z M142.2,53.9L142.2,53.9l-0.4,1.5l-0.3,1.4c-0.3,1.4-0.5,2-0.9,2.5c-0.3,0.3-0.7,0.5-1.2,0.5  c-0.7,0-1-0.3-1.1-0.6c-0.1-0.2-0.1-0.4-0.1-0.5c0-0.4,0.1-0.9,0.3-1.6l0.4-1.5l0.4-1.6l0-0.1l-1,0l-0.1,0.1l-0.3,1.3l-0.4,1.8  c-0.2,0.7-0.3,1.3-0.3,1.7c0,0.7,0.3,1.1,0.5,1.2c0.2,0.2,0.6,0.5,1.7,0.5c0.9,0,1.6-0.3,2.1-0.8c0.4-0.5,0.5-1.1,0.9-2.7l0.3-1.5  l0.4-1.5l0-0.1L142.2,53.9z M159.7,53l-1,0.2l-0.1,0.1c-0.1,0.9-0.3,2-0.6,3l-0.5,2.1l-0.4,1.9l0,0.1l0.9,0l0.1-0.1  c0.2-1.2,0.3-1.5,0.6-3.1l0.4-1.7L159.7,53L159.7,53z M175.3,55.6c-0.2-0.1-0.3-0.1-0.4-0.1c-0.3,0-0.6,0.2-1,0.6  c-0.1,0.1-0.2,0.2-0.2,0.4l0.2-0.8l0-0.1c-0.4,0.1-0.5,0.1-1,0.2l-0.1,0.1c-0.1,1-0.2,1.2-0.5,2.4l-0.2,0.9l-0.3,1.3l0,0.1l1,0  l0.1-0.1l0.2-0.9l0.2-0.9c0.2-0.9,0.3-1.4,0.6-1.8c0.2-0.2,0.4-0.3,0.6-0.3c0.2,0,0.3,0.1,0.4,0.1l0.1,0L175.3,55.6L175.3,55.6z   M133,53.2L133,53.2c-0.1,0.5-0.2,0.7-0.3,1.3l-0.2,1c-0.3,0-0.4,0-0.6,0c-0.8,0-1.7,0.2-2.3,0.7c-0.8,0.7-1,1.7-1,2.3  c0,1.1,0.7,1.8,1.7,1.8c0.7,0,1.1-0.3,1.3-0.5l-0.1,0.4l0,0.1l0.9,0l0.1-0.1c0.1-0.4,0.1-0.6,0.2-1.2c0.2-0.8,0.3-1.5,0.5-2.2l0.5-2  l0.4-1.8l0-0.1L133,53.2z M131.7,59.2c-0.3,0.2-0.5,0.4-1.1,0.4c-0.7,0-1.1-0.5-1.1-1.2c0-0.5,0.3-2.2,2.3-2.2c0.2,0,0.3,0,0.5,0  L131.7,59.2z M177.6,55.5c-1.7,0-1.9,1.1-1.9,1.5c0,0.7,0.6,1,1,1.2l0.2,0.1c0.5,0.2,0.8,0.4,0.8,0.7s-0.4,0.8-1,0.8  c-0.7,0-1-0.3-1.3-0.6l-0.1,0l-0.2,0.7l0,0.1c0.3,0.2,0.8,0.5,1.7,0.5c1.4,0,2-0.8,2-1.6c0-0.7-0.5-1-0.8-1.1l-0.5-0.2  c-0.3-0.1-0.7-0.3-0.7-0.7c0-0.4,0.4-0.7,1-0.7c0.5,0,0.9,0.2,1.2,0.5l0.1,0l0.2-0.7l0-0.1C178.8,55.7,178.4,55.5,177.6,55.5z   M161.1,53.2L161.1,53.2c-0.2,1-0.4,2.1-0.6,3.1l-0.5,2.1l-0.4,1.9l0,0.1l0.9,0l0.1-0.1c0.2-1.2,0.3-1.5,0.6-3.1l0.4-1.7l0.5-2.4  l0-0.1L161.1,53.2z"/>
<path id="tail" class="st1" d="M0,25.9c0,0,67.7-32.3,157.8-23.6c69.9,6.7,80.5,20.4,80.5,20.4l-56.4,0c0,0,26-4.1,13.2-7.2  C91.1-9.1,0,25.9,0,25.9z"/>
</svg>
