<svg xmlns="http://www.w3.org/2000/svg" viewBox="0 0 1200 200"><defs><style>.cls-1{fill:#01313d;}.cls-2{fill:none;stroke:#f9b10f;stroke-linecap:round;stroke-miterlimit:10;stroke-width:13px;}.cls-3{fill:#f9b10c;}</style></defs><g id="groupe"><path class="cls-1" d="M127,36V58c-4-9-16-24-35-24C67,34,52,54,52,77c0,26,19,44,39,44,16,0,28.16-7.37,36-22v15c0,17-33,41-67,14.05V137c35,24,75,3,75-23V36ZM93.5,113C75,113,60,97.11,60,77.5S75,42,93.5,42,127,57.89,127,77.5,112,113,93.5,113Z"/><path class="cls-1" d="M153,36h8V55.89c4.93-15.63,15.31-23,34-17.89V48c-15-10-31,0-34,18v53h-8V36"/><path class="cls-1" d="M237.5,34C214,34,195,53.48,195,77.5S214,121,237.5,121,280,101.52,280,77.5,261,34,237.5,34Zm0,78.81C218.45,112.81,203,97,203,77.5s15.45-35.31,34.5-35.31S272,58,272,77.5,256.55,112.81,237.5,112.81Z"/><path class="cls-1" d="M357,36h8v82.72h-8V98c-15,38-64,25-64-8V36h7.83L301,86c0,14.49,11,27,27,27s29-13.91,29-32Z"/><path class="cls-1" d="M427,34c-20,0-30.25,10.94-37,25.28V36h-8V148l8-2V97c7.8,16.07,21,24.19,35.68,24.19C449,121.19,466,100,466,77,466,51,447,34,427,34Zm-3.5,79C405,113,390,97.11,390,77.5S405,42,423.5,42,457,57.89,457,77.5,442,113,423.5,113Z"/><path class="cls-1" d="M485,76h69c0-28.43-12-41.61-36.4-41.3C493,35,477,49.57,477,76c0,31,19,44,43,44,15,0,23.58-3.09,31-9v-8c-9,6.78-17,10-31,10C497,113,485,95,485,76Zm32-34c17,0,29,10,29,28H486C486,54,501,42,517,42Z"/></g><g id="Strich"><path class="cls-2" d="M566,180c173-28,472-32,583-16"/></g><g id="mutuel"><path class="cls-3" d="M569,36h23V53c10-26,46-28,55,0,8.75-22.5,33-24,45-16,8.17,5.45,13,14,13,23v58H682l0-49c0-8-8-16.24-16-16-8.45.25-17,8-17,16v49H625V69c0-12.52-10.79-18.22-20-15-7,2.44-13,11.24-13,19v45H569Z"/><path class="cls-3" d="M722,36h24l0,48c0,11,8,19,20,19,9,0,21-10,21-19V36h22.94l.06,83H787.15L787,102c-6,12-16,20-32,20-20,0-33-14-33-32.15Z"/><path class="cls-3" d="M827,21l23-5V36.17h25L875,54H850V85c0,5,3,21,28,17l4,13c-25,15-55,4-55-24Z"/><path class="cls-3" d="M890,36h24V87c0,4,3,15,20,15,14,0,21-10,21-19V36h23.87v83.06H955L955,102c-6,12.71-16,20-32,20-25,0-33-22-33-28.72Z"/><path class="cls-3" d="M1080,67c0-18-16-35-43-34-28,0-46,18-46,43,0,29,20,45,51,45,15,0,25.45-2.74,35-10V92c-6.78,5.66-19,10-30,10-23,0-33-15-33-21h66Zm-65,2c0-9,10-17,23-17s22,6,22.06,17Z"/><path class="cls-3" d="M1093,21l24-5s1,103,0,103h-24Z"/></g></svg>