<?xml version="1.0" encoding="utf-8"?>
<!-- Generator: Adobe Illustrator 19.0.0, SVG Export Plug-In . SVG Version: 6.00 Build 0)  -->
<svg version="1.1" id="ffa3f960-9760-4e86-a9a6-15bcc2a8c2e2"
	 xmlns="http://www.w3.org/2000/svg" xmlns:xlink="http://www.w3.org/1999/xlink" x="0px" y="0px" viewBox="594.3 381.6 200 30.8"
	 style="enable-background:new 594.3 381.6 200 30.8;" xml:space="preserve">
<style type="text/css">
	.st0{fill:#003D4C;}
	.st1{fill:#F2A900;}
</style>
<g>
	<path class="st0" d="M614.1,389v-3.7h-1.6v14.9h1.6v-8.5c0-3,1.7-5,4.1-5c0.9,0,1.6,0.2,2.1,0.6v-1.6c-0.6-0.4-1.2-0.5-1.9-0.5
		C616.3,385.2,614.8,386.6,614.1,389z"/>
	<path class="st0" d="M628,384.9c-4.6,0-7.8,3.4-7.8,7.8c0,4.4,3.2,7.9,7.8,7.9s7.7-3.5,7.7-7.9C635.7,388.3,632.6,384.9,628,384.9z
		 M628,399.1c-3.7,0-6.1-2.8-6.1-6.4c0-3.6,2.4-6.3,6.1-6.3s6.1,2.7,6.1,6.3S631.7,399.1,628,399.1L628,399.1z"/>
	<path class="st0" d="M649.5,393.5c0,3.2-1.9,5.7-5.1,5.7c-3.2,0-4.8-1.9-4.8-5.3v-8.6h-1.6v8.8c0,4.1,2.1,6.6,5.9,6.6
		c2.7,0,4.7-1.5,5.6-4.2v3.8h1.6v-14.9h-1.6L649.5,393.5z"/>
	<path class="st0" d="M662.2,384.9c-3.3,0-5.7,2-6.6,4.6v-4.3H654v20.2l1.6-0.3v-8.9c1,2.5,3.3,4.4,6.4,4.4c4,0,7.3-3.3,7.3-8
		C669.2,388.3,666.3,384.9,662.2,384.9z M661.6,399.1c-3.6,0-6-2.8-6-6.4s2.5-6.3,6.1-6.3c3.6,0,5.9,2.7,5.9,6.3
		C667.7,396.3,665.3,399.1,661.6,399.1L661.6,399.1z"/>
	<path class="st0" d="M685.2,392.6v-1c0-4-2.4-6.6-6.6-6.6c-4.7,0-7.4,3.4-7.4,7.7c0,4.6,3.1,7.9,7.8,7.9c2.3,0,4.4-0.8,5.8-1.9
		v-1.5c-1.6,1.3-3.5,2-5.6,2c-4,0-6.4-2.6-6.4-6.4v-0.1L685.2,392.6z M678.5,386.4c3.4,0,5.1,2,5.2,4.9h-10.8
		C673.3,388.4,675.3,386.4,678.5,386.4z"/>
	<path class="st0" d="M607.9,385.3v4.1c-1-2.6-3.3-4.5-6.6-4.5c-4.1,0-7,3.4-7,7.7c0,4.6,3.3,8,7.3,8c3,0,5.3-1.8,6.3-4.2v1.7
		c0,3.6-2.2,5.9-6.2,5.9c-2.4,0-4.3-0.7-5.9-2.1v1.6c1.5,1.3,3.7,2,6,2c4.5,0,7.7-2.7,7.7-7.2v-13H607.9z M602,399.1
		c-3.7,0-6.1-2.8-6.1-6.4c0-3.5,2.3-6.3,5.9-6.3c3.6,0,6.1,2.8,6.1,6.4C607.9,396.3,605.6,399.1,602,399.1z"/>
	<path class="st1" d="M793.1,407.1c-11-1.3-28.3-1.9-46.2-1.6c-14.9,0.3-37.3,1.2-59.6,4.4c-0.7,0.1-1.1,0.7-1,1.4
		c0.1,0.6,0.6,1,1.2,1c0.1,0,0.1,0,0.2,0c22.1-3.2,44.5-4.2,59.3-4.4c17.8-0.3,34.9,0.3,45.9,1.5c0.7,0.1,1.3-0.3,1.4-0.9
		c0.1-0.7-0.3-1.3-0.9-1.4C793.3,407.1,793.2,407.1,793.1,407.1L793.1,407.1z"/>
	<polygon class="st1" points="787.1,381.6 782.7,382.5 782.7,400.2 787.1,400.2 	"/>
	<path class="st1" d="M780.5,391.8c0-4.4-2.7-7.2-7.8-7.2c-5.4,0-8.5,3.5-8.5,7.9c0,4.8,3.6,8.1,9.2,8.1c2.6,0,5-0.8,6.6-1.9v-3.4
		c-1.6,1.2-3.6,1.8-5.6,1.8c-3.3,0-5.3-1.4-5.8-3.7h11.9L780.5,391.8z M768.6,391.1c0.4-1.8,1.8-3.1,4.2-3.1s3.7,1.1,3.9,3.1H768.6z
		"/>
	<path class="st1" d="M692.2,392.5c0-2.5,1.1-4.1,3.1-4.1c1.8,0,2.8,1.3,2.8,3.3v8.5h4.4V392c0-2.2,1-3.7,3.1-3.7
		c1.9,0,2.8,1.3,2.8,3.7v8.2h4.4v-9.1c0-4.1-1.9-6.5-5.4-6.5c-2.6,0-4.3,1.2-5.2,3.7c-0.7-2.4-2.4-3.7-4.9-3.7s-4.1,1.2-5.1,3.8
		v-3.1h-4.3v14.9h4.4V392.5z"/>
	<path class="st1" d="M721.6,400.7c2.6,0,4.7-1.2,5.7-3.6v3h4.4v-14.9h-4.4v7.8c0,2.6-1.4,4.2-3.8,4.2c-2.3,0-3.5-1.3-3.5-4v-8h-4.4
		v8.9C715.5,398.4,717.7,400.7,721.6,400.7z"/>
	<path class="st1" d="M752.1,400.7c2.6,0,4.7-1.2,5.7-3.6v3h4.4v-14.9h-4.4v7.8c0,2.6-1.4,4.2-3.8,4.2c-2.3,0-3.5-1.3-3.5-4v-8H746
		v8.9C746,398.4,748.2,400.7,752.1,400.7z"/>
	<path class="st1" d="M744.6,399.4c-1.1,0.9-2.5,1.4-4.1,1.4c-3.9,0-6.1-2.4-6.1-6.6v-11.7l4.4-0.9v3.6h4.5v3.3h-4.5v4.7
		c0,2.7,1.2,4,3.5,4c0.5,0,0.9-0.1,1.3-0.2C743.9,397.9,744.2,398.7,744.6,399.4z"/>
</g>
</svg>
