<?xml version="1.0" encoding="utf-8"?>
<!-- Generator: Adobe Illustrator 24.1.2, SVG Export Plug-In . SVG Version: 6.00 Build 0)  -->
<svg version="1.1" id="helsana" xmlns="http://www.w3.org/2000/svg" xmlns:xlink="http://www.w3.org/1999/xlink" x="0px" y="0px"
	 viewBox="0 0 400 79.3" enable-background="new 0 0 400 79.3" xml:space="preserve">
<path id="color_red" fill="#9A0941" d="M45.2,59.4V44.3H15.4V74H2.2V4h13.2v28.1h29.9V4h13.2v53.7c0,3.2,0.7,5,4.6,5
	c1.4,0,3-0.2,3-0.2v11.2c-1.1,0.5-3.9,0.7-6.6,0.7C51.2,74.5,45.2,70.6,45.2,59.4z M108.2,42.7c-0.4-7.5-3.1-12.7-10.8-12.7
	c-7.5,0-11.7,5.7-11.7,12.7H108.2z M121,47.3c0,0,0,2.9-0.7,5H85.2c0,7.2,4.4,13.8,12.6,13.8c5.7,0,9.5-2.5,12.4-5.9l9.3,6.3
	c-5.3,7.2-13,10.2-21.7,10.2c-17.2,0-25.2-12.9-25.2-28.3c0-15.2,8.6-28.9,24.8-28.9C113.7,19.4,121,32.1,121,47.3z M134.2,59.7V1.8
	h12.5v56.3c0,3.1,0.7,4.9,4.4,4.9c1.3,0,2.9-0.2,2.9-0.2v11c-1.1,0.4-3.7,0.7-6.4,0.7C139.9,74.5,134.2,70.6,134.2,59.7z
	 M204.6,58.7c0,13.2-11.2,18.4-23.5,17.9c-10.9,0-18.1-4.5-20.6-6.8l6.7-9.1c2.5,2.3,8.5,5.2,15.2,5.2c5.1,0,9.8-1.8,9.8-6.4
	c0-3.2-2.2-4.8-6-5.4L176,51.9c-3.8-0.7-5.8-1.6-7.8-3c-3.8-2.5-5.8-7-5.8-11.8c0-11.8,10.5-17.7,21.7-17.7
	c10.5,0,17.2,4.1,19.2,6.1l-6.9,8.9c-3.4-3-8.9-4.5-13-4.5c-4.5,0-8.5,1.6-8.5,6.1c0,4.1,2.2,4.8,5.8,5.4l9.2,1.6
	c3.1,0.7,6.5,1.8,8.9,3.4C202.6,48.9,204.6,53.5,204.6,58.7z M270.6,64.7v10.2c-1.3,0.7-3.6,1.4-7.9,1.4c-5.8,0-9-3.4-10.1-7
	c-2.5,3.8-7.9,7.5-15.9,7.5c-12.8,0-23.3-9-23.3-27.8c0-16.1,10.1-29.4,27.6-29.4c14.1,0,22.4,8.1,22.4,21.9v20.4
	c0,2.5,1.3,3.4,3.4,3.4C269,65.1,270.6,64.7,270.6,64.7z M250.6,60.6V42.1c0-7.2-3.4-11.5-10.5-11.5c-8.5,0-13.2,6.3-13.2,17.2
	c0,12,4.9,17.6,13,17.6C246.4,65.4,250.6,60.6,250.6,60.6z M294.3,26c3.6-6.2,10.8-8.7,17.1-8.7c11.5,0,18.6,8.5,18.6,19.8v37h-13
	V40.2c0-6.4-2.2-10.3-9.2-10.3c-4.7,0-10.1,3-12.1,6.9v37.7h-13V34.2c0-3.9-1.3-5.3-5.4-5.3c-0.9,0-2.2,0-2.2,0V18.6
	c2.2-0.7,4.7-0.9,7.9-0.9C290.1,17.7,293.9,20.9,294.3,26z M398.3,64.7v10.2c-1.3,0.7-3.6,1.4-7.9,1.4c-5.8,0-9-3.4-10.1-7
	c-2.5,3.8-7.9,7.5-15.9,7.5c-12.8,0-23.3-9-23.3-27.8c0-16.1,10.1-29.4,27.6-29.4c14.1,0,22.4,8.1,22.4,21.9v20.4
	c0,2.5,1.3,3.4,3.4,3.4C396.7,65.1,398.3,64.7,398.3,64.7z M378.5,60.6V42.1c0-7.2-3.4-11.5-10.5-11.5c-8.5,0-13.2,6.3-13.2,17.2
	c0,12,4.9,17.6,13,17.6C374.2,65.4,378.5,60.6,378.5,60.6z"/>
</svg>
