<?xml version="1.0" encoding="UTF-8" standalone="no"?>
<!-- Created with Inkscape (http://www.inkscape.org/) -->
<svg
   xmlns:svg="http://www.w3.org/2000/svg"
   xmlns="http://www.w3.org/2000/svg"
   version="1.0"
   width="1145"
   height="230"
   id="svg2403"
   xml:space="preserve"><defs
     id="defs2406" /><g
     transform="matrix(1.25,0,0,-1.25,417.68678,1114.0027)"
     id="g2412"><g
       transform="matrix(7.4680848,0,0,7.4680848,-3562.5686,-5159.952)"
       id="g3810"><g
         transform="matrix(0.9873192,0,0,0.9873192,5.0824198,9.412463)"
         id="g3840"><g
           transform="translate(451.77,788.066)"
           id="g2418"><path
             d="M 0,0 C -2.557,0 -3.799,1.346 -3.799,4.116 L -3.799,8.657 C -3.799,8.894 -3.99,9.083 -4.224,9.083 L -13.213,9.083 C -13.448,9.083 -13.638,8.894 -13.638,8.657 L -13.638,0.19 L -16.758,0.19 L -16.758,20.271 L -13.638,20.271 L -13.638,12.311 C -13.638,12.077 -13.448,11.886 -13.213,11.886 L -4.224,11.886 C -3.99,11.886 -3.799,12.077 -3.799,12.311 L -3.799,20.271 L -0.711,20.271 L -0.711,4.592 C -0.711,3.685 -0.507,2.643 1.08,2.643 C 1.242,2.643 1.402,2.65 1.543,2.661 L 1.543,0.11 C 1.181,0.054 0.598,0 0,0"
             id="path2420"
             style="fill:#ffffff;fill-opacity:1;fill-rule:nonzero;stroke:none" /></g><g
           transform="translate(463.585,787.843)"
           id="g2422"><path
             d="M 0,0 C -5.447,0 -7.388,4.211 -7.388,8.151 C -7.388,12.303 -5.152,16.493 -0.159,16.493 C 4.15,16.493 6.722,13.504 6.722,8.5 C 6.722,8.494 6.722,7.958 6.69,7.434 L -3.811,7.434 C -4.045,7.434 -4.236,7.243 -4.236,7.008 C -4.236,4.713 -2.759,2.39 0.064,2.39 C 1.648,2.39 2.857,2.892 3.941,4.008 L 6.112,2.561 C 4.313,0.456 1.819,0 0,0 z M -0.189,14.167 C -2.572,14.167 -4.197,12.454 -4.236,9.904 C -4.238,9.791 -4.193,9.682 -4.114,9.602 C -4.034,9.52 -3.925,9.473 -3.811,9.473 L 3.208,9.473 C 3.325,9.473 3.437,9.521 3.517,9.607 C 3.598,9.691 3.639,9.805 3.633,9.922 C 3.475,12.739 2.189,14.167 -0.189,14.167"
             id="path2424"
             style="fill:#ffffff;fill-opacity:1;fill-rule:nonzero;stroke:none" /></g><g
           transform="translate(478.546,788.066)"
           id="g2426"><path
             d="M 0,0 C -2.536,0 -3.768,1.346 -3.768,4.116 L -3.768,21.351 L -0.71,21.351 L -0.71,4.592 C -0.71,3.685 -0.507,2.643 1.08,2.643 C 1.242,2.643 1.403,2.65 1.543,2.661 L 1.543,0.11 C 1.181,0.054 0.599,0 0,0"
             id="path2428"
             style="fill:#ffffff;fill-opacity:1;fill-rule:nonzero;stroke:none" /></g><g
           transform="translate(488.995,787.843)"
           id="g2430"><path
             d="M 0,0 C -3.096,0 -5.018,1.174 -5.734,1.711 L -4.181,3.767 C -3.172,3.043 -1.418,2.39 0.381,2.39 C 2.537,2.39 3.824,3.273 3.824,4.753 C 3.824,5.844 3.088,6.54 1.637,6.822 L -1.501,7.487 C -2.607,7.697 -3.159,7.951 -3.744,8.32 C -4.769,8.969 -5.355,10.145 -5.355,11.55 C -5.355,14.964 -2.22,16.493 0.89,16.493 C 3.593,16.493 5.415,15.556 6.178,14.985 L 4.587,12.96 C 3.502,13.681 1.953,14.167 0.667,14.167 C -1.23,14.167 -2.362,13.319 -2.362,11.899 C -2.362,10.362 -1.294,10.049 -0.199,9.859 L 2.602,9.414 C 3.611,9.227 4.563,8.879 5.199,8.463 C 6.206,7.791 6.783,6.565 6.783,5.102 C 6.783,0.497 2.04,0 0,0"
             id="path2432"
             style="fill:#ffffff;fill-opacity:1;fill-rule:nonzero;stroke:none" /></g><g
           transform="translate(505.892,787.907)"
           id="g2434"><path
             d="M 0,0 C -4.125,0 -6.69,3.05 -6.69,7.96 C -6.69,12.175 -4.227,16.428 1.271,16.428 C 5.361,16.428 7.707,14.152 7.707,10.183 L 7.707,4.021 C 7.707,3.071 8.219,2.548 9.148,2.548 C 9.432,2.548 9.689,2.569 9.898,2.596 L 9.898,0.368 C 9.387,0.184 8.742,0.094 7.939,0.094 C 5.957,0.094 5.393,1.489 5.268,1.918 C 5.221,2.077 5.084,2.195 4.92,2.219 C 4.9,2.223 4.881,2.224 4.859,2.224 C 4.717,2.224 4.58,2.15 4.5,2.026 C 3.877,1.046 2.365,0 0,0 z M 1.018,13.88 C -1.775,13.88 -3.441,11.774 -3.441,8.246 C -3.441,3.232 -0.668,2.484 0.984,2.484 C 3.154,2.484 4.52,4.026 4.576,4.093 C 4.644,4.169 4.682,4.269 4.682,4.371 L 4.682,9.994 C 4.682,12.5 3.381,13.88 1.018,13.88"
             id="path2436"
             style="fill:#ffffff;fill-opacity:1;fill-rule:nonzero;stroke:none" /></g><g
           transform="translate(533.8,788.256)"
           id="g2438"><path
             d="M 0,0 L -3.121,0 L -3.121,9.708 C -3.121,12.055 -4.205,13.245 -6.342,13.245 C -7.941,13.245 -9.684,12.277 -10.397,10.994 C -10.432,10.931 -10.449,10.86 -10.449,10.788 L -10.449,0 L -13.539,0 L -13.539,11.455 C -13.539,12.825 -14.17,13.436 -15.584,13.436 C -15.656,13.436 -15.74,13.433 -15.826,13.429 L -15.826,15.762 C -15.262,15.891 -14.629,15.953 -13.869,15.953 C -12.602,15.953 -11.047,15.593 -10.828,13.878 C -10.805,13.7 -10.672,13.554 -10.494,13.516 C -10.465,13.51 -10.436,13.507 -10.406,13.507 C -10.26,13.507 -10.121,13.583 -10.043,13.712 C -9.148,15.195 -7.35,16.08 -5.231,16.08 C -2.102,16.08 0,13.876 0,10.597 L 0,0"
             id="path2440"
             style="fill:#ffffff;fill-opacity:1;fill-rule:nonzero;stroke:none" /></g><g
           transform="translate(544.738,787.906)"
           id="g2442"><path
             d="M 0,0 C -4.127,0 -6.691,3.051 -6.691,7.96 C -6.691,12.176 -4.23,16.429 1.272,16.429 C 5.359,16.429 7.705,14.153 7.705,10.184 L 7.705,4.022 C 7.705,3.071 8.217,2.549 9.147,2.549 C 9.432,2.549 9.688,2.57 9.897,2.597 L 9.897,0.369 C 9.387,0.185 8.742,0.096 7.939,0.096 C 5.957,0.096 5.393,1.49 5.268,1.918 C 5.221,2.079 5.084,2.196 4.92,2.22 C 4.898,2.222 4.879,2.224 4.859,2.224 C 4.715,2.224 4.58,2.151 4.502,2.027 C 3.875,1.048 2.363,0 0,0 z M 1.016,13.88 C -1.775,13.88 -3.443,11.775 -3.443,8.246 C -3.443,3.234 -0.67,2.485 0.984,2.485 C 3.154,2.485 4.52,4.026 4.576,4.093 C 4.645,4.171 4.68,4.27 4.68,4.372 L 4.68,9.994 C 4.68,12.5 3.379,13.88 1.016,13.88"
             id="path2444"
             style="fill:#ffffff;fill-opacity:1;fill-rule:nonzero;stroke:none" /></g><g
           transform="translate(447.546,792.182)"
           id="g2446"><path
             d="M 0,0 C 0,-3.335 1.779,-4.542 4.224,-4.542 C 5.019,-4.542 5.876,-4.447 6.194,-4.352 L 6.194,-0.984 C 6.194,-0.984 5.749,-1.049 5.305,-1.049 C 4.161,-1.049 3.939,-0.477 3.939,0.477 L 3.939,16.58 L 0,16.58 L 0,8.195 L -8.988,8.195 L -8.988,16.58 L -12.959,16.58 L -12.959,-4.352 L -8.988,-4.352 L -8.988,4.543 L 0,4.543 L 0,0"
             id="path2448"
             style="fill:#ba0056;fill-opacity:1;fill-rule:nonzero;stroke:none" /></g><g
           transform="translate(466.794,797.741)"
           id="g2450"><path
             d="M 0,0 L -7.02,0 C -6.988,2.128 -5.686,3.843 -3.399,3.843 C -0.985,3.843 -0.127,2.255 0,0 z M 3.939,-1.398 C 3.939,3.176 1.715,7.019 -3.367,7.019 C -8.385,7.019 -11.021,2.858 -11.021,-1.747 C -11.021,-6.416 -8.544,-10.323 -3.208,-10.323 C -0.572,-10.323 1.874,-9.433 3.526,-7.242 L 0.667,-5.336 C -0.254,-6.385 -1.366,-7.083 -3.145,-7.083 C -5.654,-7.083 -7.02,-5.082 -7.02,-2.891 L 3.875,-2.891 C 3.939,-2.256 3.939,-1.398 3.939,-1.398"
             id="path2452"
             style="fill:#ba0056;fill-opacity:1;fill-rule:nonzero;stroke:none" /></g><g
           transform="translate(474.353,792.182)"
           id="g2454"><path
             d="M 0,0 C 0,-3.335 1.747,-4.542 4.192,-4.542 C 4.986,-4.542 5.844,-4.447 6.162,-4.352 L 6.162,-0.984 C 6.162,-0.984 5.716,-1.049 5.272,-1.049 C 4.128,-1.049 3.907,-0.477 3.907,0.477 L 3.907,17.66 L 0,17.66 L 0,0"
             id="path2456"
             style="fill:#ba0056;fill-opacity:1;fill-rule:nonzero;stroke:none" /></g><g
           transform="translate(496.204,792.944)"
           id="g2458"><path
             d="M 0,0 C 0,1.589 -0.634,2.954 -1.779,3.717 C -2.508,4.193 -3.524,4.543 -4.54,4.732 L -7.336,5.178 C -8.448,5.369 -9.146,5.622 -9.146,6.798 C -9.146,8.164 -7.908,8.64 -6.542,8.64 C -5.303,8.64 -3.62,8.131 -2.54,7.274 L -0.443,9.942 C -1.047,10.545 -3.112,11.816 -6.32,11.816 C -9.75,11.816 -12.99,10.038 -12.99,6.449 C -12.99,4.987 -12.386,3.621 -11.18,2.859 C -10.576,2.479 -9.972,2.191 -8.797,1.97 L -5.653,1.303 C -4.509,1.08 -3.81,0.604 -3.81,-0.349 C -3.81,-1.746 -5.24,-2.286 -6.828,-2.286 C -8.86,-2.286 -10.703,-1.429 -11.465,-0.73 L -13.529,-3.462 C -12.799,-4.128 -10.607,-5.526 -7.209,-5.526 C -3.397,-5.526 0,-3.97 0,0"
             id="path2460"
             style="fill:#ba0056;fill-opacity:1;fill-rule:nonzero;stroke:none" /></g><g
           transform="translate(516.214,791.007)"
           id="g2462"><path
             d="M 0,0 C 0,0 -0.508,-0.127 -1.174,-0.127 C -1.811,-0.127 -2.191,0.159 -2.191,0.922 L -2.191,7.083 C -2.191,11.276 -4.732,13.753 -9.051,13.753 C -14.42,13.753 -17.436,9.72 -17.436,4.859 C -17.436,-0.825 -14.229,-3.525 -10.322,-3.525 C -7.877,-3.525 -6.193,-2.445 -5.463,-1.302 C -5.145,-2.382 -4.16,-3.43 -2.381,-3.43 C -1.111,-3.43 -0.412,-3.207 0,-3.018 L 0,0 z M -6.066,1.271 C -6.066,1.271 -7.336,-0.19 -9.338,-0.19 C -11.783,-0.19 -13.34,1.493 -13.34,5.146 C -13.34,8.417 -11.879,10.355 -9.305,10.355 C -7.082,10.355 -6.066,9.084 -6.066,6.893 L -6.066,1.271"
             id="path2464"
             style="fill:#ba0056;fill-opacity:1;fill-rule:nonzero;stroke:none" /></g><g
           transform="translate(523.394,802.188)"
           id="g2466"><path
             d="M 0,0 C 1.111,1.842 3.27,2.572 5.176,2.572 C 8.67,2.572 10.83,0.064 10.83,-3.335 L 10.83,-14.357 L 6.859,-14.357 L 6.859,-4.225 C 6.859,-2.319 6.162,-1.112 4.064,-1.112 C 2.635,-1.112 1.016,-2.001 0.381,-3.144 L 0.381,-14.357 L -3.559,-14.357 L -3.559,-2.477 C -3.559,-1.333 -4.002,-0.921 -5.178,-0.921 C -5.432,-0.921 -5.846,-0.953 -5.846,-0.953 L -5.846,2.16 C -5.178,2.351 -4.416,2.446 -3.463,2.446 C -1.303,2.446 -0.191,1.493 0,0"
             id="path2468"
             style="fill:#ba0056;fill-opacity:1;fill-rule:nonzero;stroke:none" /></g><g
           transform="translate(555.06,791.007)"
           id="g2470"><path
             d="M 0,0 C 0,0 -0.508,-0.127 -1.176,-0.127 C -1.811,-0.127 -2.191,0.159 -2.191,0.922 L -2.191,7.083 C -2.191,11.276 -4.733,13.753 -9.053,13.753 C -14.42,13.753 -17.437,9.72 -17.437,4.859 C -17.437,-0.825 -14.229,-3.525 -10.322,-3.525 C -7.877,-3.525 -6.193,-2.445 -5.463,-1.302 C -5.145,-2.382 -4.16,-3.43 -2.383,-3.43 C -1.111,-3.43 -0.414,-3.207 0,-3.018 L 0,0 z M -6.066,1.271 C -6.066,1.271 -7.336,-0.19 -9.338,-0.19 C -11.783,-0.19 -13.34,1.493 -13.34,5.146 C -13.34,8.417 -11.879,10.355 -9.307,10.355 C -7.084,10.355 -6.066,9.084 -6.066,6.893 L -6.066,1.271"
             id="path2472"
             style="fill:#ba0056;fill-opacity:1;fill-rule:nonzero;stroke:none" /></g></g></g></g></svg>