<?xml version="1.0" encoding="utf-8"?>
<!-- Generator: Adobe Illustrator 24.1.2, SVG Export Plug-In . SVG Version: 6.00 Build 0)  -->
<svg version="1.1" id="kpt" xmlns="http://www.w3.org/2000/svg" xmlns:xlink="http://www.w3.org/1999/xlink" x="0px" y="0px"
	 viewBox="0 0 400 180.8" enable-background="new 0 0 400 180.8" xml:space="preserve">
<path id="color_red" fill="#D8321E" d="M197.8,36.3c-11.8-0.4-23,5.3-29.7,15h-0.4V37.9h-34.9v139.6h34.9v-44.7
	c7.7,8.7,18.8,13.5,30.4,13.2c29.1,0,49.1-25.1,49.1-54.6S227.1,36.3,197.8,36.3z M189,114.6c-14.2,0-22.4-10.2-22.4-23.3l0,0
	c0-12.6,8.2-23.2,22.4-23.2s22.4,10,22.4,23.3S203.2,114.6,189,114.6z M124,37.9H76.1L37.8,76.7V3H2.9v139.6h34.9v-41.9l38.4,41.9
	h49.1L72.7,87.3L124,37.9z M362.4,37.9v34.9h34.9V37.9H362.4z M362.4,142.7h34.9v-34.9h-34.9V142.7z M292.5,3h-34.9v104.7
	c0,19.3,15.6,34.9,34.9,34.9h34.9v-34.9h-34.9V72.9h34.9V37.9h-34.9V3z"/>
</svg>
