<svg xmlns="http://www.w3.org/2000/svg" viewBox="0 0 225.72 99.62"><symbol id="e9848eb0-4baf-480f-81a3-b3834005fb49" fill="#d8321e" viewBox="0 0 225.72 99.62">
	<title xmlns="http://www.w3.org/2000/svg">kpt-logo</title><path xmlns="http://www.w3.org/2000/svg" d="M185.76,39.85V19.92h-20V0h-20V59.77a20,20,0,0,0,20,19.92h20V59.77h-20V39.85Z" fill-rule="evenodd"></path><rect xmlns="http://www.w3.org/2000/svg" x="205.74" y="59.77" width="19.98" height="19.92"></rect><rect xmlns="http://www.w3.org/2000/svg" x="205.74" y="19.92" width="19.98" height="19.92"></rect><polygon xmlns="http://www.w3.org/2000/svg" points="20.06 42.13 41.89 19.93 69.33 19.93 40 48.08 70.09 79.7 41.99 79.7 20.06 55.76 20.06 79.7 0 79.7 0 0 20.06 0 20.06 42.13" fill-rule="evenodd"></polygon><path xmlns="http://www.w3.org/2000/svg" d="M93.68,50.38c0,7.44,4.71,13.17,12.83,13.17s12.83-5.73,12.83-13.17c0-7.22-4.71-13.29-12.83-13.29S93.68,43.16,93.68,50.38Zm.66-22.8h.22C98.18,21.74,105,19,111.55,19c16.77,0,28.4,14.66,28.4,31.5s-11.51,31.16-28.18,31.16c-6.47,0-13.16-2.4-17.43-7.56V99.62h-20V19.92h20Z" fill-rule="evenodd"></path>
</symbol><use href="#e9848eb0-4baf-480f-81a3-b3834005fb49"></use></svg>