<?xml version="1.0" encoding="utf-8"?>
<!-- Generator: Adobe Illustrator 24.1.2, SVG Export Plug-In . SVG Version: 6.00 Build 0)  -->
<svg version="1.1" id="luzerner_hinterland" xmlns="http://www.w3.org/2000/svg" xmlns:xlink="http://www.w3.org/1999/xlink"
	 x="0px" y="0px" viewBox="0 0 400 167.1" enable-background="new 0 0 400 167.1" xml:space="preserve">
<path id="color_yellow" fill="#F9B505" d="M91.5,112.4c-12.8-2.7-33.4-8.1-34.2-28.9C58.1,45.8,103.5,49,103.5,49v-1.6
	c0,0-26.4,0.2-38.5,7.8c-29.1,18.3-9.4,46.8-9.4,46.8s-1,1.1-1,1.1c-3.7-5-15-23.9,0-44.4c16.9-20.8,48.9-20.6,48.9-20.6v-1.5
	c-1.8-0.3-29.6,1.3-45.4,11C32.3,63.3,39.4,87.9,40.9,93.2c0,0-1.2,0.5-1.2,0.5c-0.2-0.4-11.9-25.9,8.7-45
	c21-19.5,54.8-20.9,55-20.8c0,0,0-1.6,0-1.5c0,0-41.1,2-60.2,18.3C23.9,61.1,28.6,80.8,28.9,82c0,0-1.3,0.5-1.3,0.5
	c0,0-10.3-25.5,19.2-49c20.4-16.2,56.6-16.1,56.6-16.1v-1.5c-0.3,0-46.4-0.2-63.9,14.9C15.3,51.8,20.4,71.7,20.4,71.8
	c0,0-1.3,0.1-1.3,0.1c0,0-4.3-15.4,5.9-32.1c9.9-16.2,33.9-32.5,78.5-33.3V5c0,0-35.7,0.2-56.4,8.6c-14.8,6-49.9,25-27.6,63.2
	c33.2,56.9,97.1,44.8,104.1,42.6c0,0,0.5,1.4,0.5,1.4c-44,14.3-104.9-10-116.7-59.6c0,0-1.4,0.2-1.4,0.2c7,33,30.5,52.9,51.9,62.3
	c28.5,12.6,54.5,7,54.5,7l0.4,1.6c-9.3,2.7-84.1,8.7-108.3-57.3c0,0-1.2,0.3-1.2,0.3c21.2,70.2,95,66.4,95,66.4v1.5
	c0,0-65.9,6-94.2-52.4c0,0-1.2,0.6-1.2,0.6C27,150,84,150.7,84,150.7v1.5c0,0-49.6,1.2-76.6-42c0,0-1.1,0.8-1.1,0.8
	c35.3,61.6,103.3,51.6,103.3,51.6c12.7-15.8,25.3-32.4,37.9-48.4C147.5,114.2,105.3,115.1,91.5,112.4z"/>
<path id="color_blue" fill="#273682" d="M186,70.6v22.1h13v-3.5h-8.6V70.6H186z M199.4,123.4h-8.9v-8.9H186v22.1h4.4v-9.7h8.9v9.7
	h4.4v-22.1h-4.4V123.4z M209.4,136.6h4.3v-16.3h-4.3V136.6z M213,84.4c0,2.1-0.7,5.4-3.7,5.4c-2.7,0-2.8-2.7-2.8-4.7v-8.7h-4.3v10.3
	c0,3.7,1.7,6.4,5.6,6.4c2.2,0,4.1-1,5.4-2.6h0.1v2.2h4h0V76.4H213V84.4z M190.5,38.7L190.5,38.7l8,10.3h5.8l-9.5-11.7l9.1-10.4h-5.5
	l-8,9.5v-9.5H186h0V49h4.4V38.7z M209.4,117.3h4.3v-4.1h-4.3V117.3z M211.5,36.3L211.5,36.3l-0.1-3.7h-3.8l0,16.3h4.3v-6
	c0-2.3,0-6.7,3.5-6.7c0.8,0,1.5,0.1,1.9,0.4v-4.3c-0.4-0.1-0.9-0.1-1.3-0.1C213.5,32.2,211.7,34.8,211.5,36.3z M300.4,41
	c0-2.1,0.7-5.4,3.7-5.4c2.7,0,2.8,2.7,2.8,4.7v8.7h4.3V38.6c0-3.7-1.7-6.4-5.6-6.4c-2.2,0-4,0.7-5.4,2.6h-0.1v-2.2h-4h0v16.3h4.3V41
	z M102.2,63.3c-9.8,0-18,7.9-18,18c0,9.8,7.9,18,18,18c9.8,0,18-7.9,18-18C120.3,71.5,112.4,63.3,102.2,63.3z M285.2,49.3
	c2.3,0,4.1-0.4,5.6-1.3l0-3.5c-1.6,0.9-3.4,1.7-5.4,1.7c-2.6,0-4.5-1.5-4.7-4.1h11.3c0-5.7-1.7-9.9-7.8-9.9c-5.1,0-7.6,3.9-7.6,8.6
	C276.7,46.2,279.8,49.3,285.2,49.3z M284.5,35.3c2.4,0,3.3,1.8,3.5,3.8h-7.2C281,37,282.2,35.3,284.5,35.3z M320.7,41L320.7,41
	l5.5,7.9h5.4l-6.9-9l6.1-7.3h-5l-5.1,6.5h-0.1v-14h-4.2V49h4.3V41z M225.4,49.3c1.9,0,4.1-1,5-2.8h0.1c0,0.5,0,1.6,0.2,2.4h3.7
	c-0.1-1.3-0.2-2.4-0.2-3.6c0-1.2-0.1-2.4-0.1-4.1v-2.1c0-4.8-2.1-6.9-7-6.9c-1.8,0-4,0.5-5.7,1.2l0.1,3.6c1.4-1.1,3.2-1.8,5-1.8
	c2.5,0,3.7,0.9,3.7,3.5H228c-1.8,0-3.9,0.2-5.5,1c-1.6,0.8-2.8,2.2-2.8,4.7C219.7,47.6,222.5,49.3,225.4,49.3z M228.5,41.4h1.8
	c0,1.3-0.2,2.4-0.9,3.4c-0.7,0.9-1.7,1.5-3,1.5c-1.5,0-2.7-0.6-2.7-2C223.8,41.7,226.6,41.4,228.5,41.4z M246.6,93.2
	c2.3,0,4.1-0.4,5.6-1.3h0v-3.5c-1.6,0.9-3.4,1.7-5.4,1.7c-2.6,0-4.5-1.5-4.7-4.1h11.3c0-5.7-1.7-9.9-7.8-9.9c-5.1,0-7.6,3.9-7.6,8.6
	C238,90.1,241.2,93.2,246.6,93.2z M245.9,79.2c2.4,0,3.3,1.8,3.5,3.8h-7.2C242.3,80.8,243.5,79.2,245.9,79.2z M243.4,41
	c0-2.1,0.7-5.4,3.7-5.4c2.7,0,2.8,2.7,2.8,4.7v8.7h4.3V38.6c0-3.7-1.7-6.4-5.6-6.4c-2.2,0-4,0.7-5.4,2.6h-0.1v-2.2h-4h0v16.3h4.2V41
	z M228.4,119.9c-2.2,0-4,0.7-5.4,2.6H223v-2.2h-4v16.3h4.2v-8c0-2.1,0.7-5.4,3.7-5.4c2.7,0,2.8,2.7,2.8,4.7v8.7h4.3v-10.3
	C233.9,122.6,232.3,119.9,228.4,119.9z M321.2,119.9c-2.2,0-4,0.7-5.4,2.6h-0.1v-2.2h-4v16.3h4.3v-8c0-2.1,0.7-5.4,3.7-5.4
	c2.7,0,2.8,2.7,2.8,4.7v8.7h4.3v-10.3C326.8,122.6,325.1,119.9,321.2,119.9z M311.8,120.3L311.8,120.3L311.8,120.3L311.8,120.3
	L311.8,120.3z M314.1,86.8c0-2.3,0-6.7,3.5-6.7c0.8,0,1.5,0.1,1.9,0.3v-4.3c-0.4-0.1-0.9-0.1-1.3-0.1c-2.5,0-4.3,2.6-4.5,4.1h-0.1
	v-3.7h-3.8v0h0v16.3h4.3V86.8z M234.7,79.9v-3.5h-12.9h0v3.3h7.9l-8.3,9.6v3.5H235v-3.3h-8.4L234.7,79.9z M348.2,41.2v-2.1
	c0-4.8-2.1-6.9-7-6.9c-1.8,0-4,0.5-5.7,1.2l0.1,3.6c1.4-1.1,3.2-1.8,5-1.8c2.5,0,3.7,0.9,3.7,3.5H342c-1.8,0-3.9,0.2-5.5,1
	c-1.6,0.8-2.8,2.2-2.8,4.7c0,3.1,2.8,4.9,5.7,4.9c1.9,0,4.1-1,5-2.8h0.1c0,0.5,0,1.6,0.2,2.4h3.7c-0.1-1.3-0.2-2.4-0.2-3.6
	C348.3,44.1,348.2,42.9,348.2,41.2z M343.5,44.8c-0.7,0.9-1.7,1.5-3,1.5c-1.5,0-2.7-0.6-2.7-2c0-2.5,2.8-2.8,4.7-2.8h1.8
	C344.4,42.7,344.2,43.8,343.5,44.8z M306.8,128.9v-2.1c0-4.8-2.1-6.9-7-6.9c-1.8,0-4,0.5-5.7,1.2l0.1,3.6c1.4-1.1,3.2-1.8,5-1.8
	c2.5,0,3.7,0.9,3.7,3.5h-2.3c-1.8,0-3.9,0.2-5.5,1c-1.6,0.8-2.8,2.2-2.8,4.7c0,3.1,2.8,4.9,5.7,4.9c1.9,0,4.1-1,5-2.8h0.1
	c0,0.5,0,1.6,0.2,2.4h3.7c-0.1-1.3-0.2-2.4-0.2-3.6C306.8,131.8,306.8,130.5,306.8,128.9z M302.1,132.4c-0.7,0.9-1.7,1.5-3,1.5
	c-1.5,0-2.7-0.6-2.7-2c0-2.5,2.8-2.8,4.7-2.8h1.8C302.9,130.3,302.7,131.5,302.1,132.4z M386,42.1h11.3c0-5.7-1.7-9.9-7.8-9.9
	c-5.1,0-7.6,3.9-7.6,8.6c0,5.4,3.1,8.5,8.5,8.5c2.3,0,4.1-0.4,5.6-1.3h0v-3.5c-1.6,0.9-3.4,1.7-5.4,1.7
	C388,46.2,386.2,44.7,386,42.1z M389.7,35.3c2.4,0,3.3,1.8,3.5,3.8H386C386.2,37,387.4,35.3,389.7,35.3z M371.5,37.1
	c0-1.4,1.4-1.8,2.5-1.8c1.6,0,2.5,0.3,3.8,0.7l0.3-3.2c-1.3-0.3-2.6-0.6-4.6-0.6c-3.3,0-6.4,1.6-6.4,5.1c0,5.9,7.4,3.7,7.4,6.9
	c0,1.6-1.7,2-2.8,2c-1.5,0-2.9-0.4-4.2-1.1l-0.3,3.5c1.6,0.4,3.2,0.7,4.8,0.7c3.5,0,6.9-1.5,6.9-5.3
	C378.9,38.1,371.5,39.8,371.5,37.1z M356.6,37.1c0-1.4,1.4-1.8,2.5-1.8c1.6,0,2.5,0.3,3.8,0.7l0.3-3.2c-1.3-0.3-2.6-0.6-4.6-0.6
	c-3.3,0-6.4,1.6-6.4,5.1c0,5.9,7.4,3.7,7.4,6.9c0,1.6-1.7,2-2.8,2c-1.5,0-2.9-0.4-4.2-1.1l-0.3,3.5c1.6,0.4,3.2,0.7,4.8,0.7
	c3.5,0,6.9-1.5,6.9-5.3C364,38.1,356.6,39.8,356.6,37.1z M342.7,122.2L342.7,122.2c-1.3-1.6-2.8-2.3-4.9-2.3c-5,0-6.9,4-6.9,8.5
	c0,4.5,1.8,8.6,6.9,8.6c2,0,3.7-0.6,5-2.2h0.1v1.8h4.1v-23.8h-4.3V122.2z M338.9,133.7c-2.8,0-3.6-3-3.6-5.3c0-2.2,0.8-5.2,3.5-5.2
	c2.7,0,3.8,2.9,3.8,5.2C342.7,130.7,341.7,133.7,338.9,133.7z M298.8,93.2c2.3,0,4.1-0.4,5.6-1.3h0v-3.5c-1.6,0.9-3.4,1.7-5.4,1.7
	c-2.6,0-4.5-1.5-4.7-4.1h11.3c0-5.7-1.7-9.9-7.8-9.9c-5.1,0-7.6,3.9-7.6,8.6C290.3,90.1,293.5,93.2,298.8,93.2z M298.1,79.2
	c2.4,0,3.3,1.8,3.5,3.8h-7.2C294.6,80.8,295.8,79.2,298.1,79.2z M258.7,119.9c-5.1,0-7.6,3.9-7.6,8.6c0,5.4,3.1,8.5,8.5,8.5
	c2.3,0,4.1-0.4,5.6-1.3v-3.5c-1.6,0.9-3.4,1.7-5.4,1.7c-2.6,0-4.5-1.5-4.7-4.1h11.3C266.5,124,264.8,119.9,258.7,119.9z
	 M255.2,126.8c0.2-2.2,1.4-3.8,3.8-3.8c2.4,0,3.3,1.8,3.5,3.8H255.2z M261.4,80.1L261.4,80.1l-0.1-3.7h-3.8v16.3h4.3v-6
	c0-2.3,0-6.7,3.5-6.7c0.8,0,1.5,0.1,1.9,0.3v-4.3c-0.4-0.1-0.9-0.1-1.3-0.1C263.4,76.1,261.6,78.6,261.4,80.1z M246.7,133.7
	c-1.6,0-2-1.3-2-2.7v-7.6h3.8v-3.1h-3.8v-4.6l-4.3,1.4v3.3h-3.1v3.1h3.1v8.3c0,3.2,1.8,5.3,5.2,5.3c1.3,0,2.2-0.1,3.1-0.4l-0.1-3.4
	C248.2,133.5,247.5,133.7,246.7,133.7z M267.8,39.9l6.1-7.3h-5l-5.1,6.5h-0.1v-14h-4.2V49h4.3V41h0.1l5.5,7.9h5.4L267.8,39.9z
	 M274.6,124L274.6,124l-0.1-3.7h-3.8v0h0v16.3h4.3v-6c0-2.3,0-6.7,3.5-6.7c0.8,0,1.5,0.1,1.9,0.3V120c-0.4-0.1-0.9-0.1-1.3-0.1
	C276.5,119.9,274.8,122.5,274.6,124z M283.9,136.6h4.3v-23.8h-4.3V136.6z M286.2,92.8V82.5c0-3.7-1.7-6.4-5.6-6.4
	c-2.2,0-4,0.7-5.4,2.6h-0.1v-2.2h-4h0v16.3h4.2v-8c0-2.1,0.7-5.4,3.7-5.4c2.7,0,2.8,2.7,2.8,4.7v8.7H286.2z"/>
</svg>
