<?xml version="1.0" encoding="utf-8"?>
<!-- Generator: Adobe Illustrator 24.1.2, SVG Export Plug-In . SVG Version: 6.00 Build 0)  -->
<svg version="1.1" id="oekk" xmlns="http://www.w3.org/2000/svg" xmlns:xlink="http://www.w3.org/1999/xlink" x="0px" y="0px"
	 viewBox="0 0 400 152.4" enable-background="new 0 0 400 152.4" xml:space="preserve">
<path id="color_red_1_" fill="#E0332B" d="M3.6,84.4c0,36.5,24.8,62.6,60.7,65.3v-6.9c-17.7-3.6-28.6-27.5-28.6-58.7
	c0-38.4,13.1-56.1,28.6-59v-6.6C26,20.7,3.6,47.5,3.6,84.4z M202.9,144.5c-11.3-1.7-12.5-8.8-12.6-12.1l0.2-92.2
	c0-16.1,9.2-15.4,11-15.6c2.4-0.3,3.5-0.7,3.5-1.8c0-2-1.2-2-3.6-2h-48.4c-3.4-0.1-4.7,0.2-4.7,1.8c0,1.3,0,1.6,3.2,2
	c11.6,1.4,10.2,13.2,10.4,15.6c0.2,2.4,0.3,82.2-0.1,92.2c-0.4,10.1-8.8,11.7-10.6,12.1c-1.7,0.4-3,0.9-3,1.9c0,2,0.8,1.6,4.8,1.5
	h49.4c2.5,0,2.7-0.6,2.7-1.5C205.3,145.9,206.1,145,202.9,144.5z M15.4,28.2c6.8,0,12.4-5.5,12.4-12.4c0-4.7-3.4-12.4-12.4-12.4
	C8.6,3.4,3,9,3,15.8C3,22.6,8.6,28.2,15.4,28.2z M266.1,144.1c-5.2-0.8-6-2.3-10.3-9.4c-27.9-46.3-42.2-70.9-42.2-70.9l15-18.6
	C244.7,26.5,253,26.3,258.1,25c2.1-0.6,2.9-0.6,2.9-1.7c0-1.2-0.1-2-2.9-1.9c-11.8,0.3-25.6,0.3-39.5,0c-1.7,0-3.2,0-3.2,1.8
	c0,2.4,1.7,2,3.3,2c14.7,0.8,7.9,11,7.3,12.1l-27.6,33.9v22c6.1,10.1,19.8,33.8,24.4,41.5c5.7,9.6-5.5,9.4-8.1,9.9
	c-2.6,0.5-3.4,0.7-3.4,1.8c0,2,1.5,1.8,2.5,1.7h52.8c1.4,0.1,2.7-0.3,2.7-1.9C269.3,145,268.5,144.5,266.1,144.1z M332,144.5
	c-11.3-1.7-12.5-8.8-12.6-12.1l0.2-92.2c0-16.1,9.2-15.4,11-15.6c2.4-0.3,3.5-0.7,3.5-1.8c0-2-1.2-2-3.6-2h-48.3
	c-3.4-0.1-4.7,0.2-4.7,1.8c0,1.3,0,1.6,3.2,2c11.6,1.4,10.2,13.2,10.4,15.6c0.2,2.4,0.3,82.2-0.1,92.2c-0.4,10.1-8.8,11.7-10.6,12.1
	c-1.7,0.4-3,0.9-3,1.9c0,2,0.8,1.6,4.8,1.5h49.4c2.5,0,2.7-0.6,2.7-1.5C334.4,145.9,335.2,145,332,144.5z M395.2,144.1
	c-5.2-0.8-6-2.3-10.3-9.4c-27.9-46.3-42.2-70.9-42.2-70.9l15-18.6c16.1-18.7,24.4-18.9,29.6-20.3c2.1-0.6,2.9-0.6,2.9-1.7
	c0-1.2-0.1-2-2.9-1.9c-11.8,0.3-25.6,0.3-39.5,0c-1.7,0-3.2,0-3.2,1.8c0,2.4,1.7,2,3.3,2c14.7,0.8,7.9,11,7.3,12.1l-27.6,33.9v22
	c6.1,10.1,19.8,33.8,24.4,41.5c5.7,9.6-5.5,9.4-8.1,9.9c-2.6,0.5-3.4,0.7-3.4,1.8c0,2,1.5,1.8,2.5,1.7h52.8c1.4,0.1,2.7-0.3,2.7-1.9
	C398.4,145,397.5,144.5,395.2,144.1z"/>
<path id="color_red_dark" fill="#8F2F26" d="M123.6,28.2c6.8,0,12.4-5.5,12.4-12.4s-5.5-12.4-12.4-12.4c-6.8,0-12.4,5.5-12.4,12.4
	S116.8,28.2,123.6,28.2z M75.6,18.5v6.9c17.7,3.6,28.6,27.5,28.6,58.7c0,38.4-13.1,56.1-28.6,59v6.6c38.4-2.2,60.7-29,60.7-65.9
	C136.3,47.3,111.5,21.2,75.6,18.5z"/>
</svg>
