<?xml version="1.0" encoding="utf-8"?>
<!-- Generator: Adobe Illustrator 24.1.2, SVG Export Plug-In . SVG Version: 6.00 Build 0)  -->
<svg version="1.1" id="rhenusana" xmlns="http://www.w3.org/2000/svg" xmlns:xlink="http://www.w3.org/1999/xlink" x="0px" y="0px"
	 viewBox="0 0 400 176.3" enable-background="new 0 0 400 176.3" xml:space="preserve">
<path id="color_yellow" fill="#EDB114" d="M370.1,78c-4.2,0-7.6,3.4-7.6,7.6s3.4,7.6,7.6,7.6s7.6-3.4,7.6-7.6S374.3,78,370.1,78z
	 M390.5,48.5c-4.2,0-7.6,3.4-7.6,7.6s3.4,7.6,7.6,7.6s7.6-3.4,7.6-7.6S394.7,48.5,390.5,48.5z"/>
<path id="color_green" fill="#4FAE31" d="M303.6,127.6c-5.9,0-10.8,4.8-10.8,10.8s4.8,10.8,10.8,10.8s10.8-4.8,10.8-10.8
	S309.5,127.6,303.6,127.6z M341.4,103.8c-5.9,0-10.8,4.8-10.8,10.8c0,5.9,4.8,10.8,10.8,10.8c5.9,0,10.8-4.8,10.8-10.8
	C352.1,108.6,347.3,103.8,341.4,103.8z"/>
<path id="color_blue" fill="#004F9F" d="M24.2,27.4c0.2-4.6,0.4-8.9-8.4-8.7C8,19,2,25.3,2,34.4v20c0,4.4,0.2,6.8,4,7h3V35.2
	c0-4,1.5-10.1,7.2-10.1C22.3,25.1,24.2,27.4,24.2,27.4z M65.1,61.4h2.3V33.9c0-9.1-6.8-16-15.4-16h-1.5c-4.4,0-8.4,3-11.6,7V10.1
	c0-4.4-1.1-6.3-4.9-6.5h-2.3v50.6c0,4.4,0.2,7.2,4,7.2l3.2-0.2V35.8c0-4,3-10.8,10.1-11.2h1.7c6.8,0,9.5,5.1,9.5,9.3v20.9
	C60.3,59.3,61.3,61.2,65.1,61.4z M257.8,139.9c-7.8,0-14.1,6.3-14.1,14.1s6.3,14.1,14.1,14.1c7.8,0,14.1-6.3,14.1-14.1
	S265.6,139.9,257.8,139.9z M208.4,144.7c-7.8,0-14.1,6.3-14.1,14.1s6.3,14.1,14.1,14.1s14.1-6.3,14.1-14.1S216.2,144.7,208.4,144.7z
	 M242.6,48.9c0-7.4-4-11.2-16-13.1c-10.8-1.7-9.3-11.2,2.7-11.4c8.4,0,12,4.4,12,4.4c1.1-5.1-0.8-11.2-12.9-11.2
	c-6.5-0.2-16.2,4.4-16.2,13.1c0,5.9,2.7,8.9,8.9,10.6c12,3.4,14.1,3.2,14.1,8.4c0,7.8-17.5,6.8-22.4,0.6
	c-0.2,5.7,0.8,11.2,12.9,11.6C236.9,62.4,242.8,56.9,242.6,48.9z M356.1,17.9c-13.9,0-16.7,7.4-15.6,12.5c0,0,5.1-6.1,13.3-6.1
	l3.2,0.2c4.9,0,8.2,4.4,8.2,9.7v1.5H357c-11.4,0-17.9,5.7-17.9,13.3c-0.2,8,5.7,13.5,17.1,13.5s16-7.6,16.5-13.5V33.3
	C372.4,21.1,362.7,17.7,356.1,17.9z M365,50.2c-3.6,8.4-18.8,5.7-18.8-1.1c0-4,3.2-7.8,9.7-7.8c0.2,0,9.1,0.2,9.1,0.2
	S365.2,49.8,365,50.2z M313.1,17.7h-3.6c-8.9,0.2-16.5,7-16.7,16v20c0,4.4,0.2,7.2,4,7.2l3.2-0.2V33.3c0-4,3-8.7,10.1-9.1h1.7
	c6.8,0,9.5,5.1,9.5,9.3v20.9c0,4.4,1.1,6.3,4.9,6.5h2.3V33.5C328.5,24.7,321.7,17.7,313.1,17.7z M267.5,17.9
	c-13.9,0-16.7,7.4-15.6,12.5c0,0,5.1-6.1,13.3-6.1l3.2,0.2c4.9,0,8.2,4.4,8.2,9.7v1.5h-8.2c-11.4,0-17.9,5.7-17.9,13.3
	c-0.2,8,5.7,13.5,17.1,13.5s16-7.6,16.5-13.5V33.3C283.8,21.1,274.1,17.7,267.5,17.9z M276.4,50.2c-3.6,8.4-18.8,5.7-18.8-1.1
	c0-4,3.2-7.8,9.7-7.8c0.2,0,9.1,0.2,9.1,0.2S276.6,49.8,276.4,50.2z M156.5,33.5c0.2-8.9-6.5-15.8-15.2-15.8h-3.6
	c-8.9,0.2-16.5,7-16.7,16v20c0,4.4,0.2,7.2,4,7.2l3.2-0.2V33.3c0-4,3-8.7,10.1-9.1h1.5c6.8,0,9.5,5.1,9.5,9.3v20.9
	c0,4.4,1.1,6.3,4.9,6.5h2.3V33.5z M94.9,55.5c-4.9,0-11.4-7-11.2-12h10.6c11.4,0,18.1-1.9,18.1-9.5c0.2-8.2-5.5-16.2-16.7-16.2
	c-11.4,0-19.6,9.5-19.8,21.1v1.3C76.3,57.4,87.3,61.8,95.5,62h0.2c13.9,0,15-4,15-11c0,0-4.6,4.6-12.7,4.6L94.9,55.5z M105.4,31.4
	c-0.2,5.5-3.6,6.1-9.9,6.1h-12C84.8,18.5,105.7,23.6,105.4,31.4z M202.1,45.5v-20c0-4-0.2-6.8-4-7l-3.2,0.2v25.7
	c0,4-2.3,10.3-9.5,10.6H184c-6.3-0.2-10.1-6.5-10.1-10.6V24.9c0-4.4-1.1-6.3-4.9-6.5h-2.3v26.4c0,9.7,7.8,17.1,16.5,17.1h3
	C194.9,61.6,201.9,54.6,202.1,45.5z"/>
</svg>
