<?xml version="1.0" encoding="utf-8"?>
<!-- Generator: Adobe Illustrator 24.1.2, SVG Export Plug-In . SVG Version: 6.00 Build 0)  -->
<svg version="1.1" id="visana" xmlns="http://www.w3.org/2000/svg" xmlns:xlink="http://www.w3.org/1999/xlink" x="0px" y="0px"
	 viewBox="0 0 400 130" enable-background="new 0 0 400 130" xml:space="preserve">
<path id="color_black" d="M148.6,101.4c0,4.4-4.4,5.1-8.9,5.1c-7.9,0-15.6-2.7-20.7-4.9l-1,16.4c6.4,2.1,13.1,3,23,3
	c14.3,0,29.4-4.2,29.4-21.1c0-24-32.5-16.3-32.5-26.1c0-3.5,5.4-4.4,10.1-4.4c5.5,0,12.4,1.5,17.7,4.4l1.7-15.2
	c-7.7-2.9-15.4-3.8-22.9-3.8c-12.6,0-26.9,6-26.9,20.5C117.5,98.2,148.6,90.7,148.6,101.4z M106.2,56.4H84.4v63.2h21.8V56.4z
	 M277.5,84.1l22.3,35.4h21.4v-63h-21.1v35.1l-0.3-0.1l-22.1-35h-20.9v63.1h20.7V84.1z M395.7,104.7V81.1c0-19.3-13.9-26.2-30.1-26.2
	c-9.3,0-17.5,1.4-25.3,4.5l0.3,14.7c6.1-3.4,13.1-4.7,20.2-4.7c7.9,0,14.3,2.3,14.4,10.9c-2.8-0.5-6.6-0.8-10.2-0.8
	c-11.7,0-32.6,2.3-32.6,21.6c0,13.7,11.1,19.9,23.7,19.9c9,0,15-3.5,20-11.4h0.3c0,3.3,0.4,6.6,0.5,10h20
	C395.9,114.6,395.7,109.6,395.7,104.7z M361.8,106.5c-5.1,0-9-2.5-9-6.9c0-6.1,5.8-8.4,13.2-8.4c3.3,0,6.4,0.3,9.2,0.4
	C375.3,99,370.1,106.5,361.8,106.5z M241.8,81.1c0-19.3-13.9-26.2-30.1-26.2c-9.3,0-17.5,1.3-26.4,4.7l0.3,14.8
	c7.3-3.6,14.3-5,21.4-5c7.9,0,14.3,2.3,14.4,10.9c-2.8-0.5-6.6-0.8-10.2-0.8c-11.6,0-32.6,2.3-32.6,21.6c0,13.7,11.2,19.9,23.7,19.9
	c9,0,15-3.5,20-11.4h0.3c0,3.3,0.4,6.6,0.5,10h20c-1-5-1.2-9.9-1.2-14.9V81.1H241.8z M207.9,106.5c-5.1,0-9-2.5-9-6.9
	c0-6.1,5.9-8.4,13.3-8.4c3.3,0,6.4,0.3,9.2,0.4C221.4,99,216.2,106.5,207.9,106.5z M76.4,56.4H54.7l-13.2,45h-0.2l-13.1-45H4.8
	l23.4,63.2h24.9L76.4,56.4z"/>
<path id="color_red" fill="#FF0000" d="M398.1,47.8c-61.8-30.1-128.4-45.4-198-45.4C130.5,2.4,64,17.7,2.2,47.8l0.5,1.4
	c63-21.7,130-31.8,197.5-31.8c67.4,0,134.5,10.2,197.5,31.8L398.1,47.8z"/>
</svg>
