<?xml version="1.0" encoding="utf-8"?>
<!-- Generator: Adobe Illustrator 24.1.2, SVG Export Plug-In . SVG Version: 6.00 Build 0)  -->
<svg version="1.1" id="sanitas" xmlns="http://www.w3.org/2000/svg" xmlns:xlink="http://www.w3.org/1999/xlink" x="0px" y="0px"
	 viewBox="0 0 400 102.3" enable-background="new 0 0 400 102.3" xml:space="preserve">
<path id="color_green" fill="#00765A" d="M215.5,25.9c6.5,0,11.6-5.2,11.6-11.6c0-6.5-5.4-11.6-11.9-11.6S204,7.8,204,14.3
	S209,25.9,215.5,25.9z M39.1,59l-7.4-2.8c-5.1-1.9-8.2-3-8.2-6c0-2.5,2.2-3.9,6.3-3.9c5.6,0,13.9,1.8,18.8,2.8l2.5-14.5
	c-5.5-1.2-14.9-3.2-24.6-3.2c-13,0-23,7.4-23,20.4c0,10.6,6,15,16.6,18.8l6.3,2.3c5.7,2.1,7.3,2.8,7.3,5.6c0,3.5-4,3.9-7.5,3.9
	c-6,0-14.3-1.9-19.3-2.7L4.1,95c5.5,1.3,15.5,2.9,23.9,2.9c17.1,0,25.8-7.5,25.8-19.5C53.8,71,51.2,63.5,39.1,59z M91.8,31.9
	c-9.2,0-18.5,1.1-26.7,2.9l2.4,14.5c5.5-1.1,12.8-2.2,17.7-2.2c8.8,0,10.5,2.4,10.5,8.1v2.3c-3.4-0.1-6.5-0.4-10.3-0.4
	c-14.2,0-25.2,8-25.2,22.2c0,13.2,9.1,18.5,19,18.5c7.5,0,13-3.8,17.8-7.2l1.8,6.4h17.6V57.2C116.3,37.5,105.2,31.9,91.8,31.9z
	 M95.8,79.4c-3.3,2.2-6.6,3.3-9.8,3.3c-3.6,0-6.6-1.6-6.6-5.3c0-5.6,4-6.9,8.2-7.2c0.6,0,1.2,0,1.9,0c2.1,0,4,0.1,6.4,0.3V79.4z
	 M197.6,47.6h7.9v49.6h20.9V32.7h-28.8V47.6z M170,31.6c-10.7,0-17.8,5.1-23.1,8.9l-1.9-7.8h-16.4v64.5h20.7V55.4
	c2.5-2.5,7.4-5,11.4-5c4,0,6.7,1.3,6.7,7.5v39.4h20.8V53.8C188.1,37.9,181.4,31.6,170,31.6z"/>
<path id="color_green_light" fill="#6AB023" d="M260,75.8V47.6h12.8V32.7H260V15l-20.9,2.7v63.1c0,12.8,8.8,17.2,17.8,17.2
	c4.6,0,10.1-0.7,16.5-2.1V81.1c-3.5,0.7-5.7,1-8,1C261.9,82.1,260,80.5,260,75.8z M312.4,31.9c-9.2,0-18.6,1.1-26.8,2.9l2.5,14.5
	c5.5-1.1,12.8-2.2,17.6-2.2c8.9,0,10.5,2.4,10.5,8.1v2.3c-3.4-0.1-6.5-0.4-10.3-0.4c-14.2,0-25.2,8-25.2,22.2
	c0,13.2,9.1,18.5,19,18.5c7.5,0,13-3.8,17.8-7.2l1.9,6.4h17.5V57.2C336.9,37.5,325.8,31.9,312.4,31.9z M316.3,79.4
	c-3.3,2.2-6.5,3.3-9.8,3.3c-3.6,0-6.7-1.6-6.7-5.3c0-5.6,4.1-6.9,8.3-7.2c0.6,0,1.2,0,1.8,0c2.1,0,4,0.1,6.4,0.3V79.4z M381.8,59
	l-7.3-2.8c-5.1-1.9-8.3-3-8.3-6c0-2.5,2.3-3.9,6.4-3.9c5.5,0,13.9,1.8,18.8,2.8l2.4-14.5c-5.5-1.2-14.9-3.2-24.5-3.2
	c-13,0-23.1,7.4-23.1,20.4c0,10.6,6,15,16.6,18.8L369,73c5.7,2.1,7.3,2.8,7.3,5.6c0,3.5-3.9,3.9-7.4,3.9c-6,0-14.3-1.9-19.3-2.7
	L346.8,95c5.6,1.3,15.5,2.9,23.9,2.9c17.1,0,25.9-7.5,25.9-19.5C396.6,71,393.8,63.5,381.8,59z"/>
</svg>
