<?xml version="1.0" encoding="utf-8"?>
<!-- Generator: Adobe Illustrator 24.1.2, SVG Export Plug-In . SVG Version: 6.00 Build 0)  -->
<svg version="1.1" id="slkk" xmlns="http://www.w3.org/2000/svg" xmlns:xlink="http://www.w3.org/1999/xlink" x="0px" y="0px"
	 viewBox="0 0 400 125.7" enable-background="new 0 0 400 125.7" xml:space="preserve">
<path id="color_red" fill="#E41C3A" d="M78.4,7.5c-7-4.9-18.9-5.9-27-6.5C43.3,0.5,27.1,3.8,19,12.4c-7,7.6-4.3,18.9-3.2,21
	c4.9,12.4,45.9,49.1,48.6,56.7c2.7,7.6-3.2,10.8-13,14c-10.3,3.2-20.5-0.5-23.2-5.4c-2.7-5.4-3.8-11.3-3.8-11.3S16.9,82.5,9.3,82
	c-4.3,0-5.9,2.7-7,4.9c-1.1,3.2-0.5,5.9,0.5,9.2c0.5,2.2,2.2,5.4,3.2,7c1.6,2.2,9.7,18.3,33.5,21c21.6,2.2,37.2-8.6,42.1-13
	c4.3-4.3,8.6-10.8,8.6-18.3c0.5-8.6-4.9-18.3-11.9-24.8c-7.6-7-18.9-17.8-28.1-26.4c-7-6.5-11.3-11.3-10.8-15.1
	c0.5-2.2,1.6-4.3,3.8-5.4c2.7-1.6,5.4-2.7,7.6-2.7c3.2,0,10.8,0,14.6,2.7c5.4,3.2,6.5,9.2,6.5,9.2s1.6,2.2,4.9,3.8
	c1.6,0.5,11.9,3.2,15.1,0.5c3.8-2.7,2.7-8.1,1.6-10.8C91.4,17.8,82.7,10.2,78.4,7.5z M163.1,102c-9.2,0.5-31.3,2.2-31.8,2.2
	c-0.5,0-1.1-0.5-0.5-3.8c0.5-2.7,9.7-37.8,14.6-64.8c2.7-13.5,2.7-23.7,2.7-25.4c-0.5-4.3-8.1-7-10.8-8.1C131.3,0,127,3.2,124.8,7.5
	c-2.2,3.8-3.2,8.6-0.5,9.2c0,8.6-14,59.4-18.3,76.1c-0.5,2.7-2.7,8.6-2.2,14c0.5,5.4,3.8,10.3,5.4,11.9c3.2,4.3,10.3,5.4,16.7,4.9
	c4.3,0,14.6-1.1,23.7-1.6c9.7-0.5,18.3-1.1,19.4-1.1c0.5,0.5,3.8,1.6,5.4-1.1c1.1-1.1,1.6-3.8,1.6-5.4c0-2.2-1.1-7-1.6-8.1
	C171.8,102.5,166.9,102.5,163.1,102z M397.9,116.5c-0.5-1.1-0.5-3.2-0.5-3.8c-4.9-3.2-39.9-42.1-43.7-45.3
	c11.3-9.2,18.9-14.6,27.5-25.9c2.2-3.2,4.3-6.5,7-9.7c0.5-1.1,4.3-5.9,5.9-11.3c0.5-2.7,2.2-8.6,0.5-12.4c-1.1-3.2-5.4-4.9-6.5-5.4
	c-2.2-0.5-4.9,0-5.4,1.6c-1.6,2.7-13,17.3-24.3,28.6c-12.4,12.4-22.7,20-22.1,18.9c0,0,0.5-15.6,0.5-29.1c0-10.3-3.8-15.6-4.9-17.3
	c-1.6-2.7-5.4-3.2-8.1-3.2c-4.3,0-5.9,5.9-5.9,9.7c0,0.5-0.5,3.8-0.5,7c-0.5,2.7-4.9,28.6-8.1,52.9c-1.1,8.1-2.7,16.2-3.8,22.1
	c-1.1,5.9-4.3,15.6-4.3,16.2c-0.5,0-1.6,0-2.2,1.1c-1.1,2.2-1.1,5.9-0.5,8.1c0.5,1.6,3.8,3.2,7,4.3c1.6,0.5,7.6,2.7,11.3,0
	c1.1-0.5,2.2-1.6,3.2-3.8c1.6-2.2,2.7-5.4,3.8-8.6c2.2-5.9,4.3-11.9,4.9-14c1.1-4.9,3.8-13,4.3-17.3c6.5,5.4,29.7,34.5,41.6,41.6
	c5.4,3.2,12.4,4.3,16.7,4.3c1.1,0,2.7,0,3.8-1.1s2.2-2.7,2.7-3.8C398.4,119.2,398.4,117.6,397.9,116.5z M282.4,2.7
	c-3.2-1.1-5.4-1.1-7.6,1.6c-1.1,1.6-9.2,14-20.5,25.4c-5.4,5.4-13,11.9-19.4,16.7c-7,4.9-12.4,8.1-12.4,8.6c0.5-3.2,1.1-6.5,1.1-9.2
	c0.5-4.9,1.6-10.8,1.6-15.6c0.5-7.6,0.5-17.3-3.8-21.6c-0.5-0.5-9.7-7.6-15.1-5.4c-1.6,0.5-3.2,3.2-3.8,6.5c-0.5,2.7-1.1,5.9,1.6,7
	c0,0.5,0,3.8-0.5,8.1c-1.6,11.3-5.4,31.3-7.6,41c-3.2,16.2-7.6,32.4-10.8,48.6c-0.5,4.3-0.5,6.5,3.8,8.6c1.6,0.5,7,2.7,10.8,2.7
	c1.1,0,3.8-0.5,5.4-3.2c2.2-4.3,4.3-9.7,5.4-12.4c2.2-5.9,3.8-11.9,4.9-17.8c1.1-4.9,3.2-13,3.2-13s8.1,9.7,18.9,20.5
	c9.7,9.7,20.5,18.3,23.2,20.5c8.1,4.9,17.8,4.9,21,3.8c4.9-1.6,4.9-7,4.3-9.2c-1.1-4.9-4.9-7-6.5-5.9c-0.5-0.5-11.3-9.7-20.5-19.4
	c-9.7-10.3-17.8-20.5-17.8-20.5c7.6-4.9,15.1-10.8,22.1-17.3c3.2-2.7,9.7-9.7,14.6-17.3c4.9-7.6,7.6-13.5,9.2-16.7
	c1.1-3.2,1.6-7.6,0-10.8C286.2,4.3,283.5,3.2,282.4,2.7z"/>
</svg>
