<?xml version="1.0" encoding="utf-8"?>
<!-- Generator: Adobe Illustrator 24.1.2, SVG Export Plug-In . SVG Version: 6.00 Build 0)  -->
<svg version="1.1" id="steffisburg" xmlns="http://www.w3.org/2000/svg" xmlns:xlink="http://www.w3.org/1999/xlink" x="0px"
	 y="0px" viewBox="0 0 400 66.4" enable-background="new 0 0 400 66.4" xml:space="preserve">
<path id="color_blue" fill="#0071B9" d="M263,17.9c3.3,1.9,3.8,3.1,3.8,4.9c0,2-1.6,3.9-4.3,3.9c-1.4,0-3.3-0.7-4.6-1.5v3.2
	c1.4,0.7,3.2,1.1,5.1,1.1c4.6,0,7.1-3,7.1-6.9c0-2.8-1.3-4.9-5-7.1c-3.5-2-4.1-3-4.1-4.5c0-2,1.4-3.6,3.8-3.6c1.5,0,3,0.5,4.2,1.2
	l0-3.2c-1.1-0.4-2.7-0.8-4.3-0.8c-3.7,0-6.8,2.1-6.8,6.1C257.7,13.7,258.7,15.3,263,17.9z M310.5,13.9v15.4h2.9V13.9h3.2v-2.3h-3.2
	V7.8c0-1.8,0.5-2.7,2.1-2.7c0.7,0,1.3,0.1,1.6,0.4V3c-0.7-0.2-1.5-0.3-2.3-0.3c-3.1,0-4.4,1.9-4.4,4.8v4h-2.8v2.4H310.5L310.5,13.9z
	 M290.3,29.5c1.7,0,3.6-0.4,4.9-1.1l-0.1-2.6c-1,0.7-2.6,1.4-4.1,1.4c-3.2,0-4.8-1.9-4.8-6h9.9v-1.5c0-5.2-2.2-8.4-6.2-8.4
	c-4.4,0-6.9,3.5-6.9,9.1C283.1,25.9,285.6,29.5,290.3,29.5z M289.8,13.5c2.3,0,3.5,1.8,3.5,5.5h-7.1C286.2,14.9,288,13.5,289.8,13.5
	z M275,25.3c0,3.2,1.4,4.3,4.1,4.3c0.9,0,1.8-0.2,2.5-0.5l0-2.5c-0.6,0.3-1.1,0.5-1.8,0.5c-1.4,0-1.8-0.8-1.8-2.8V13.8h3.7v-2.3
	h-3.7V7L275,7.9v3.6h-2.8v2.4h2.8V25.3z M300.8,13.9v15.4h2.9V13.9h3.2v-2.3h-3.2V7.8c0-1.8,0.5-2.7,2.1-2.7c0.7,0,1.3,0.1,1.6,0.4
	V3c-0.7-0.2-1.5-0.3-2.3-0.3c-3.1,0-4.4,1.9-4.4,4.8v4h-2.8v2.4H300.8L300.8,13.9z M341.9,26.6L341.9,26.6c0.9,1.4,2.1,2.9,4.7,2.9
	c3.6,0,6.1-3,6.1-9.1s-2.4-9.1-6.1-9.1c-2,0-3.4,0.9-4.5,2.7H342V3.2h-2.9v22.7c0,1.1-0.1,2.2-0.1,3.3h2.8L341.9,26.6z M345.9,13.6
	c2.6,0,3.9,2.3,3.9,6.8c0,4.4-1.2,6.8-3.9,6.8c-2.7,0-3.9-2.3-3.9-6.8C342.1,15.9,343.2,13.6,345.9,13.6z M361.3,29.6
	c2,0,3.5-0.9,4.4-2.9h0.1l0.1,2.6h2.8c0-1.3-0.1-2.6-0.1-3.9h-0.1V11.5h-2.9v10.6c0,3.2-1.4,4.8-3.8,4.8c-1.8,0-2.9-1.3-2.9-4.1
	V11.5h-2.9v12.4C356.1,27.8,358.2,29.6,361.3,29.6z M372.9,29.3h2.9v-9.4c0-3.9,1.6-5.8,3.9-5.8c0.4,0,0.8,0,1.2,0.1v-2.9
	c-2.6,0-4.1,0.9-5,3h-0.1l-0.1-2.8h-2.8c0,1.3,0.1,2.6,0.1,3.9V29.3z M329.9,27.1c-1.4,0-2.8-0.6-4.2-1.4l-0.1,2.6
	c1.4,0.7,3,1.1,4.8,1.1c4.1,0,5.7-2.4,5.7-5.5c0-2.2-1.4-3.7-3.5-4.5l-1.1-0.4c-1.9-0.8-3-1.5-3-3c0-1.4,1-2.4,2.9-2.4
	c1.4,0,2.6,0.4,3.5,0.8l0.1-2.5c-1.1-0.3-2.3-0.6-3.8-0.6c-3.5,0-5.7,2.2-5.7,5.1c0,2.2,1,3.4,3.5,4.5l1.9,0.9
	c1.6,0.8,2.2,1.5,2.2,2.8C333.3,26,332.1,27.1,329.9,27.1z M322,29.3V11.5h-2.9v17.8H322z M322.2,4.2H319v3.5h3.2V4.2z M43.2,16.4
	v12.8h6.3v-9c0-2.4,1.4-4.2,3.4-4.2c0.7,0,1.5,0.1,1.8,0.2v-5.4c-0.4-0.1-0.6-0.1-1.1-0.1c-3,0-4.2,2-4.6,3.5h-0.1c0-1,0-2.2-0.1-3
	h-5.9C43,12,43.1,13.8,43.2,16.4L43.2,16.4z M61.5,29.6c2.2,0,3.6-0.9,5.4-2.9c0,0.9,0.1,1.6,0.2,2.5h5.6c-0.1-1.1-0.2-2.5-0.2-4
	v-7.9c0-3.7-1.3-6.7-7.6-6.7c-3,0-5.3,0.6-6.8,1.2l0.2,4.4c1.4-0.9,3.3-1.7,5.2-1.7c2.4,0,3.4,1.4,3.4,2.5v0.6h-1.6
	c-6.3,0-9.3,2.1-9.3,6.2C55.9,27.2,58.3,29.6,61.5,29.6z M66.1,20.5h0.7v0.6c0,1.7-0.3,4.6-3.2,4.6c-1.3,0-2.1-0.6-2.1-2.2
	C61.5,21.3,63.3,20.5,66.1,20.5z M76.6,29.2h6.3v-9.9c0-1.8,0.7-3.5,2.2-3.5c1.3,0,1.7,0.9,1.7,2.6v10.7h6.3V16.4
	c0-4-2.4-5.8-5.5-5.8c-3.6,0-4.7,2.5-5.1,3.5h-0.1c0-1,0-2.2-0.1-3h-5.9c0.1,0.8,0.2,2.3,0.2,3.7V29.2z M28.8,29.3v-11h0.1l5.4,11
	h7.6l-7.5-12.9l7-11.3h-7.1l-5.3,9.8h-0.1V5V4.7H2.3v24.5h19.9H28.8z M103.8,20.8L103.8,20.8l4,8.5h7l-5.5-9.9l5-8.3h-6.3l-4.1,7.3
	h-0.1V3.2h-6.3v26.1h6.3V20.8z M2.1,35.6h380l0.8-1.9H2.1V35.6z M393.3,11.5l-0.1,2.6h-0.1c-1-1.6-2.6-2.8-4.3-2.8
	c-4,0-6.5,3-6.5,9.1c0,6.1,2.4,9.1,6.1,9.1c1.9,0,3.5-1,4.6-3h0.1v2.8c0,3.1-1.4,5.2-4.9,5.2c-1.3,0-2.8-0.5-4-1.1l-1,2.5
	c1.3,0.5,3.7,1.1,5.1,1.1c3.9,0,7.5-2,7.5-7l0.1-15.4c0-1.1,0.1-2.1,0.1-3.2H393.3z M389.1,27.1c-2.7,0-3.9-2.3-3.9-6.8
	c0-4.4,1.3-6.8,3.9-6.8s3.9,2.3,3.9,6.8C393,24.8,391.8,27.1,389.1,27.1z M237.8,29.6c2.6-0.1,4.9-0.6,6.4-1.1l-0.1-4.3
	c-1.5,0.7-3.6,1.4-5.3,1.4c-2.3,0-4.3-0.9-4.5-3.8h10.8v-1.7c0-5-2.6-9.5-8.3-9.5c-5.4,0-8.4,4.4-8.4,9.4
	C228.4,24.7,230.5,29.6,237.8,29.6z M237,14.6c1.8,0,2.5,1.2,2.5,3.6v0.5h-5.3C234.2,16.2,235.2,14.6,237,14.6z M182.9,29.6
	c2.2,0,3.6-0.9,5.4-2.9c0,0.9,0.1,1.6,0.2,2.5h5.6c-0.1-1.1-0.2-2.5-0.2-4v-7.9c0-3.7-1.3-6.7-7.6-6.7c-3,0-5.3,0.6-6.8,1.2l0.2,4.4
	c1.4-0.9,3.3-1.7,5.2-1.7c2.4,0,3.4,1.4,3.4,2.5v0.6h-1.6c-6.3,0-9.3,2.1-9.3,6.2C177.4,27.2,179.7,29.6,182.9,29.6z M187.5,20.5
	h0.7v0.6c0,1.7-0.3,4.6-3.2,4.6c-1.3,0-2.1-0.6-2.1-2.2C182.9,21.3,184.7,20.5,187.5,20.5z M201,21.7l1.9,0.7c1.5,0.6,2,1,2,1.5
	c0,0.8-0.9,1.3-2.6,1.3c-2.2,0-3.8-0.8-4.7-1.3l-0.1,4.9c1,0.4,3.5,0.9,5.5,0.9c5.3,0,7.7-2.2,7.7-6c0-3.2-1.4-4.3-3.6-5.1l-2.1-0.8
	c-1.5-0.6-2.1-1.1-2.1-1.6c0-1,1-1.4,2.2-1.4c1.5,0,3.3,0.7,4.4,1.2l0.2-4.5c-1.3-0.5-3.2-0.9-5-0.9c-5.5,0-7.5,2.8-7.5,6
	C197.3,18.9,198.1,20.7,201,21.7z M216.4,21.7l1.9,0.7c1.5,0.6,2,1,2,1.5c0,0.8-0.9,1.3-2.6,1.3c-2.2,0-3.8-0.8-4.7-1.3l-0.1,4.9
	c1,0.4,3.5,0.9,5.5,0.9c5.3,0,7.7-2.2,7.7-6c0-3.2-1.4-4.3-3.6-5.1l-2.1-0.8c-1.5-0.6-2.1-1.1-2.1-1.6c0-1,1-1.4,2.2-1.4
	c1.5,0,3.3,0.7,4.4,1.2l0.2-4.5c-1.3-0.5-3.2-0.9-5-0.9c-5.5,0-7.5,2.8-7.5,6C212.6,18.9,213.5,20.7,216.4,21.7z M136.6,29.2h6.3
	v-9.9c0-1.8,0.7-3.5,2.2-3.5c1.3,0,1.7,0.9,1.7,2.6v10.7h6.3V16.4c0-4-2.4-5.8-5.5-5.8c-3.6,0-4.7,2.5-5.1,3.5h-0.1c0-1,0-2.2-0.1-3
	h-5.9c0.1,0.8,0.2,2.3,0.2,3.7V29.2z M125.6,29.6c2.6-0.1,4.9-0.6,6.4-1.1l-0.1-4.3c-1.5,0.7-3.6,1.4-5.3,1.4
	c-2.3,0-4.3-0.9-4.5-3.8h10.8v-1.7c0-5-2.6-9.5-8.3-9.5c-5.4,0-8.4,4.4-8.4,9.4C116.1,24.7,118.3,29.6,125.6,29.6z M124.7,14.6
	c1.8,0,2.5,1.2,2.5,3.6v0.5h-5.3C121.9,16.2,123,14.6,124.7,14.6z M163.8,20.8l3.9,8.5h7l-5.5-9.9l5.1-8.3H168l-4.2,7.3V3.2h-6.3
	v26.1h6.3V20.8z"/>
<path id="color_black" d="M201.5,57.6h2l2.3-10.8h-2L201.5,57.6z M213.8,46.5c-4.1,0-6.2,2.9-6.2,6.5c0,3.2,1.9,4.8,4.9,4.8
	c4,0,6.1-2.9,6.1-6.6C218.6,48.2,216.7,46.5,213.8,46.5z M212.4,56.2c-1.8,0-2.7-1.4-2.8-3.1c0-2.2,1.3-5,4-5c1.8,0,2.8,1.4,2.8,3.1
	C216.4,53.7,214.7,56.2,212.4,56.2z M227.6,46.6c-1.8,0-3,0.9-3.7,1.9l0.4-1.7h-1.8c-0.1,0.6-0.2,1.2-0.3,1.6l-2.1,9.3h2l1.2-5.5
	c0.3-1.4,1.4-4.1,4-4.1c1.2,0,1.9,0.8,1.9,1.9c0,0.3,0,0.7-0.1,1.1l-1.4,6.5h2l1.2-5.7c0.2-0.6,0.3-1.3,0.3-1.9
	C231.2,47.6,229.7,46.6,227.6,46.6z M204.2,44.3h2.2l0.5-2.2h-2.2L204.2,44.3z M172,48.5l0.4-1.7h-1.8c-0.1,0.6-0.2,1.2-0.3,1.6
	l-1.9,9.3h1.7l1.2-5.3c0.3-1.4,1.4-4.1,4-4.1c0.2,0,0.5,0,0.9,0.2l0.5-1.7c-0.3-0.2-0.7-0.2-0.9-0.2C173.8,46.6,172.6,47.4,172,48.5
	z M28.5,49.7c0,2.7,3.7,3,3.7,4.8c0,1.2-1.3,1.6-2.3,1.6c-0.9,0-1.7-0.3-2.5-0.6L27,57.4c0.9,0.3,1.4,0.5,3.2,0.5
	c1.6,0,4.1-0.9,4.1-3.5c0-3-3.7-3.1-3.7-4.9c0-1.2,1.2-1.4,2-1.4c0.7,0,1.5,0.3,2.1,0.6l0.7-1.5c-0.9-0.4-1.8-0.6-2.8-0.6
	C30.8,46.6,28.5,47.4,28.5,49.7z M23.5,46.7l-5,4.3l2-9.4h-2l-3.4,15.9h2l1.2-5.5l3.9,5.5h2.6l-4.4-6l6.2-4.8H23.5z M42.7,43.5
	l-2.1,0.8l-0.5,2.5h-2.4l-0.2,1.5h2.4l-1,4.5c-0.1,0.6-0.4,1.8-0.4,2.5c0,1.2,0.7,2.4,2.6,2.4c0.6,0,1.4,0,1.9-0.2l0.3-1.6
	c-0.4,0.2-1.1,0.3-1.4,0.3c-1.1,0-1.4-0.4-1.4-1.2c0-0.4,0.2-1.5,0.3-2l1-4.6h3l0.3-1.6h-3L42.7,43.5z M10.8,46.7l-5,4.3l2-9.4h-2
	L2.4,57.6h2l1.2-5.5l3.9,5.5h2.6l-4.4-6l6.2-4.8H10.8z M51.6,53.4c0,3,1.9,4.5,4.8,4.5c0.8,0,1.4-0.1,2.1-0.3l0.4-1.8
	c-0.7,0.3-1.5,0.5-2.2,0.5c-1.8,0-2.9-1.2-2.9-3.2c0-2.6,1.5-4.9,4.2-4.9c0.6,0,1.3,0.1,1.9,0.5l0.4-1.7c-0.8-0.2-1.6-0.4-2.8-0.4
	C53.7,46.6,51.6,49.7,51.6,53.4z M197.9,48.7c-0.7-1.4-2.1-2.1-3.6-2.1c-3.2,0-5.5,2.8-5.5,6.8c0,2.8,2.1,4.3,4.1,4.3
	c1.7,0,2.5-0.5,3.2-1.3l-0.3,1.2c-0.4,1.7-1.4,3.2-3.8,3.2c-1.2,0-2.5-0.4-3.5-1l-0.5,1.7c1.3,0.6,3,0.8,3.7,0.8
	c3.3,0,5.3-1.8,5.8-4l2.5-11.6h-1.7L197.9,48.7z M193.4,55.9c-1.7,0-2.4-1.4-2.4-2.9c0-2,1.2-5,3.5-5c1.7,0,2.7,1.4,2.7,3
	C197.2,54.6,195.1,55.9,193.4,55.9z M182.8,46.5c-3.8,0-5.9,3.5-5.9,6.5c0,3.9,2.4,4.9,5,4.9c1.1,0,2.1-0.2,3.2-0.5l0.3-1.9
	c-1,0.4-2.1,0.7-3.1,0.7c-1.9,0-3.4-0.6-3.4-2.9c0-0.2,0.1-0.5,0.1-0.7h7.6c0.1-0.6,0.2-1.3,0.2-1.9C186.8,48,185.4,46.5,182.8,46.5
	z M184.8,51.1L184.8,51.1l-5.5-0.1c0.4-1.5,1.6-3,3.3-3c1.5,0,2.3,1,2.3,2.2C184.9,50.5,184.8,50.8,184.8,51.1z M69.2,46.5
	c-1.4,0-2.6,0.6-3.4,1.6l1.4-6.5h-2l-3.5,15.9h2l1.2-5.5c0.3-1.4,1.4-4.1,4-4.1c1.2,0,1.9,0.8,1.9,1.9c0,0.3,0,0.7-0.1,1.1l-1.4,6.5
	h2l1.2-5.7c0.2-0.6,0.3-1.3,0.3-1.9C72.8,47.5,71.3,46.5,69.2,46.5z M46.4,57.6h2.4l0.5-2.3h-2.4L46.4,57.6z M354.1,52.2
	c-0.3,1.4-1.4,4.1-4,4.1c-1.2,0-1.9-0.8-1.9-1.9c0-0.3,0-0.7,0.1-1.1l1.4-6.5h-2l-1.2,5.7c-0.2,0.6-0.3,1.3-0.3,1.9
	c0,2.3,1.4,3.4,3.6,3.4c1.8,0,3-0.9,3.7-1.9l-0.4,1.7h1.8c0.1-0.6,0.2-1.2,0.3-1.6l2.1-9.3h-2L354.1,52.2z M329.4,44.3h2.2l0.5-2.2
	h-2.2L329.4,44.3z M342,48.6c-0.6-1.4-2-2-3.5-2c-3.7,0-5.6,3.4-5.6,6.8c0,2.4,1.4,4.5,4.1,4.5c1.6,0,2.9-0.5,3.7-1.9
	c-0.2,0.6-0.3,1.2-0.4,1.6h1.8c0.1-1.2,0.3-2.3,0.6-3.6l2.8-12.3h-2L342,48.6z M337.5,56.2c-1.8,0-2.7-1.4-2.6-3.1c0-2,1.3-5,3.6-5
	c1.7,0,2.7,1.4,2.7,3C341.2,53.1,340,56.2,337.5,56.2z M326.7,57.6h2l2.3-10.8h-2L326.7,57.6z M364.6,46.5c-3.8,0-5.9,3.5-5.9,6.5
	c0,3.9,2.4,4.9,5,4.9c1.1,0,2.1-0.2,3.2-0.5l0.3-1.9c-1,0.4-2.1,0.7-3.1,0.7c-1.9,0-3.4-0.6-3.4-2.9c0-0.2,0.1-0.5,0.1-0.7h7.6
	c0.1-0.6,0.2-1.3,0.2-1.9C368.6,48,367.2,46.5,364.6,46.5z M366.6,51.1L366.6,51.1l-5.5-0.1c0.4-1.5,1.6-3,3.3-3
	c1.5,0,2.3,1,2.3,2.2C366.7,50.5,366.6,50.8,366.6,51.1z M376.3,57.6h2l3.4-15.9h-2L376.3,57.6z M238.6,46.5c-0.8,0-2,0.3-3,0.6
	l-0.4,2c0.9-0.5,2.1-0.9,3.3-0.9c1.4,0,2.5,0.6,2.5,2.1c0,0.2-0.1,0.5-0.1,0.7c-0.5-0.1-1.1-0.1-1.4-0.1c-3.6,0-6.4,0.9-6.4,4
	c0,2,1.6,3,3.5,3c1.4,0,2.9-0.8,3.6-2l-0.4,1.8h1.7c0.3-1.9,0.8-4,1.2-6c0.1-0.6,0.2-1.3,0.2-1.7C242.9,47.3,240.8,46.5,238.6,46.5z
	 M237,56.2c-0.9,0-1.7-0.5-1.7-1.4c0-2,2.2-2.4,3.8-2.4h1.5C240.2,54.2,239,56.2,237,56.2z M382.5,55.2l-0.5,2.3h2.4l0.5-2.3H382.5z
	 M370.4,57.6h2l3.4-15.9h-2L370.4,57.6z M324.8,46.7l-4.8,8.8h-0.1l-1.1-8.8h-2.1l1.7,10.8h2.3l6.2-10.8H324.8z M281,44.3h2.2
	l0.5-2.2h-2.2L281,44.3z M268.7,49.5c-0.3,1.4-0.7,2.8-1.7,4l-2.1-3.6c2-0.8,4.2-1.7,4.2-4.3c0-2.3-1.9-3.3-4-3.3
	c-2,0-4.2,1.4-4.2,3.6c0,1.3,0.4,2.2,1.2,3.2c-2.1,0.5-4.3,1.9-4.3,4.4c0,2.7,1.9,4.2,5,4.2c1.4,0,2.9-0.5,3.9-1.4l0.7,1.2h2.3
	l-1.6-2.5c1.5-1.4,2.2-3.5,2.6-5.5H268.7z M265,44c1.1,0,2,0.6,2,1.8c0,1.6-2,2.4-3.3,2.7c-0.5-0.8-1-1.4-1-2.4
	C262.8,44.8,263.8,44,265,44z M262.6,56.2c-1.5,0-2.8-1.1-2.8-2.7c0-1.7,1.5-2.5,3-2.9l2.8,4.3C264.6,55.9,263.3,56.2,262.6,56.2z
	 M278.2,57.6h2l2.3-10.8h-2L278.2,57.6z M245.2,57.6h2l3.4-15.9h-2L245.2,57.6z M306.5,48.6c-0.6-1.4-2-2-3.5-2
	c-3.7,0-5.6,3.4-5.6,6.8c0,2.4,1.4,4.5,4.1,4.5c1.6,0,2.9-0.5,3.7-1.9c-0.2,0.6-0.3,1.2-0.4,1.6h1.8c0.1-1.2,0.3-2.3,0.6-3.6
	l2.8-12.3h-2L306.5,48.6z M302.1,56.2c-1.8,0-2.6-1.4-2.6-3.1c0-2,1.3-5,3.6-5c1.7,0,2.7,1.4,2.7,3
	C305.7,53.1,304.6,56.2,302.1,56.2z M310.1,57.6h2l2.3-10.8h-2L310.1,57.6z M312.9,44.3h2.2l0.5-2.2h-2.2L312.9,44.3z M291.3,46.6
	c-1.8,0-3,0.9-3.7,1.9l0.4-1.7h-1.8c-0.1,0.6-0.2,1.2-0.3,1.6l-2.1,9.3h2l1.2-5.5c0.3-1.4,1.4-4.1,4-4.1c1.2,0,1.9,0.8,1.9,1.9
	c0,0.3,0,0.7-0.1,1.1l-1.4,6.5h2l1.2-5.7c0.2-0.6,0.3-1.3,0.3-1.9C294.9,47.6,293.5,46.6,291.3,46.6z"/>
</svg>
