<?xml version="1.0" encoding="utf-8"?>
<!-- Generator: Adobe Illustrator 24.1.2, SVG Export Plug-In . SVG Version: 6.00 Build 0)  -->
<svg version="1.1" id="sumiswalder" xmlns="http://www.w3.org/2000/svg" xmlns:xlink="http://www.w3.org/1999/xlink" x="0px"
	 y="0px" viewBox="0 0 400 55.9" enable-background="new 0 0 400 55.9" xml:space="preserve">
<path id="color_orange" fill="#F6921E" d="M361.3,21.4c-9.1,0-16.3,7.5-16.3,16.3c0,9.1,7.5,16.3,16.3,16.3c3,0,5.8-0.7,8.4-2.3
	l0.5-0.2V39.1l-1.2,0.7c0,0-3.3,2.1-7.5,2.1c-1.2,0-2.3-0.2-3.3-0.5L375.5,30l0.5-0.5l-0.5-0.7C372.5,24.4,367.1,21.4,361.3,21.4z
	 M369.2,51.2L369.2,51.2C369.2,51.2,369.2,51.2,369.2,51.2L369.2,51.2z M355.7,40c-0.5-1.4-0.7-4.2,1.6-6.3c0.9-0.7,2.1-1.2,3.3-1.2
	c1.4,0,2.6,0.5,3.3,0.9L355.7,40z M10.5,33.3c-1.4,7.9-7.5,8.9-7.7,8.9H2.1v11.7h0.7c12.6,0,15.2-7,17.3-12.6
	c0.2-0.5,0.5-1.2,0.7-1.6c2.1-5.4,7-5.8,7.2-5.8h0.7V22.1h-1.4C21.5,22.1,11.9,25.1,10.5,33.3z M2.8,53.3v-0.2h0.2
	c2.9,0,5.2-0.4,7.1-1C8.3,52.8,5.9,53.3,2.8,53.3z M265,20.9c-9.1,0-16.3,7.5-16.3,16.3c0,9.1,7.5,16.3,16.3,16.3
	c3.3,0,6.3-0.9,9.1-2.8v3h7.5V37.2C281.3,28.4,274.1,20.9,265,20.9z M265,42.8c-3,0-5.6-2.6-5.6-5.6c0-3,2.6-5.6,5.6-5.6
	c3,0,5.6,2.6,5.6,5.6C270.6,40.5,268,42.8,265,42.8z M68.4,21.8H54.9v14c0,0,0,2.6-1.2,4c-0.7,0.7-1.6,0.9-2.8,0.9
	c-1.2,0-2.1-0.2-2.8-0.9c-1.2-1.2-1.4-3.3-1.4-4v-14H33.6v18c0,0.2,0,5.8,4.2,10c3,3,7.5,4.7,13.3,4.7s10.3-1.6,13.3-4.7
	c4.2-4.2,4-9.8,4-10V21.8z M398.6,20.2c-18.9,0-20.3,15.4-20.3,15.6v17.5h12.8v-14c0-6.3,7.5-6.8,7.7-6.8h0.2V20.2H398.6z
	 M243.5,22.1h-0.7l-11.7-0.2h-0.7v13.8c0,0.2,0,5.3-4.3,5.4c-3.9-0.1-4.1-4.9-4.1-5.1v-14h-12.8v14c0,0,0.1,1.2-0.3,2.4
	c-0.2,0.6-0.5,1.1-0.9,1.6c-0.7,0.7-1.6,1.1-2.9,1.2c-1.1,0-2.2-0.5-2.9-1.2c-1.4-1.4-1.4-4-1.4-4V22.1h-13.5v17.7
	c0,0.2,0.2,12.4,12.8,14.2c1.4,0.2,3,0.5,4.2,0.5c6.8,0,10.3-3,11.7-4.4c1.2,1.6,4.4,4.7,11,4.7c1.4,0,2.8-0.2,4.4-0.5
	c13.1-3.5,12.4-13.5,12.1-14.2V22.1z M204.6,53.8c-0.1,0-0.3,0-0.4,0c7.4,0,10.7-3.3,11.6-4.7c0,0,0,0.1,0.1,0.1
	C214.8,50.6,211.6,53.8,204.6,53.8z M231.2,53.3c-0.1,0-0.2,0-0.3,0.1c0,0,0.1,0,0.1-0.1c10.7-3,11.9-10.2,11.9-12.9
	C242.9,42.6,242.3,50.3,231.2,53.3z M288.1,53.8h13.3V2.2h-13.3V53.8z M327.3,21.6c-1.2-0.2-2.3-0.5-3.5-0.5
	c-9.1,0-16.6,7.5-16.6,16.6s7.5,16.6,16.6,16.6c4.4,0,8.4-1.6,11.4-4.7c3-3,4.9-7,4.9-11.4V2.7h-12.8V21.6z M329.3,37.5
	c0,3.3-2.6,5.6-5.6,5.6s-5.6-2.6-5.6-5.6c0-3,2.6-5.6,5.6-5.6S329.3,34.4,329.3,37.5z M123.5,24.3c-0.1-0.1-0.2-0.1-0.2-0.1
	c-0.1,0-0.2-0.1-0.2-0.1c-1.6-1-3.7-1.8-6.2-2.2c-1.4-0.2-3-0.2-4.2-0.2c-6.7,0-10.1,2.9-11.6,4.4c-0.1-0.1-0.2-0.3-0.4-0.5
	c-1.2-1.9-4.4-4.4-10.2-4.4c-1.4,0-2.8,0.2-4.4,0.5C73,25.1,73.7,35.1,74,35.8v18h12.8v-14c0-0.2,0-5.1,4.2-5.1c4,0,4.2,4.9,4.2,5.1
	v14h12.6V40c0,0,0-2.6,1.4-4.2c0.7-0.7,1.5-1.1,2.8-1.1c1.1,0.1,2.2,0.5,2.8,1.1c1.4,1.4,1.4,4,1.4,4v14h13.5V36.1
	C129.7,35.9,129.7,28.3,123.5,24.3z M74.2,35.2c0-1.7,0.3-6.4,5.1-9.9C74.7,28.8,74.2,33.3,74.2,35.2z M112.2,21.9
	c0.2,0,0.5,0,0.7,0c0.1,0,0.1,0,0.2,0C112.8,21.8,112.5,21.8,112.2,21.9z M113.2,21.8c1.1,0,2.4,0,3.8,0.2
	C115.7,22,114.5,21.8,113.2,21.8z M163.8,33.3c-1.4,7.9-7.5,8.9-7.7,8.9h-0.7v11.7h0.7c12.6,0,15.2-7,17.3-12.6
	c0.2-0.5,0.5-1.2,0.7-1.6c2.1-5.4,7-5.8,7.2-5.8h0.7V22.1h-1.4C174.7,22.1,165.2,25.1,163.8,33.3z M156.1,53.3v-0.2h0.2
	c2.9,0,5.2-0.4,7.1-1C161.5,52.8,159.1,53.3,156.1,53.3z M136,53.8h13.5v-32H136V53.8z"/>
</svg>
