<svg id="Ebene_1" data-name="Ebene 1" xmlns="http://www.w3.org/2000/svg" viewBox="0 0 283.46 96.38"><defs><style>.cls-1{fill:#ed1b2f;}</style></defs><path class="cls-1" d="M127.26,44.38a10.24,10.24,0,0,1,5.9-1.75,9.72,9.72,0,0,1,7,2.56q2.65,2.56,2.66,7.31V74.73h-7V54.56q0-6-5.31-6a6,6,0,0,0-4.65,2.06Q124,52.69,124,56.93v17.8h-7V54.56q0-6-5.31-6a6,6,0,0,0-4.69,2.1q-1.87,2.09-1.87,6.33V74.73H98.25V43.38h5.62l.81,6.06a9.77,9.77,0,0,1,3.72-5,10.22,10.22,0,0,1,6-1.78,9.66,9.66,0,0,1,5.78,1.72,8.56,8.56,0,0,1,3.27,4.9,10.41,10.41,0,0,1,3.85-4.87" transform="translate(0 0)"/><path class="cls-1" d="M232.32,44.41a11.27,11.27,0,0,1,6.34-1.78,9.64,9.64,0,0,1,7.12,2.69,10,10,0,0,1,2.68,7.43v22H241.4V54.62a6.69,6.69,0,0,0-1.34-4.46,5,5,0,0,0-4-1.6,6.91,6.91,0,0,0-5.18,2.06q-2,2.07-2,6.37V74.73h-6.93V43.38h5.62l.81,6.06a10.25,10.25,0,0,1,4-5" transform="translate(0 0)"/><path class="cls-1" d="M199.53,69.92c-5.38,0-7.6-4.55-7.6-11s2.8-11,7.6-11c4.39,0,7.6,4.51,7.6,11s-2.51,11-7.6,11m8.89-26.54-1.29,4.81A7.6,7.6,0,0,0,203.74,44a10.64,10.64,0,0,0-5.5-1.37,12.22,12.22,0,0,0-7.09,2.09,13.51,13.51,0,0,0-4.68,5.87,21.42,21.42,0,0,0-1.66,8.65q0,7.24,3.38,11.74t9.61,4.5A10.31,10.31,0,0,0,204,73.54a9.22,9.22,0,0,0,3.56-4.68l.81,5.87H214V43.38Z" transform="translate(0 0)"/><path class="cls-1" d="M165.15,48.19c5.38,0,7.6,4.55,7.6,11s-2.8,11-7.6,11c-4.43,0-7.6-4.51-7.6-11s2.72-11,7.6-11M157.63,92V70.67a8.25,8.25,0,0,0,3.31,3.44,10.61,10.61,0,0,0,5.5,1.37,12.22,12.22,0,0,0,7.09-2.09,13.58,13.58,0,0,0,4.68-5.87,21.42,21.42,0,0,0,1.65-8.65q0-7.24-3.37-11.74a11.29,11.29,0,0,0-9.61-4.5,10.31,10.31,0,0,0-6.19,1.94,9.22,9.22,0,0,0-3.56,4.68l-.81-5.87H150.7V92Z" transform="translate(0 0)"/><path class="cls-1" d="M46.6,70.55a6.34,6.34,0,0,0,3.95-1.07,3.51,3.51,0,0,0,1.56-3.12,3.12,3.12,0,0,0-.9-2.4,6.32,6.32,0,0,0-2.31-1.31c-.94-.32-2.22-.66-3.84-1a43.54,43.54,0,0,1-5.41-1.53,8.17,8.17,0,0,1-3.56-2.63,7.87,7.87,0,0,1-1.46-5,8.67,8.67,0,0,1,3.31-7.19,13.28,13.28,0,0,1,8.49-2.62q5.31,0,8.34,2.28a9.63,9.63,0,0,1,3.68,7h-6.3a4.37,4.37,0,0,0-1.63-3.14,5.94,5.94,0,0,0-4-1.28,6.1,6.1,0,0,0-3.9,1.13,3.83,3.83,0,0,0-1.41,3.18,3.15,3.15,0,0,0,.91,2.37,5.31,5.31,0,0,0,2.25,1.28,38.74,38.74,0,0,0,3.84.91,34.7,34.7,0,0,1,5.46,1.5,8.51,8.51,0,0,1,3.59,2.68,8.1,8.1,0,0,1,1.5,5.19,8.43,8.43,0,0,1-3.46,7.15,14.68,14.68,0,0,1-9,2.59c-8.75,0-12.12-5.46-12.4-9.33h6.51c.28,1.58,2.1,4.4,6.25,4.4" transform="translate(0 0)"/><path class="cls-1" d="M93.54,31.81A48.2,48.2,0,1,0,48.2,96.38c.79,0,1.58,0,2.36-.06v-6.9c-.78,0-1.57.07-2.36.07A41.3,41.3,0,0,1,19,19,41.35,41.35,0,0,1,86.15,31.81Z" transform="translate(0 0)"/><polygon class="cls-1" points="276.51 43.38 267.02 66.45 258.58 43.38 251.31 43.38 263.38 75.2 256.44 91.79 263.39 91.79 283.46 43.38 276.51 43.38"/><polygon class="cls-1" points="86.78 43.38 77.29 66.45 68.86 43.38 61.59 43.38 73.65 75.2 64.8 96.38 71.76 96.38 93.74 43.38 86.78 43.38"/></svg>