<?xml version="1.0" encoding="UTF-8"?>
<svg xmlns="http://www.w3.org/2000/svg" version="1.1" viewBox="0 0 616.134 289.3835">
  <defs>
    <style>
      .cls-1 {
        fill: #fff;
      }

      .cls-2 {
        fill: #e30613;
      }
    </style>
  </defs>
  <!-- Generator: Adobe Illustrator 28.7.1, SVG Export Plug-In . SVG Version: 1.2.0 Build 142)  -->
  <g>
    <g id="Ebene_1">
      <g>
        <rect class="cls-2" x=".0005" y="0" width="616.1329" height="289.3836"/>
        <g>
          <path class="cls-1" d="M242.1932,136.6175c-14.922,0-31.848,7.059-31.848,24.279,0,26.992,36.786,18.073,36.786,30.707,0,5.163-5.2271,6.003-10.535,6.003-9.325,0-18.497-3.182-24.523-5.759l-1.155,19.422c7.605,2.442,15.536,3.543,27.163,3.543,16.931,0,34.819-4.996,34.819-24.947,0-28.405-38.439-19.246-38.439-30.86,0-4.157,6.333-5.186,11.934-5.186,6.451,0,14.638,1.737,20.903,5.186l1.973-17.942c-9.131-3.444-18.177-4.446-27.078-4.446M321.7882,136.6175c-11.05,0-20.691,1.575-31.28,5.597l.406,17.536c8.581-4.316,16.954-5.931,25.272-5.931,9.335,0,16.895,2.73,17.035,12.922-3.29-.573-7.849-.984-12.011-.984-13.776,0-38.601,2.69-38.601,25.516,0,16.214,13.198,23.539,27.985,23.539,10.616,0,17.743-4.17,23.625-13.505h.32c0,3.878.443,7.75.587,11.777h23.616c-1.151-5.886-1.391-11.732-1.391-17.613v-27.822c0-22.822-16.475-31.032-35.563-31.032M503.7632,136.6175c-11.045,0-20.687,1.62-29.872,5.353l.411,17.446c7.177-4.013,15.554-5.597,23.864-5.597,9.325,0,16.899,2.73,17.039,12.922-3.3-.573-7.849-.984-12.006-.984-13.79,0-38.606,2.69-38.606,25.516,0,16.214,13.193,23.539,27.985,23.539,10.621,0,17.73-4.17,23.62-13.505h.329c0,3.878.429,7.75.574,11.777h23.62c-1.147-5.886-1.395-11.732-1.395-17.613v-27.822c0-22.822-16.47-31.032-35.563-31.032M77.0052,138.3465l27.655,74.738h29.466l27.651-74.738h-25.674l-15.64,53.257h-.253l-15.55-53.257h-27.655ZM171.1652,213.0845h25.764v-74.743h-25.764v74.743ZM375.0412,138.5135v74.571h24.532v-41.901l26.337,41.901h25.34v-74.571h-25.015v41.476l-.325-.077-26.098-41.399h-24.771ZM322.3662,179.4975c3.873,0,7.565.361,10.855.492,0,8.766-6.206,17.617-15.96,17.617-6.031,0-10.621-2.988-10.621-8.147,0-7.177,6.96-9.962,15.726-9.962M504.3452,179.4975c3.868,0,7.56.361,10.86.492,0,8.766-6.13,17.617-15.884,17.617-6.021,0-10.625-2.988-10.625-8.147,0-7.177,6.897-9.962,15.649-9.962"/>
          <path class="cls-1" d="M542.227,128.284c-73.109-35.64-151.846-53.713-234.162-53.713s-161.054,18.073-234.158,53.713l.618,1.616c74.454-25.624,153.805-37.649,233.5399-37.649s159.09,12.025,233.544,37.649l.618-1.616Z"/>
        </g>
      </g>
    </g>
  </g>
</svg>