<?xml version="1.0" encoding="utf-8"?>
<!-- Generator: Adobe Illustrator 24.1.2, SVG Export Plug-In . SVG Version: 6.00 Build 0)  -->
<svg version="1.1" id="vitasurselva" xmlns="http://www.w3.org/2000/svg" xmlns:xlink="http://www.w3.org/1999/xlink" x="0px"
	 y="0px" viewBox="0 0 400 95.4" enable-background="new 0 0 400 95.4" xml:space="preserve">
<linearGradient id="SVGID_1_" gradientUnits="userSpaceOnUse" x1="11.4628" y1="656.0944" x2="-46.5791" y2="656.0944" gradientTransform="matrix(0.9407 0 0 -0.9407 45.9255 664.738)">
	<stop  offset="0" style="stop-color:#90A2CD"/>
	<stop  offset="1" style="stop-color:#00539B"/>
</linearGradient>
<path fill="url(#SVGID_1_)" d="M34.1,36.6c0.3-2.4,3.7-5.8,5.4-8.5c5.8-9.3,11.2-17.8,17.1-25.7c0,0-0.1,0-0.3,0.1c0,0,0,0-0.1,0
	c-0.3,0.2-0.9,0.6-1.6,1.4l0,0L54.5,4l0,0l0,0c-8.6,9.2-16.7,19-24.8,29.1c-7.6-8-16-17.2-27.7-19.9C4.7,14.9,7.1,17,9.4,19
	c1.8,1.6,3.5,3.2,5.1,5.1c3.1,3.6,6.2,7.3,8.5,11.7c-3.6,16.4-11,31.1-11.3,49.5c5.9-11.6,10.7-24.4,16.7-35.8
	c7.5,12.3,11.8,28,16.3,43.2C44.3,76.6,41,63,37.3,49.9C36.6,46.3,33.8,39.8,34.1,36.6z"/>
<path id="color_green" fill="#00A94F" d="M184.4,70.8h-1.7l-3.9,4v-7.1h-1.4v11.1h1.4v-2.6l0.9-0.9l3.2,3.5h1.7l-4-4.3L184.4,70.8z
	 M227.2,70.8c-0.5,0-0.9,0.1-1.3,0.3c-0.5,0.1-1,0.5-1.5,0.9v-1.2H223v8h1.4v-5.6c0.3-0.3,0.7-0.5,1.1-0.7c0.4-0.2,0.8-0.3,1.2-0.3
	h0.7c0.2,0,0.4,0.1,0.7,0.1l0,0h0.1v-1.4c-0.2-0.1-0.4-0.1-0.5-0.1C227.7,70.8,227.2,70.8,227.2,70.8z M217.4,70.6
	c-1.2,0-2.1,0.4-2.8,1.2c-0.7,0.8-1.1,1.8-1.1,3.1c0,1.3,0.3,2.3,1.1,3s1.7,1.1,3.1,1.1c0.5,0,1-0.1,1.5-0.2s0.9-0.3,1.4-0.5v-1.5
	h-0.1c-0.2,0.3-0.6,0.5-1.2,0.7c-0.6,0.2-1.1,0.3-1.7,0.3c-0.5,0-0.8-0.1-1.2-0.2c-0.3-0.1-0.6-0.3-0.9-0.5
	c-0.2-0.2-0.4-0.5-0.6-0.9c-0.1-0.4-0.2-0.8-0.2-1.3h6v-0.7c0-1.2-0.3-2.1-0.9-2.7C219.3,70.8,218.5,70.6,217.4,70.6z M214.9,74
	c0-0.6,0.3-1.2,0.7-1.6c0.5-0.5,1.1-0.7,1.7-0.7c0.7,0,1.2,0.2,1.6,0.6c0.3,0.4,0.5,1,0.5,1.7H214.9z M199.4,70.5
	c-0.5,0-0.9,0.1-1.4,0.3c-0.4,0.2-0.9,0.4-1.3,0.8v-0.9h-1.4v8h1.4v-5.9c0.4-0.3,0.8-0.5,1.2-0.7s0.8-0.3,1.2-0.3s0.7,0.1,0.9,0.2
	s0.4,0.3,0.5,0.5s0.2,0.5,0.2,0.8c0.1,0.4,0.1,0.7,0.1,1.1V79h1.3v-5.3c0-1-0.2-1.7-0.7-2.2C201,70.7,200.3,70.5,199.4,70.5z
	 M234.7,75.1c-0.4-0.4-0.9-0.7-1.5-0.8c-0.2-0.1-0.5-0.1-0.8-0.2c-0.4-0.1-0.6-0.1-0.9-0.2c-0.5-0.1-0.8-0.2-1-0.4
	c-0.2-0.2-0.3-0.5-0.3-0.8c0-0.4,0.2-0.7,0.5-0.9c0.4-0.2,0.8-0.3,1.3-0.3s1,0.1,1.5,0.3c0.5,0.2,0.9,0.4,1.3,0.7h0.1V71
	c-0.4-0.1-0.8-0.3-1.3-0.4s-1-0.2-1.5-0.2s-1,0.1-1.4,0.2s-0.7,0.3-1,0.5c-0.2,0.2-0.5,0.5-0.6,0.8s-0.2,0.7-0.2,1
	c0,0.6,0.2,1,0.5,1.4c0.3,0.3,0.8,0.6,1.5,0.8c0.3,0.1,0.6,0.1,0.9,0.2c0.3,0.1,0.6,0.2,0.8,0.2c0.6,0.1,0.9,0.2,1.1,0.4
	c0.2,0.1,0.3,0.4,0.3,0.7c0,0.4-0.2,0.7-0.5,0.9s-0.8,0.3-1.4,0.3c-0.5,0-1-0.1-1.5-0.3c-0.6-0.2-1.1-0.5-1.5-0.8H229v1.6
	c0.4,0.2,0.8,0.4,1.3,0.5s1.1,0.2,1.7,0.2c1,0,1.8-0.2,2.4-0.7c0.6-0.4,0.9-1.1,0.9-1.7C235.4,75.9,235.3,75.5,234.7,75.1z
	 M189.8,70.6c-1.2,0-2.1,0.4-2.8,1.2c-0.7,0.8-1.1,1.8-1.1,3.1c0,1.3,0.3,2.3,1.1,3s1.7,1.1,3.1,1.1c0.5,0,1-0.1,1.5-0.2
	s0.9-0.3,1.4-0.5v-1.5h-0.1c-0.2,0.3-0.6,0.5-1.2,0.7c-0.6,0.2-1.1,0.3-1.7,0.3c-0.5,0-0.8-0.1-1.2-0.2c-0.3-0.1-0.6-0.3-0.9-0.5
	c-0.2-0.2-0.4-0.5-0.6-0.9c-0.1-0.4-0.2-0.8-0.2-1.3h6v-0.7c0-1.2-0.3-2.1-0.9-2.7C191.8,70.8,190.9,70.6,189.8,70.6z M187.3,74
	c0-0.6,0.3-1.2,0.7-1.6c0.5-0.5,1.1-0.7,1.7-0.7c0.7,0,1.2,0.2,1.6,0.6c0.3,0.4,0.5,1,0.5,1.7H187.3z M208.1,77.2l-2.4-6.3h-1.5
	l3.2,8h1.4l3.2-8h-1.5L208.1,77.2z M171.7,70.5c-0.5,0-0.9,0.1-1.4,0.3c-0.4,0.2-0.9,0.4-1.3,0.8v-0.9h-1.4v8h1.4v-5.9
	c0.4-0.3,0.8-0.5,1.2-0.7s0.8-0.3,1.2-0.3s0.7,0.1,0.9,0.2s0.4,0.3,0.5,0.5s0.2,0.5,0.2,0.8c0.1,0.4,0.1,0.7,0.1,1.1V79h1.3v-5.3
	c0-1-0.2-1.7-0.7-2.2C173.3,70.7,172.6,70.5,171.7,70.5z M164.4,72.1c-0.2-0.4-0.4-0.7-0.7-0.9c-0.3-0.2-0.7-0.4-1.1-0.5
	c-0.4-0.1-0.9-0.1-1.5-0.1c-0.5,0-1,0-1.5,0.1c-0.5,0-0.9,0.1-1.2,0.2v1.4h0.1c0.5-0.2,1-0.3,1.4-0.4s0.8-0.1,1.2-0.1
	c0.3,0,0.6,0.1,0.9,0.1c0.3,0,0.5,0.1,0.7,0.2s0.4,0.3,0.5,0.5s0.2,0.5,0.2,0.8v0.2c-0.8,0.1-1.6,0.1-2.2,0.2
	c-0.7,0-1.3,0.2-1.7,0.4c-0.5,0.2-0.8,0.5-1.1,0.9S158,76,158,76.6c0,0.8,0.3,1.4,0.8,1.8c0.5,0.5,1.2,0.7,1.8,0.7
	c0.5,0,0.8,0,1.1-0.1s0.6-0.2,0.8-0.3c0.2-0.1,0.4-0.3,0.6-0.4c0.2-0.1,0.4-0.2,0.5-0.3v0.9h1.1v-5.4
	C164.5,72.9,164.5,72.5,164.4,72.1z M163.5,76.9c-0.4,0.2-0.7,0.5-1.3,0.7c-0.4,0.2-0.8,0.3-1.3,0.3c-0.6,0-1-0.2-1.3-0.4
	c-0.3-0.3-0.4-0.6-0.4-1.1c0-0.4,0.2-0.8,0.4-1c0.3-0.2,0.6-0.4,1-0.5s0.8-0.2,1.4-0.2s1.1-0.1,1.5-0.1L163.5,76.9L163.5,76.9z
	 M85.2,5.9c-9.8-1.6-7.9,13.5-1.7,14C91.6,20.6,91.9,6.9,85.2,5.9z M116.2,69.5h1.6v-1.4h-1.6V69.5z M66.5,36.6
	c2.3-2,4.5-3.3,6.8-4.7c-7,1.6-11.7,5.4-16.1,9.4c-5.1-5.6-9.1-12.2-13.3-18.8c2.2,5.6,4.9,10.7,7.9,15.5c0.9,1.6,2.7,3.7,2.8,5
	c0.1,1.7-1.9,5.3-2.6,7.3c-2.8,7.8-5.2,15.4-5.7,24.2C49.4,65.5,53,57,58,49.8c3.6,6,6.8,12.6,11.9,17.2c-0.8-4-2.3-8-4.2-12.2
	c-1.2-2.5-4.9-9.2-4.5-11.9C61.6,40.8,65,38,66.5,36.6z M27.1,8.7c-6.4,1.1-6.1,14.8,1.6,14C34.6,22.2,36.4,7.1,27.1,8.7z
	 M116.3,78.8h1.4v-8h-1.4V78.8z M164.5,78.8h0.3l0,0H164.5L164.5,78.8z M156.3,70.8c-0.5,0-0.9,0.1-1.3,0.3c-0.5,0.1-1,0.5-1.5,0.9
	v-1.2h-1.4v8h1.4v-5.6c0.3-0.3,0.7-0.5,1.1-0.7c0.4-0.2,0.8-0.3,1.2-0.3h0.7c0.2,0,0.4,0.1,0.7,0.1l0,0h0.1v-1.4
	c-0.2-0.1-0.4-0.1-0.5-0.1C156.8,70.8,156.3,70.8,156.3,70.8z M127.2,73.5c0-1-0.2-1.7-0.7-2.2c-0.4-0.5-1.1-0.8-1.9-0.8
	c-0.5,0-0.9,0.1-1.4,0.3c-0.4,0.2-0.9,0.4-1.3,0.8v-4h-1.4v11.1h1.4v-5.9c0.4-0.3,0.8-0.5,1.2-0.7c0.4-0.2,0.8-0.3,1.2-0.3
	s0.7,0.1,0.9,0.2c0.2,0.1,0.4,0.3,0.5,0.5s0.2,0.5,0.2,0.8c0.1,0.4,0.1,0.7,0.1,1.1V79h1.4l0,0h-0.1L127.2,73.5L127.2,73.5z
	 M150.1,70.8h-1.7l-3.9,4v-7.1h-1.4v11.1h1.4v-2.6l0.9-0.9l3.2,3.5h1.7l-4-4.3L150.1,70.8z M134.4,70.8c-0.5,0-0.9,0.1-1.3,0.3
	c-0.5,0.1-1,0.5-1.5,0.9v-1.2h-1.4v8h1.4v-5.6c0.3-0.3,0.7-0.5,1.1-0.7c0.4-0.2,0.8-0.3,1.2-0.3h0.7c0.2,0,0.4,0.1,0.7,0.1l0,0h0.1
	v-1.4c-0.2-0.1-0.4-0.1-0.5-0.1C134.9,70.8,134.4,70.8,134.4,70.8z M347.9,78.8h0.2l0,0H347.9L347.9,78.8z M362.2,77.1
	c-0.2,0.1-0.4,0.2-0.6,0.3c-0.3,0.1-0.5,0.2-0.8,0.3c-0.3,0.1-0.6,0.1-0.9,0.1c-0.8,0-1.5-0.3-1.8-0.8c-0.5-0.5-0.7-1.3-0.7-2.2
	c0-1,0.2-1.7,0.7-2.2s1.1-0.8,1.8-0.8c0.4,0,0.9,0.1,1.3,0.3s0.9,0.5,1.3,0.8h0.1v-1.5c-0.3-0.2-0.7-0.4-1.2-0.5s-0.9-0.2-1.4-0.2
	c-1.2,0-2.1,0.3-2.8,1.1c-0.7,0.8-1.1,1.8-1.1,3.1c0,0.7,0.1,1.4,0.3,1.8c0.2,0.5,0.4,0.9,0.8,1.3s0.8,0.6,1.3,0.8
	c0.5,0.2,1,0.3,1.6,0.3c0.4,0,0.9-0.1,1.3-0.2s0.8-0.3,1.3-0.5l0,0h0.1v-1.6h-0.1C362.4,76.9,362.3,77,362.2,77.1z M370.6,78.8h0.3
	l0,0H370.6L370.6,78.8z M330.9,75.1c-0.4-0.4-0.9-0.7-1.5-0.8c-0.2-0.1-0.5-0.1-0.8-0.2c-0.4-0.1-0.6-0.1-0.9-0.2
	c-0.5-0.1-0.8-0.2-1-0.4c-0.2-0.2-0.3-0.5-0.3-0.8c0-0.4,0.2-0.7,0.5-0.9c0.4-0.2,0.8-0.3,1.3-0.3s1,0.1,1.5,0.3s0.9,0.4,1.3,0.7
	h0.1V71c-0.4-0.1-0.8-0.3-1.3-0.4s-1-0.2-1.5-0.2s-1,0.1-1.4,0.2s-0.7,0.3-1,0.5c-0.2,0.2-0.5,0.5-0.6,0.8s-0.2,0.7-0.2,1
	c0,0.6,0.2,1,0.5,1.4c0.3,0.3,0.8,0.6,1.5,0.8c0.3,0.1,0.6,0.1,0.9,0.2s0.6,0.2,0.8,0.2c0.6,0.1,0.9,0.2,1.1,0.4
	c0.2,0.1,0.3,0.4,0.3,0.7c0,0.4-0.2,0.7-0.5,0.9c-0.3,0.2-0.8,0.3-1.4,0.3c-0.5,0-1-0.1-1.5-0.3c-0.6-0.2-1.1-0.5-1.5-0.8h-0.1v1.6
	c0.4,0.2,0.8,0.4,1.3,0.5s1.1,0.2,1.7,0.2c1,0,1.8-0.2,2.4-0.7c0.6-0.4,0.9-1.1,0.9-1.7C331.6,75.9,331.4,75.5,330.9,75.1z
	 M347.7,72.1c-0.2-0.4-0.4-0.7-0.7-0.9c-0.3-0.2-0.7-0.4-1.1-0.5s-0.9-0.1-1.5-0.1c-0.5,0-1,0-1.5,0.1c-0.5,0-0.9,0.1-1.2,0.2v1.4
	h0.1c0.5-0.2,1-0.3,1.4-0.4s0.8-0.1,1.2-0.1c0.3,0,0.6,0.1,0.9,0.1s0.5,0.1,0.7,0.2s0.4,0.3,0.5,0.5s0.2,0.5,0.2,0.8v0.2
	c-0.8,0.1-1.6,0.1-2.2,0.2c-0.7,0-1.3,0.2-1.7,0.4c-0.5,0.2-0.8,0.5-1.1,0.9c-0.3,0.4-0.4,0.9-0.4,1.5c0,0.8,0.3,1.4,0.8,1.8
	c0.5,0.5,1.2,0.7,1.8,0.7c0.5,0,0.8,0,1.1-0.1c0.3-0.1,0.6-0.2,0.8-0.3c0.2-0.1,0.4-0.3,0.6-0.4s0.4-0.2,0.5-0.3v0.9h1.1v-5.4
	C347.9,72.9,347.9,72.5,347.7,72.1z M346.8,76.9c-0.4,0.2-0.8,0.5-1.3,0.7c-0.4,0.2-0.8,0.3-1.3,0.3c-0.6,0-1-0.2-1.3-0.4
	c-0.3-0.3-0.4-0.6-0.4-1.1c0-0.4,0.2-0.8,0.4-1c0.3-0.2,0.6-0.4,1-0.5s0.8-0.2,1.4-0.2s1.1-0.1,1.5-0.1L346.8,76.9L346.8,76.9z
	 M237.7,78.8h1.4v-8h-1.4V78.8z M338.9,75.1c-0.4-0.4-0.9-0.7-1.5-0.8c-0.2-0.1-0.5-0.1-0.8-0.2c-0.4-0.1-0.6-0.1-0.9-0.2
	c-0.5-0.1-0.8-0.2-1-0.4c-0.2-0.2-0.3-0.5-0.3-0.8c0-0.4,0.2-0.7,0.5-0.9c0.4-0.2,0.8-0.3,1.3-0.3s1,0.1,1.5,0.3
	c0.5,0.2,0.9,0.4,1.3,0.7h0.1V71c-0.4-0.1-0.8-0.3-1.3-0.4s-1-0.2-1.5-0.2s-1,0.1-1.4,0.2s-0.7,0.3-1,0.5c-0.2,0.2-0.5,0.5-0.6,0.8
	s-0.2,0.7-0.2,1c0,0.6,0.2,1,0.5,1.4c0.3,0.3,0.8,0.6,1.5,0.8c0.3,0.1,0.6,0.1,0.9,0.2s0.6,0.2,0.8,0.2c0.6,0.1,0.9,0.2,1.1,0.4
	c0.2,0.1,0.3,0.4,0.3,0.7c0,0.4-0.2,0.7-0.5,0.9c-0.3,0.2-0.8,0.3-1.4,0.3c-0.5,0-1-0.1-1.5-0.3c-0.6-0.2-1.1-0.5-1.5-0.8h-0.1v1.6
	c0.4,0.2,0.8,0.4,1.3,0.5s1.1,0.2,1.7,0.2c1,0,1.8-0.2,2.4-0.7c0.6-0.4,0.9-1.1,0.9-1.7C339.6,75.9,339.4,75.5,338.9,75.1z
	 M395.9,78.8L395.9,78.8h0.3l0,0H395.9z M378.9,75.1c-0.4-0.4-0.9-0.7-1.5-0.8c-0.2-0.1-0.5-0.1-0.8-0.2c-0.4-0.1-0.6-0.1-0.9-0.2
	c-0.5-0.1-0.8-0.2-1-0.4c-0.2-0.2-0.3-0.5-0.3-0.8c0-0.4,0.2-0.7,0.5-0.9c0.4-0.2,0.8-0.3,1.3-0.3s1,0.1,1.5,0.3
	c0.5,0.2,0.9,0.4,1.3,0.7h0.1V71c-0.4-0.1-0.8-0.3-1.3-0.4s-1-0.2-1.5-0.2s-1,0.1-1.4,0.2s-0.7,0.3-1,0.5c-0.2,0.2-0.5,0.5-0.6,0.8
	s-0.2,0.7-0.2,1c0,0.6,0.2,1,0.5,1.4c0.3,0.3,0.8,0.6,1.5,0.8c0.3,0.1,0.6,0.1,0.9,0.2s0.6,0.2,0.8,0.2c0.6,0.1,0.9,0.2,1.1,0.4
	c0.2,0.1,0.3,0.4,0.3,0.7c0,0.4-0.2,0.7-0.5,0.9c-0.3,0.2-0.8,0.3-1.4,0.3c-0.5,0-1-0.1-1.5-0.3c-0.6-0.2-1.1-0.5-1.5-0.8h-0.1v1.6
	c0.4,0.2,0.8,0.4,1.3,0.5s1.1,0.2,1.7,0.2c1,0,1.8-0.2,2.4-0.7c0.6-0.4,0.9-1.1,0.9-1.7C379.5,75.9,379.4,75.5,378.9,75.1z
	 M395.7,72.1c-0.2-0.4-0.4-0.7-0.7-0.9c-0.3-0.2-0.7-0.4-1.1-0.5s-0.9-0.1-1.5-0.1c-0.5,0-1,0-1.5,0.1c-0.5,0-0.9,0.1-1.2,0.2v1.4
	h0.1c0.5-0.2,1-0.3,1.4-0.4s0.8-0.1,1.2-0.1c0.3,0,0.6,0.1,0.9,0.1s0.5,0.1,0.7,0.2s0.4,0.3,0.5,0.5s0.2,0.5,0.2,0.8v0.2
	c-0.8,0.1-1.6,0.1-2.2,0.2c-0.7,0-1.3,0.2-1.7,0.4c-0.5,0.2-0.8,0.5-1.1,0.9c-0.3,0.4-0.4,0.9-0.4,1.5c0,0.8,0.3,1.4,0.8,1.8
	c0.5,0.5,1.2,0.7,1.8,0.7c0.5,0,0.8,0,1.1-0.1s0.6-0.2,0.8-0.3c0.2-0.1,0.4-0.3,0.6-0.4s0.4-0.2,0.5-0.3v0.9h1.1v-5.4
	C395.9,72.9,395.9,72.5,395.7,72.1z M394.8,76.9c-0.4,0.2-0.7,0.5-1.3,0.7c-0.4,0.2-0.8,0.3-1.3,0.3c-0.6,0-1-0.2-1.3-0.4
	c-0.3-0.3-0.4-0.6-0.4-1.1c0-0.4,0.2-0.8,0.4-1c0.3-0.2,0.6-0.4,1-0.5s0.8-0.2,1.4-0.2s1.1-0.1,1.5-0.1L394.8,76.9L394.8,76.9z
	 M386.9,75.1c-0.4-0.4-0.9-0.7-1.5-0.8c-0.2-0.1-0.5-0.1-0.8-0.2c-0.4-0.1-0.6-0.1-0.9-0.2c-0.5-0.1-0.8-0.2-1-0.4
	c-0.2-0.2-0.3-0.5-0.3-0.8c0-0.4,0.2-0.7,0.5-0.9c0.4-0.2,0.8-0.3,1.3-0.3s1,0.1,1.5,0.3c0.5,0.2,0.9,0.4,1.3,0.7h0.1V71
	c-0.4-0.1-0.8-0.3-1.3-0.4s-1-0.2-1.5-0.2s-1,0.1-1.4,0.2s-0.7,0.3-1,0.5c-0.2,0.2-0.5,0.5-0.6,0.8s-0.2,0.7-0.2,1
	c0,0.6,0.2,1,0.5,1.4c0.3,0.3,0.8,0.6,1.5,0.8c0.3,0.1,0.6,0.1,0.9,0.2s0.6,0.2,0.8,0.2c0.6,0.1,0.9,0.2,1.1,0.4
	c0.2,0.1,0.3,0.4,0.3,0.7c0,0.4-0.2,0.7-0.5,0.9s-0.8,0.3-1.4,0.3c-0.5,0-1-0.1-1.5-0.3c-0.6-0.2-1.1-0.5-1.5-0.8h-0.1v1.6
	c0.4,0.2,0.8,0.4,1.3,0.5s1.1,0.2,1.7,0.2c1,0,1.8-0.2,2.4-0.7c0.6-0.4,0.9-1.1,0.9-1.7C387.6,75.9,387.4,75.5,386.9,75.1z
	 M370.4,72.1c-0.2-0.4-0.4-0.7-0.7-0.9c-0.3-0.2-0.7-0.4-1.1-0.5s-0.9-0.1-1.5-0.1c-0.5,0-1,0-1.5,0.1c-0.5,0-0.9,0.1-1.2,0.2v1.4
	h0.1c0.5-0.2,1-0.3,1.4-0.4s0.8-0.1,1.2-0.1c0.3,0,0.6,0.1,0.9,0.1s0.5,0.1,0.7,0.2s0.4,0.3,0.5,0.5s0.2,0.5,0.2,0.8v0.2
	c-0.8,0.1-1.6,0.1-2.2,0.2c-0.7,0-1.3,0.2-1.7,0.4c-0.5,0.2-0.8,0.5-1.1,0.9c-0.3,0.4-0.4,0.9-0.4,1.5c0,0.8,0.3,1.4,0.8,1.8
	c0.5,0.5,1.2,0.7,1.8,0.7c0.5,0,0.8,0,1.1-0.1s0.6-0.2,0.8-0.3c0.2-0.1,0.4-0.3,0.6-0.4s0.4-0.2,0.5-0.3v0.9h1.1v-5.4
	C370.6,72.9,370.6,72.5,370.4,72.1z M369.5,76.9c-0.3,0.2-0.7,0.5-1.3,0.7c-0.4,0.2-0.8,0.3-1.3,0.3c-0.6,0-1-0.2-1.3-0.4
	c-0.3-0.3-0.4-0.6-0.4-1.1c0-0.4,0.2-0.8,0.4-1c0.3-0.2,0.6-0.4,1-0.5s0.8-0.2,1.4-0.2s1.1-0.1,1.5-0.1L369.5,76.9L369.5,76.9z
	 M263.4,70.6c-1.2,0-2.1,0.4-2.8,1.2c-0.7,0.8-1.1,1.8-1.1,3.1c0,1.3,0.3,2.3,1.1,3c0.8,0.7,1.7,1.1,3.1,1.1c0.5,0,1-0.1,1.5-0.2
	s0.9-0.3,1.4-0.5v-1.5h-0.1c-0.2,0.3-0.6,0.5-1.2,0.7s-1.1,0.3-1.7,0.3c-0.5,0-0.8-0.1-1.2-0.2c-0.3-0.1-0.6-0.3-0.9-0.5
	c-0.2-0.2-0.4-0.5-0.6-0.9c-0.1-0.4-0.2-0.8-0.2-1.3h6v-0.7c0-1.2-0.3-2.1-0.9-2.7C265.3,70.8,264.4,70.6,263.4,70.6z M260.7,74
	c0-0.6,0.3-1.2,0.7-1.6c0.5-0.5,1.1-0.7,1.7-0.7c0.7,0,1.2,0.2,1.6,0.6c0.3,0.4,0.5,1,0.5,1.7H260.7z M273.1,70.8
	c-0.5,0-0.9,0.1-1.3,0.3c-0.5,0.1-1,0.5-1.5,0.9v-1.2H269v8h1.4v-5.6c0.3-0.3,0.7-0.5,1.1-0.7s0.8-0.3,1.2-0.3h0.7
	c0.2,0,0.4,0.1,0.7,0.1l0,0h0.1v-1.4c-0.2-0.1-0.4-0.1-0.5-0.1C273.7,70.8,273.1,70.8,273.1,70.8z M256.7,73.5c0-1-0.2-1.7-0.7-2.2
	c-0.4-0.5-1.1-0.8-1.9-0.8c-0.5,0-0.9,0.1-1.4,0.3c-0.4,0.2-0.9,0.4-1.3,0.8v-4H250v11.1h1.4v-5.9c0.4-0.3,0.8-0.5,1.2-0.7
	s0.8-0.3,1.2-0.3s0.7,0.1,0.9,0.2s0.4,0.3,0.5,0.5s0.2,0.5,0.2,0.8c0.1,0.4,0.1,0.7,0.1,1.1V79h1.4l0,0h-0.1L256.7,73.5L256.7,73.5z
	 M247.7,77.1c-0.2,0.1-0.4,0.2-0.6,0.3c-0.3,0.1-0.5,0.2-0.8,0.3c-0.3,0.1-0.6,0.1-0.9,0.1c-0.8,0-1.5-0.3-1.8-0.8
	c-0.5-0.5-0.7-1.3-0.7-2.2c0-1,0.2-1.7,0.7-2.2s1.1-0.8,1.8-0.8c0.4,0,0.9,0.1,1.3,0.3s0.9,0.5,1.3,0.8h0.1v-1.5
	c-0.3-0.2-0.7-0.4-1.2-0.5s-0.9-0.2-1.4-0.2c-1.2,0-2.1,0.3-2.8,1.1c-0.7,0.8-1.1,1.8-1.1,3.1c0,0.7,0.1,1.4,0.3,1.8
	c0.2,0.5,0.4,0.9,0.8,1.3c0.4,0.4,0.8,0.6,1.3,0.8c0.5,0.2,1,0.3,1.6,0.3c0.4,0,0.9-0.1,1.3-0.2c0.4-0.1,0.8-0.3,1.3-0.5l0,0h0.1
	v-1.6h-0.1C248,76.9,247.9,77,247.7,77.1z M319.7,70.6c-1.2,0-2,0.4-2.7,1.2c-0.7,0.8-1,1.8-1,3.1c0,1.4,0.3,2.3,1,3.1
	c0.7,0.8,1.6,1.2,2.7,1.2s2-0.4,2.7-1.2c0.7-0.8,1-1.8,1-3.1c0-1.3-0.4-2.3-1-3.1C321.7,70.9,320.9,70.6,319.7,70.6z M321.5,77.1
	c-0.4,0.5-1,0.8-1.7,0.8s-1.3-0.3-1.7-0.8c-0.4-0.5-0.6-1.3-0.6-2.2c0-1.1,0.2-1.8,0.6-2.3s0.9-0.8,1.7-0.8c0.7,0,1.3,0.3,1.7,0.8
	c0.4,0.5,0.6,1.3,0.6,2.3C322,75.8,321.7,76.6,321.5,77.1z M237.6,69.5h1.6v-1.4h-1.6V69.5z M310.9,70.5c-0.5,0-0.9,0.1-1.4,0.3
	c-0.4,0.2-0.9,0.4-1.3,0.8v-0.9h-1.4v8h1.4v-5.9c0.4-0.3,0.8-0.5,1.2-0.7c0.4-0.2,0.8-0.3,1.2-0.3c0.4,0,0.7,0.1,0.9,0.2
	c0.2,0.1,0.4,0.3,0.5,0.5s0.2,0.5,0.2,0.8c0.1,0.4,0.1,0.7,0.1,1.1V79h1.3v-5.3c0-1-0.2-1.7-0.7-2.2
	C312.4,70.7,311.7,70.5,310.9,70.5z M294.9,74.8h4.5v-1.3h-4.5V74.8z M279.1,70.6c-1.2,0-2.1,0.4-2.8,1.2c-0.7,0.8-1.1,1.8-1.1,3.1
	c0,1.3,0.3,2.3,1.1,3c0.8,0.7,1.7,1.1,3.1,1.1c0.5,0,1-0.1,1.5-0.2s0.9-0.3,1.4-0.5v-1.5h-0.1c-0.2,0.3-0.6,0.5-1.2,0.7
	s-1.1,0.3-1.7,0.3c-0.5,0-0.9-0.1-1.2-0.2c-0.3-0.1-0.6-0.3-0.9-0.5c-0.2-0.2-0.4-0.5-0.6-0.9c-0.1-0.4-0.2-0.8-0.2-1.3h6v-0.7
	c0-1.2-0.3-2.1-0.9-2.7C281,70.8,280.2,70.6,279.1,70.6z M276.6,74c0-0.6,0.3-1.2,0.7-1.6c0.5-0.5,1.1-0.7,1.7-0.7
	c0.7,0,1.2,0.2,1.6,0.6c0.3,0.4,0.5,1,0.5,1.7H276.6z M288.8,70.8c-0.5,0-0.9,0.1-1.3,0.3c-0.5,0.1-1,0.5-1.5,0.9v-1.2h-1.4v8h1.4
	v-5.6c0.3-0.3,0.7-0.5,1.1-0.7s0.8-0.3,1.2-0.3h0.7c0.2,0,0.4,0.1,0.7,0.1l0,0h0.1v-1.4c-0.2-0.1-0.4-0.1-0.5-0.1
	C289.3,70.8,288.8,70.8,288.8,70.8z"/>
<linearGradient id="SVGID_2_" gradientUnits="userSpaceOnUse" x1="11.6697" y1="658.9647" x2="68.9899" y2="658.9647" gradientTransform="matrix(0.9407 0 0 -0.9407 45.9255 664.738)">
	<stop  offset="0" style="stop-color:#90A2CD"/>
	<stop  offset="0.1513" style="stop-color:#6F89BE"/>
	<stop  offset="0.336" style="stop-color:#4D73B0"/>
	<stop  offset="0.5172" style="stop-color:#2C63A6"/>
	<stop  offset="0.6915" style="stop-color:#005AA0"/>
	<stop  offset="0.8559" style="stop-color:#00549C"/>
	<stop  offset="1" style="stop-color:#00539B"/>
</linearGradient>
<path fill="url(#SVGID_2_)" d="M103.5,18.1c2.3-1.9,4.7-3.9,7.3-5.5C99.4,15.1,91,23.7,83.5,31.2C75.7,22,67.7,12.8,59.2,4.1L59.1,4
	L59,3.9l-0.1-0.1l0,0c-0.7-0.7-1.2-1.1-1.6-1.3c-0.1-0.1-0.2-0.1-0.3-0.1c0,0,0,0-0.1,0h-0.1l0,0l0,0l0,0c5.9,7.4,11.2,15.4,17,24.1
	c1.7,2.6,5.1,5.7,5.3,8.1c0.4,2.9-2.4,9-3.5,12.4c-3.7,12.3-7,25.2-7.3,40.3c4.5-14.4,26.8-17.9,32.7-7
	c-0.3-17.3-7.6-31.1-11.2-46.5c2.2-4.2,5.3-7.6,8.5-11C100,21.1,101.7,19.6,103.5,18.1z"/>
<path id="color_blue" fill="#00539B" d="M169,55.5h-0.6c-0.3,0.1-0.7,0.2-1.3,0.4c-0.6,0.1-1.1,0.2-1.5,0.2c-0.9,0-1.6-0.1-2-0.4
	c-0.5-0.3-0.8-0.6-1-1.1s-0.3-1-0.3-1.6v-9.8h6.5v-4.8h-6.5v-6.2h-7v6.2h-2.9v4.8h2.9v10.3c0,2.6,0.7,4.6,2,5.6
	c1.4,1.1,3.4,1.7,6.1,1.7c1.3,0,2.2-0.1,3.1-0.2c0.9-0.1,1.7-0.3,2.4-0.5h0.1V55.5z M141.4,35.4h7.4V30h-7.4V35.4z M141.6,60.4h7
	V38.5h-7V60.4z M58,27.6c-1.8,0-3.3,2-3.3,4.5s1.5,4.5,3.3,4.5s3.3-2,3.3-4.5S59.8,27.6,58,27.6z M125.3,53.6l-5.1-15.1h-7.4
	l8.4,21.9h8l8.5-21.9h-7.3L125.3,53.6z M190.8,39.7c-1.7-1.3-4.7-1.8-8.6-1.8c-1.7,0-3.4,0.1-5.1,0.4c-1.7,0.3-2.8,0.5-3.6,0.7v5.2
	h0.7c0.6-0.3,1.6-0.6,2.8-1c1.3-0.4,2.5-0.6,3.7-0.6c1.9,0,3.4,0.2,4.4,0.7s1.5,1.4,1.5,2.5v0.1c-2,0.2-4,0.3-5.9,0.6
	s-3.6,0.7-4.9,1.3s-2.3,1.5-3,2.4c-0.7,1-1.1,2.3-1.1,3.9c0,2,0.8,3.7,2.1,5c1.5,1.3,3.2,1.9,5.2,1.9c0.9,0,1.7,0,2.4-0.2
	c0.8-0.1,1.5-0.4,2.1-0.7c0.5-0.3,1-0.6,1.6-1c0.5-0.5,1-0.8,1.4-1.1v2.2h6.9V45.4C193.4,42.8,192.5,40.9,190.8,39.7z M186.5,54.6
	c-0.5,0.5-1.2,0.9-2,1.1c-0.7,0.3-1.5,0.4-2.1,0.4c-0.9,0-1.6-0.1-1.9-0.2c-0.4-0.1-0.8-0.3-1.1-0.6c-0.3-0.2-0.5-0.5-0.6-0.8
	s-0.1-0.6-0.1-1.1c0-0.7,0.2-1.3,0.6-1.7c0.4-0.4,1-0.8,1.7-1c0.6-0.2,1.5-0.4,2.5-0.5c1.2-0.1,2.1-0.2,3.1-0.3L186.5,54.6
	L186.5,54.6z M319.8,37.7c-3.9,0-6.9,1.1-9.1,3.2c-2.2,2.1-3.3,5-3.3,8.5c0,3.7,1.2,6.5,3.5,8.5c2.3,1.9,5.7,2.9,10.1,2.9
	c1.7,0,3.3-0.1,4.7-0.4s2.9-0.7,4.5-1.4v-5.6h-0.8c-0.8,0.7-1.9,1.3-3.3,1.7c-1.4,0.5-2.8,0.8-4.3,0.8c-2.3,0-4.2-0.5-5.3-1.4
	s-1.8-2.1-1.9-3.9h16v-2.5c0-3.4-1-6-2.7-7.8C326,38.6,323.4,37.7,319.8,37.7z M323.5,46.8h-9c0.1-1.6,0.6-2.7,1.5-3.4
	s1.9-1.1,3.3-1.1c1.5,0,2.5,0.3,3.2,1.1C323.1,44.1,323.5,45.2,323.5,46.8L323.5,46.8L323.5,46.8z M358.7,53.6l-5.1-15.1h-7.4
	l8.4,21.9h8l8.5-21.9h-7.3L358.7,53.6z M335.4,60.4h7V30h-7V60.4z M392.5,39.7c-1.7-1.3-4.7-1.8-8.6-1.8c-1.7,0-3.4,0.1-5.1,0.4
	c-1.7,0.3-2.8,0.5-3.6,0.7v5.2h0.7c0.6-0.3,1.6-0.6,2.8-1c1.3-0.4,2.5-0.6,3.7-0.6c1.9,0,3.4,0.2,4.4,0.7s1.5,1.4,1.5,2.5v0.1
	c-2,0.2-4,0.3-5.9,0.6s-3.6,0.7-4.9,1.3s-2.3,1.5-3,2.4c-0.7,1-1.1,2.3-1.1,3.9c0,2,0.8,3.7,2.1,5c1.5,1.3,3.2,1.9,5.2,1.9
	c0.9,0,1.7,0,2.4-0.2c0.8-0.1,1.5-0.4,2.1-0.7c0.5-0.3,1-0.6,1.6-1c0.5-0.5,1-0.8,1.4-1.1l0,0v2.2h6.9V45.4
	C395.1,42.8,394.2,40.9,392.5,39.7z M388.2,54.6c-0.6,0.5-1.2,0.9-2,1.1c-0.7,0.3-1.5,0.4-2.1,0.4c-0.9,0-1.6-0.1-1.9-0.2
	c-0.4-0.1-0.8-0.3-1.1-0.6c-0.3-0.2-0.5-0.5-0.6-0.8s-0.1-0.6-0.1-1.1c0-0.7,0.2-1.3,0.6-1.7s1-0.8,1.7-1c0.6-0.2,1.5-0.4,2.5-0.5
	c1.2-0.1,2.1-0.2,3.1-0.3v4.7H388.2z M298.8,47.1c-0.9-0.2-1.7-0.4-2.5-0.5c-0.9-0.1-1.7-0.3-2.3-0.4c-1.3-0.2-2-0.5-2.4-0.8
	c-0.3-0.3-0.5-0.7-0.5-1.2c0-0.6,0.4-1.1,1.2-1.4c0.8-0.3,1.7-0.5,2.8-0.5c1.4,0,2.7,0.2,4.1,0.7s2.5,1.1,3.6,1.7h0.6v-5.5
	c-0.9-0.4-2-0.8-3.5-1.1s-3-0.5-4.7-0.5c-3.5,0-6.2,0.8-8.2,2.1c-2,1.4-3,3.1-3,5.2c0,1.7,0.5,3,1.5,4.1c0.9,1.1,2.4,1.9,4.4,2.4
	c0.8,0.2,1.6,0.4,2.4,0.5c0.9,0.2,1.7,0.3,2.1,0.4c1.1,0.2,1.8,0.5,2.2,0.7c0.4,0.3,0.6,0.7,0.6,1.2c0,0.6-0.3,1.1-1,1.4
	c-0.6,0.3-1.7,0.5-3,0.5c-1,0-2-0.1-2.9-0.3s-1.7-0.5-2.4-0.8c-0.9-0.4-1.5-0.7-1.9-1s-0.8-0.5-1.2-0.8H284v5.7
	c1,0.4,2.2,0.8,3.8,1.2c1.6,0.4,3.3,0.6,5.2,0.6c3.5,0,6.2-0.7,8.3-2c2-1.4,3-3.2,3-5.4c0-1.6-0.5-2.8-1.5-4.1
	C302,48.4,300.7,47.6,298.8,47.1z M227.1,47.1c-0.9-0.2-1.7-0.4-2.5-0.5c-0.9-0.1-1.7-0.3-2.3-0.4c-1.3-0.2-2-0.5-2.4-0.8
	c-0.3-0.3-0.5-0.7-0.5-1.2c0-0.6,0.4-1.1,1.2-1.4c0.8-0.3,1.7-0.5,2.8-0.5c1.4,0,2.7,0.2,4.1,0.7c1.4,0.5,2.5,1.1,3.6,1.7h0.6v-5.5
	c-0.9-0.4-2-0.8-3.5-1.1s-3-0.5-4.7-0.5c-3.5,0-6.2,0.8-8.2,2.1c-2,1.4-3,3.1-3,5.2c0,1.7,0.5,3,1.5,4.1c0.9,1.1,2.4,1.9,4.4,2.4
	c0.8,0.2,1.6,0.4,2.4,0.5c0.9,0.2,1.7,0.3,2.1,0.4c1.1,0.2,1.8,0.5,2.2,0.7c0.4,0.3,0.6,0.7,0.6,1.2c0,0.6-0.3,1.1-1,1.4
	c-0.6,0.3-1.7,0.5-3,0.5c-1,0-2-0.1-2.9-0.3s-1.7-0.5-2.4-0.8c-0.9-0.4-1.5-0.7-1.9-1c-0.5-0.3-0.9-0.5-1.3-0.8h-0.7v5.7
	c1,0.4,2.2,0.8,3.8,1.2s3.3,0.6,5.2,0.6c3.5,0,6.2-0.7,8.3-2c2-1.4,3-3.2,3-5.4c0-1.6-0.5-2.8-1.4-4.1
	C230.3,48.4,229,47.6,227.1,47.1z M252,54.1c-0.7,0.4-1.5,0.8-2.1,1c-0.7,0.2-1.4,0.3-1.9,0.3c-1,0-1.7-0.1-2.1-0.3
	c-0.6-0.2-0.9-0.6-1.2-1.1s-0.4-1.1-0.5-1.8s-0.1-1.7-0.1-2.7V38.6h-7v14.2c0,2.7,0.7,4.8,1.9,6.1c1.3,1.4,3.1,2,5.5,2
	c1.6,0,2.8-0.3,3.9-0.8c1.1-0.5,2.3-1.3,3.6-2.2v2.4h7V38.7h-7V54.1z M281.3,38.6c-0.2-0.1-0.5-0.1-0.8-0.1h-0.9
	c-1,0-1.9,0.3-3.1,0.7c-1.1,0.4-2.4,1.3-4,2.6v-3.2h-7v21.9h7V45.8c0.9-0.3,1.7-0.6,2.4-0.7c0.8-0.1,1.7-0.2,2.6-0.2
	c0.5,0,1,0,1.7,0.1c0.7,0,1.2,0.1,1.5,0.2h0.7l0,0h-0.1L281.3,38.6L281.3,38.6z"/>
</svg>
