<?xml version="1.0" encoding="utf-8"?>
<!-- Generator: Adobe Illustrator 24.1.2, SVG Export Plug-In . SVG Version: 6.00 Build 0)  -->
<svg version="1.1" id="kk_waedenswil" xmlns="http://www.w3.org/2000/svg" xmlns:xlink="http://www.w3.org/1999/xlink" x="0px"
	 y="0px" viewBox="0 0 400 188.2" enable-background="new 0 0 400 188.2" xml:space="preserve">
<path id="color_black" d="M273.4,151.3h-4.4v5h4.4V151.3z M64.4,159.8c-2.1,0-3.6,0.8-4.7,2.8h-0.1v-2.4H54v23.5h5.6v-16.2
	c0-2.1,0.3-3.7,2.1-3.7s2.1,1.6,2.1,3.7v16.2h5.6v-18.9C69.4,161.6,67.1,159.8,64.4,159.8z M89.2,160.3h-5.8l-5,9.9h-0.1v-20h-5.6
	v33.6h5.6V171h0.1l5.2,12.8h6.3l-6.3-13L89.2,160.3z M50.5,167.7c0-4.3-0.9-7.9-8-7.9c-2.1,0-4,0.4-5.2,1.5
	c-1.3,1.1-2.1,2.9-2.1,5.7h5.5c0-1.9,0.2-3.6,2.1-3.6c2,0,2.2,1.4,2.2,3.4v1.8c-5.2-0.1-10.3,0.2-10.3,8c0,4.1,1.4,7.5,5.3,7.5
	c2.4,0,4-1.2,5.2-3.6h0.1l0.2,3.1h5.2c-0.1-1.4-0.3-3-0.3-4.4V167.7z M42.2,180.2c-1.8,0-2-2-2-3.7c0-4.2,2-3.9,4.8-4.1
	C45,175,45.5,180.2,42.2,180.2z M99.2,159.8c-7.4,0-8.2,5.5-8.2,11.9c0,7.4,0.9,12.5,8.2,12.5c2.6,0,4.6-0.8,5.9-2.3
	c1.3-1.4,2-3.5,2.1-6.1h-5.7c0,2-0.4,4.2-2.4,4.2c-2.5,0-2.5-4.2-2.5-7h10.7C107.6,165.6,106.7,159.8,99.2,159.8z M101.8,169.4h-5.1
	c0-2,0-5.6,2.5-5.6C101.9,163.9,101.8,167.1,101.8,169.4z M15.2,150.2l-7,14.4H8.2v-14.4h-6v33.6h6v-17.2h0.1l6.9,17.2h6.7l-8-18.5
	l8-15.1H15.2z M157.6,137.6h35.7L170,56.9l0-0.1h-35.7l23.3,80.7L157.6,137.6z M169.8,57.1l23.2,80.2h-35.1l-23.1-80.2H169.8z
	 M206.8,137.6h35.7L265.8,57l0.1-0.2h-35.7l-23.3,80.6L206.8,137.6z M230.3,57.1h35.1l-23.2,80.2h-35.1L230.3,57.1z M262,156.3h4.4
	v-5H262V156.3z M28.6,163.3L28.6,163.3l-0.1-3h-5.3v23.6h5.6V171c0-2.3,0.1-5.7,5-5.3v-5.9C31.5,159.8,29.6,160.6,28.6,163.3z
	 M200.1,139.3l24.8-83.1l0-0.1L200.2,4.1l-0.1-0.3l-23.4,52.3l0,0l23.3,82.6L200.1,139.3z M200.1,4.5l24.5,51.7l-24.5,82l-23.1-82
	L200.1,4.5z M339.4,166c0-1.6,0.7-2.5,1.9-2.5c0.6,0,1.1,0.1,1.4,0.5c0.4,0.4,0.6,1.4,0.6,3h5.5c0.3-5.1-3.1-7.2-6.9-7.2
	c-3.6,0-7.9,1.5-7.9,6.6c0,7.5,9.8,6.4,9.8,11.4c0,1.6-1,2.4-2.1,2.4c-1.1,0-1.7-0.4-2-1.1c-0.3-0.8-0.3-1.8-0.3-2.8h-5.5v0
	c-0.3,6.6,2.9,8,7.8,8c4.6,0,7.5-3.1,7.5-7.2C349.2,169.6,339.4,169.7,339.4,166z M326.6,159.8c-2.1,0-3.6,0.8-4.7,2.8h-0.1v-2.4
	h-5.6v23.5h5.6v-16.2c0-2.1,0.3-3.7,2.1-3.7s2.1,1.6,2.1,3.7v16.2h5.6v-18.9C331.6,161.6,329.3,159.8,326.6,159.8z M371.3,178
	L371.3,178l-3.6-17.7h-5.8l-3.9,17.7H358l-2.7-17.7h-5.6l5,23.5h5.9l4-16.1h0.1l3.6,16.1h5.9l5.4-23.5h-5.3L371.3,178z M305.2,159.8
	c-7.4,0-8.2,5.5-8.2,11.9c0,7.4,0.9,12.5,8.2,12.5c2.6,0,4.6-0.8,5.9-2.3c1.3-1.4,2-3.5,2.1-6.1h-5.7c0,2-0.4,4.2-2.4,4.2
	c-2.5,0-2.5-4.2-2.5-7h10.7C313.6,165.6,312.7,159.8,305.2,159.8z M307.8,169.4h-5.1c0-2,0-5.6,2.5-5.6
	C307.9,163.9,307.8,167.1,307.8,169.4z M120.6,159.8c-2.1,0-3.6,0.8-4.7,2.8h-0.1v-2.4h-5.6v23.5h5.6v-16.2c0-2.1,0.3-3.7,2.1-3.7
	s2.1,1.6,2.1,3.7v16.2h5.6v-18.9C125.6,161.6,123.3,159.8,120.6,159.8z M288.5,162.5L288.5,162.5c-1.2-2-2.6-2.7-4.6-2.7
	c-5.6,0-5.5,7.3-5.5,12.1c0,4.9-0.2,12.4,5.6,12.4c2.1,0,3.7-0.8,4.7-3.1h0.1v2.6h5.3v-33.6h-5.6V162.5z M286.2,180.2
	c-2,0-2.4-2.5-2.4-8.4c0-4.7,0-8,2.4-8c2.3,0,2.2,3.2,2.2,8C288.5,177.7,288.1,180.2,286.2,180.2z M381.8,183.8h5.6v-23.5h-5.6
	V183.8z M381.8,155.3h5.6v-5.2h-5.6V155.3z M391.7,150.2v33.6h5.6v-33.6H391.7z M170.8,166c0-1.6,0.7-2.5,1.9-2.5
	c0.6,0,1.1,0.1,1.4,0.5c0.4,0.4,0.6,1.4,0.6,3h5.5c0.3-5.1-3.1-7.2-6.9-7.2c-3.6,0-7.9,1.5-7.9,6.6c0,7.5,9.8,6.4,9.8,11.4
	c0,1.6-1,2.4-2,2.4c-1.1,0-1.7-0.4-2-1.1c-0.3-0.8-0.3-1.8-0.3-2.8h-5.5v0c-0.3,6.6,2.9,8,7.8,8c4.6,0,7.5-3.1,7.5-7.2
	C180.6,169.6,170.8,169.7,170.8,166z M162.9,167.7L162.9,167.7c0-4.3-0.9-7.9-8-7.9c-2.1,0-4,0.4-5.2,1.5c-1.3,1.1-2,2.9-2,5.7h5.5
	c0-1.9,0.2-3.6,2.1-3.6c2,0,2.2,1.4,2.2,3.4v1.8c-5.2-0.1-10.3,0.2-10.3,8c0,4.1,1.4,7.5,5.3,7.5c2.4,0,4-1.2,5.2-3.6h0.1l0.2,3.1
	h5.2c-0.1-1.4-0.3-3-0.3-4.4V167.7z M154.7,180.2c-1.8,0-2-2-2-3.7c0-4.2,2-3.9,4.8-4.1C157.4,175,158,180.2,154.7,180.2z
	 M145.4,160.3h-5.8l-5,9.9h-0.1v-20h-5.6v33.6h5.6V171h0.1l5.2,12.8h6.3l-6.3-13L145.4,160.3z M187.3,166c0-1.6,0.7-2.5,1.9-2.5
	c0.6,0,1.1,0.1,1.4,0.5c0.4,0.4,0.6,1.4,0.6,3h5.5c0.3-5.1-3.1-7.2-6.9-7.2c-3.6,0-7.9,1.5-7.9,6.6c0,7.5,9.8,6.4,9.8,11.4
	c0,1.6-1,2.4-2,2.4c-1.1,0-1.7-0.4-2-1.1c-0.3-0.8-0.3-1.8-0.3-2.8h-5.5v0c-0.3,6.6,2.9,8,7.8,8c4.6,0,7.5-3.1,7.5-7.2
	C197.1,169.6,187.3,169.7,187.3,166z M275.3,167.7L275.3,167.7c0-4.3-0.9-7.9-8-7.9c-2.1,0-3.9,0.4-5.2,1.5c-1.3,1.1-2,2.9-2,5.7
	h5.5c0-1.9,0.1-3.6,2.1-3.6c2,0,2.2,1.4,2.2,3.4v1.8c-5.2-0.1-10.3,0.2-10.3,8c0,4.1,1.4,7.5,5.3,7.5c2.4,0,4-1.2,5.2-3.6h0.1
	l0.2,3.1h5.2c-0.1-1.4-0.3-3-0.3-4.4V167.7z M267,180.2c-1.8,0-2-2-2-3.7c0-4.2,2-3.9,4.8-4C269.8,175,270.3,180.2,267,180.2z
	 M249.4,173.8L249.4,173.8l-4.4-23.6h-7l-4.5,23.6h-0.1l-3.7-23.6h-6.1l6.3,33.6h6.5l4.9-24.6h0.1l4.5,24.6h6.6l6.3-33.6H253
	L249.4,173.8z M207.1,159.8c-7.4,0-8.2,5.5-8.2,11.9c0,7.4,1,12.5,8.2,12.5c2.6,0,4.6-0.8,5.9-2.3c1.3-1.4,2.1-3.5,2.1-6.1h-5.7
	c0,2-0.4,4.2-2.4,4.2c-2.5,0-2.5-4.2-2.5-7h10.7C215.5,165.6,214.6,159.8,207.1,159.8z M209.7,169.4h-5.1c0-2,0-5.6,2.5-5.6
	C209.8,163.9,209.7,167.1,209.7,169.4z"/>
<path id="color_red" fill="#F5333F" d="M134.5,56.9l23.2,80.5h35.4l-23.3-80.5H134.5z M230.2,56.9L207,137.4h35.4l23.3-80.5H230.2z"
	/>
<polygon id="color_yellow" fill="#FFCD00" points="200.1,138.8 176.8,56.2 200.1,4.2 224.7,56.2 "/>
</svg>
